<svg xmlns="http://www.w3.org/2000/svg" viewBox="0 0 225.86 55.07"><defs><style>.cls-1{fill:#d94423;}</style></defs><g id="レイヤー_2" data-name="レイヤー 2"><g id="レイヤー_1-2" data-name="レイヤー 1"><path class="cls-1" d="M72.78,42c.39,9.31,10.54,8.92,13.93,1.7,2.28-4.89.46-9.18-3.19-13.15-3.38-3.71,2.21-7.16,5.08-3.84,5.07,5.86,6.9,12,4.42,18.61-4.68,12.37-25.45,14.52-26-2.86-.06-1.82-.06-3.78.07-5.79a37.49,37.49,0,0,1-5-.78c-5.27-1.44-3.25-7.62.46-6.38a23.19,23.19,0,0,0,5,1c.26-2.86.59-5.72.92-8.65a30.55,30.55,0,0,1-5.41-1.11c-4.94-1.69-2.08-7.68,1.37-6.25a18.4,18.4,0,0,0,4.69,1.24c.06-.78.19-1.63.26-2.41.39-4.1.52-6.58.71-9.63C70.44-.87,76.62.17,76.62,4c0,3.06-.65,5.53-1.11,9.37-.06.79-.19,1.57-.26,2.35a12.69,12.69,0,0,0,1.63-.33c4.23-1,5.34,4.82,1.5,5.92a19.6,19.6,0,0,1-4,.66c-.39,2.92-.72,5.72-1,8.46a22.29,22.29,0,0,0,3.13-.59,3.11,3.11,0,1,1,2.08,5.86,23.29,23.29,0,0,1-5.79,1A49.64,49.64,0,0,0,72.78,42Z"/><path class="cls-1" d="M127.92,10.65c-3.38-4.17,3-7.68,5.6-4a66,66,0,0,1,7.62,15.17,121.46,121.46,0,0,1,11.45-7.16c4.43-2.48,7.81,3.77,2.8,6.31-6.64,3.38-13.34,7.16-18.49,11.52-6.44,5.47-6.63,10.35-1.56,12.82,4.56,2.28,13.87.59,17.77-.84,5.47-2.08,7.42,5.4,1.63,7-5.14,1.43-16,2.73-22.46-.52-9.37-4.75-9-15.3,1.56-23.7.66-.52,1.24-1,1.89-1.49C134,20.67,130.92,14.3,127.92,10.65Zm32.42,2.86A23,23,0,0,0,155.52,9c-3.12-1.75-.13-5.33,2.73-3.84a21.31,21.31,0,0,1,5.93,4.69C166.39,12.86,162.16,16.31,160.34,13.51Zm6.64-5A22.17,22.17,0,0,0,162,4.27c-3.19-1.69-.33-5.34,2.6-4a20.88,20.88,0,0,1,6.06,4.49C173,7.72,168.86,11.24,167,8.5Z"/><path class="cls-1" d="M215.8,44.56c4.76-4.23,4.56-10.41.85-12.89-3.38-2.27-10.41-2.73-17,1.11a14.41,14.41,0,0,0-5.47,4.88c-2.34,3.45-8.85-.39-4.81-4.36,7.16-7.09,12.43-12.1,19.65-21,.72-.91.07-.65-.45-.39a52.39,52.39,0,0,1-10.94,3.32c-5.14,1.1-6.12-5.34-1.69-5.86a100.1,100.1,0,0,0,14.32-3.19c5.21-1.5,9.5,3.12,6.25,6.77-2.08,2.34-4.69,4.88-7.29,7.29s-5.21,4.75-7.55,7c5.73-3.06,13.47-3.06,18.29-.2,9.37,5.6,6.31,17.06-.52,22-6.45,4.63-16.6,4.89-21.55,1.63-6.9-4.49-3.84-12.56,3.84-12.82,5.21-.2,10.09,2.93,10.29,8.79A8.76,8.76,0,0,0,215.8,44.56Zm-13.86-2c-2.86.26-3,2.93-.91,4a11.66,11.66,0,0,0,5.47,1C206.56,44.63,204.8,42.35,201.94,42.61Z"/><path class="cls-1" d="M2.54,21.87,27.05,3.63c3.38-2.52,7.62.63,7.62,5.67V45.77c0,5-4.24,8.18-7.62,5.67L2.54,33.2C-.85,30.68-.85,24.39,2.54,21.87Z"/></g></g></svg>