<?xml version="1.0" encoding="utf-8"?>
<!-- Generator: Adobe Illustrator 25.4.1, SVG Export Plug-In . SVG Version: 6.00 Build 0)  -->
<svg version="1.1" id="レイヤー_1" xmlns="http://www.w3.org/2000/svg" xmlns:xlink="http://www.w3.org/1999/xlink" x="0px"
	 y="0px" viewBox="0 0 527.1 695.1" style="enable-background:new 0 0 527.1 695.1;" xml:space="preserve">
<style type="text/css">
	.st0{clip-path:url(#SVGID_00000116216821620557990680000007809332482697605771_);}
	.st1{fill:#F7F8F8;}
	.st2{fill:#D94423;}
</style>
<g id="レイヤー_2_00000088836451973164689430000016467303142249966748_">
	<g id="レイヤー_1-2">
		<g>
			<defs>
				<rect id="SVGID_1_" x="3.2" width="523" height="695"/>
			</defs>
			<clipPath id="SVGID_00000093885916409936792900000010912036215163276197_">
				<use xlink:href="#SVGID_1_"  style="overflow:visible;"/>
			</clipPath>
			<g style="clip-path:url(#SVGID_00000093885916409936792900000010912036215163276197_);">
				<path class="st1" d="M525.3,717.9c-75.5,25.7-154.5,39.7-234.2,41.3c-97.5,1.9-194.4-14.5-285.8-48.3
					c14.8-80.1,40.9-138.7,60.8-175.7c24.3-45.1,42.8-64.3,62-78c31.2-22.2,62.9-28.5,85-33c7.8-1.6,47.1-9.1,98-2
					c14.8,2.1,40.3,5.8,71,19c11.9,5.1,36,15.4,57,34c13.2,11.6,29.9,33.1,55,103C510.3,623.3,520.7,670.2,525.3,717.9z"/>
				<path class="st2" d="M176.4,313.8c-23,1.5-39.2,22-34.8,45.1c0.9,4.6,3.8,9.3,7,12.8c9.3,10.2,21.8,14.3,35.1,16
					c6.2,0.8,11.7-1.4,16.9-4.9c1.1-0.8,3-0.4,4.5-0.5c0,1.5,0.4,3.3-0.2,4.5c-1.1,2-2.5,3.9-4.2,5.5c-2.6,2.7-2,5.2,0.9,6.4
					c3.2,1.4,7,1.5,10.4,2.5c2,0.5,5.4,1.3,5.5,2.4c0.4,2.3-0.1,5.1-3.9,5.8c-4.6,0.8-7.3,4.1-9.6,8.1c-1.2,1.8-3,3.1-5,3.7
					c-14.3,4.2-29.4,5.7-42.9,12.7c-5.3,2.8-11.1,4.6-16.5,7c-15.7,6.9-28.8,17.6-39.6,30.6c-11.1,13.4-21.4,27.6-31.7,41.8
					c-18,24.8-29.1,53-39.2,81.6c-3.1,8.6-6.6,17.1-8.9,25.9c-4.7,17.8-8.9,35.6-13,53.5c-2.6,11.3-4.8,22.8-7,34.2
					c-1.3,7.2,0.3,10.6,4.6,11.4c4.6,0.8,7.2-2.3,8.8-9.3c5.6-24.3,10.9-48.6,17.2-72.7c4.6-17.7,9.9-35.2,16.1-52.4
					c10.9-30.4,25.7-58.8,46.7-83.7c9.3-11,16.5-23.9,28.1-33c5.7-4.5,11.4-9.4,17.8-12.7c19.2-10,39.6-17.3,60.8-21.6
					c3.2-0.6,4.9,0.5,7.3,2.4c7.8,6.2,15.9,12,24.2,17.5c19.9,13.2,42.2,19.3,65.9,20.4c7.8,0.4,15.5,0.1,23.9,0.1
					c0.5,8.4,1.1,16.3,1.4,24.3c1.3,38.5,3.1,76.9,3.6,115.4c0.4,31.8-0.7,63.6-1.3,95.4c-0.1,8.2-0.6,16.3-1.2,24.5
					c-0.4,4.3-1,8.5-1.8,12.8c-0.9,4.6,0.8,8.2,4.7,9.1c4.4,1.1,7.2-1.3,8.3-5.2c1.3-4.5,2-9.1,2.2-13.8c1.1-31.1,2.7-62.3,2.8-93.4
					c0.1-36.3-0.8-72.6-1.8-109c-0.6-19.6-2.4-39.2-3.6-58.8c-0.1-1.1,0-2.3,0-3.5c16.1-2.8,31.3-9.8,43.9-20.3
					c1.7-1.2,3.8-1.6,5.8-1.1c27,9.1,51.4,21.5,67.9,46.8c18.5,28.5,29.6,59.8,40.3,91.5c4.2,12.5,5.5,25.9,8,39
					c2.5,12.9,5.4,25.7,7.4,38.6c2.1,13.8,3.3,27.8,4.9,41.6c0.2,2.1,0.4,4.3,0.8,6.4c0.8,4,3.2,6.3,7.3,5.8
					c3.9-0.5,5.8-3.3,5.5-7.1c-0.7-8.6-1.2-17.3-2.5-25.8c-4.3-28.1-7.8-56.4-13.9-84.1c-4.2-19.2-11.9-37.7-18.4-56.3
					c-3.3-9.2-7.4-18.2-11.5-27.1c-11.3-25.3-26.3-47.9-50-63.3c-7.8-5-16.5-8.7-25-12.4c-6.4-2.8-13.1-4.7-19.6-7.2
					c-1.6-0.8-3-1.8-4.2-3.1c-3.2-3-6.3-6.2-9.4-9.3c-0.9-0.8-1.6-1.9-1.8-3.1c-0.6-6.6,3.5-11.1,10-10.9
					c13.5,0.3,25.9-3.5,37.7-9.9c15.8-8.8,30.8-18.6,42.9-32.3c16.4-18.6,24.5-40.8,29.7-64.5c3.9-17.7,0.9-35.1-1.3-52.6
					c-0.6-5.7-0.4-11.5,0.7-17.2c1.9-9.9,4.5-19.7,7.1-29.5c0.6-2,1.9-3.8,3.6-5.1c3.9-2.7,6.1-7.3,5.7-12.1
					c-0.6-9.1-1.4-18.3-3.2-27.1c-3.9-18.6-9.6-36.7-19-53.4c-3-5.4-5.9-10.8-9.1-16c-3.7-5.9-7.7-11.6-11.6-17.4
					c-17.7-27-42.1-45.5-72.2-56.7c-5.1-1.9-10.3-3.8-15.4-5.8c-23-9.1-47.8-12.8-72.4-10.9c-47.3,3.9-88.4,21.9-120,57.9
					c-15.8,18-27.2,39.1-35.4,61.6c-15,41.2-16.4,83.7-8.8,126.4c2.5,13.7,6.9,27.1,13.1,39.6c4.7,9.6,13.2,17.4,20.1,25.8
					C173.6,312.9,175.3,313.2,176.4,313.8z M477.6,234.8c0.1-2.3,0.1-4.6,0.3-6.9c0.9-9.3-2-17.6-7.7-25.6h16.2
					C483.4,213.5,480.4,224.1,477.6,234.8c0.1,6.9,0,13.8,0.5,20.7c0.7,10.9,2.7,21.9,2.6,32.8c-0.1,14.6-4.8,28.4-10.1,42
					c-13.2,33.9-39.1,55.2-72.1,65.6c-28,8.8-56.7,3.1-83.3-10c-2.2-1.1-4.6-2.4-6.9-2.5c-2.1,0.1-4,1.1-5.2,2.8
					c-0.8,1.5-0.2,4.1,0.5,6c0.5,1.2,2.1,2.1,3.4,2.8c13,7,26.5,12.4,41.3,14.2c4,0.5,8,1.1,11.1,1.5c1.9,13.2-4,21-15.5,25
					c-1.7,0.6-3.3,1.6-5,2.2c-5.9,2-11.5,6.4-18.1,1.8c-0.3-0.1-0.7-0.2-1-0.1c-7.8-0.7-15.6-1.5-23.4-2c-16.6-1.1-32.7-3.8-47.4-12
					c-5.4-3-10.4-6.5-15.8-9.5c-2.9-1.6-3.5-3.3-2.8-6.4c1.2-6,2.1-12.1,2.9-18.2c3.4-25.6,5-51.4,2.6-77.2
					c-0.7-8-0.3-16.9-8.7-22.2c-0.5-0.3-0.3-1.8-0.4-2.7c-0.1-2-0.1-4-0.4-6c-1.4-10.2-8.8-13.4-16.9-7.3
					c-8.2-6.1-12.6-14.9-16.1-24.1c-3.9-10.1-2.7-20,2-29.5c2.4-4.9,6.5-8.4,12.1-8.5c6.3-0.1,12.4,1.2,15.5,7.8
					c1.7,3.4,4.2,5,8.1,3.9c1.3-0.2,2.6-0.1,3.9,0.1c17.6,1.4,35.1,2.9,52.7,4.1c2.9,0.2,4,1.4,4.6,4c2.1,9.6,7.8,16.8,15.8,22.3
					c16.4,11.2,39.9,10.7,55.8-1.1c6.7-4.8,11.6-11.7,13.9-19.6c0.8-2.8,1.1-5.8,5.1-5.3c3.8,0.4,7.6,0.6,9.4,5
					c7.1,17.9,21.3,26,39.7,26.7c19.1,0.8,34.4-6.4,43.4-24.2C476,236.8,476.8,235.7,477.6,234.8z M390.1,221.8
					c-3.1-0.2-5.7,0-8.1-0.6c-1.5-0.4-3.5-1.8-3.9-3.1c-5-16.2-16.6-24.8-32.4-28.6c-3.7-0.9-7.6-1.1-11.8-1.6
					c3.4-4.4,6.3-8.3,9.9-13.1c-2.6,10-1.5,12,7.7,14.3c2.3,0.5,4.6,0.8,6.9,0.8c10.5,0.3,21,0.1,31.4,0.8c4,0.3,7.1-0.3,10.1-2.8
					c6.8-5.7,12.2-12.9,15.5-21.2c1.7-4.5,4.2-5.4,8.3-3.6s8.1,3.8,12.4,5.1c1.9,0.5,4.3-0.7,6.5-1.2c-0.8-2.1-1.3-4.4-2.6-6.2
					c-0.9-1.2-2.8-1.7-4.3-2.3c-4.7-1.8-9.5-3.6-13.3-5c2-13.9,3.9-27.2,5.9-41.1c15.1,23.5,24.9,48.5,25.3,77.4
					c-14-4.7-27.1-4.9-40,1C400.4,197,392.4,207.1,390.1,221.8L390.1,221.8z M434.5,253.5c-9.9,0.2-18.4-2.7-25.7-8.9
					c-13.6-11.6-13.1-30.4,1-41.4c13.6-10.6,34.1-10.9,48-0.5c15.3,11.4,15.5,31.3,0.5,43C451.6,251,443.1,253.8,434.5,253.5
					L434.5,253.5z M335.4,255.5c-9.4,0.4-18.7-2.8-25.8-9c-13.4-11.6-12.9-30.1,1-41.1c13.7-10.8,34.4-11.1,48.4-0.5
					c15,11.3,15.3,31,0.5,42.7C352.7,253,344.1,255.8,335.4,255.5L335.4,255.5z M245.1,218.2c5.1-7.9,9.3-14.7,13.8-21.2
					c1-1.4,2.9-3.1,4.5-3.2c11.9-0.8,23.9-1.3,35.8-1.8c4.7-0.2,9.4,0,14.1,0l0.3,1.2c-10.2,5.4-17.6,13.1-21.2,24.1
					c-0.6,0.9-1.6,1.5-2.6,1.6C275,218.7,260.2,218.4,245.1,218.2z M218,421.9c5.9,3.7,11.3,7.8,17.4,10.7
					c9.9,4.9,19.8,10.8,30.4,13.1c17,3.7,34.5,5,51.8,6.9c4,0.4,4.3,2.3,3.9,5.2c-0.5,3.5-3,4.7-6.1,4.5
					c-11.6-0.8-23.2-1.2-34.7-2.8c-18-2.5-33.7-10.9-48.6-20.7c-4.4-2.9-8.8-6.1-12.9-9.3C216.5,427.6,214.6,425.2,218,421.9z
					 M370.4,441.7c-10.1,9.1-21.8,14.3-35,17.3c-0.5-3.3-1-5.3,2.5-6.9c8.7-3.9,17.3-8.2,25.6-13
					C367.1,437.1,368.7,437.7,370.4,441.7L370.4,441.7z M185.8,314.8c0.5,0,1.1,0.1,1.6,0.3c10.6,5.7,21.4,10.8,33.8,10.5
					c0.7,0,1.3,1,2,1.5c-1,0.6-2.1,1.8-2.8,1.6c-11-2.7-22-5.6-33-8.5C184.4,319.4,184.3,317.2,185.8,314.8z M189.7,344.6
					c-1.5,4.6,1.1,9.7-4.6,10.5c-1.3,0.2-4.6-3.6-4.6-5.6C180.3,343.7,185.3,346,189.7,344.6z M216.5,279.2
					c4.1,3.9,4.6,7.9,2.7,12.1c-1.3,2.9-3.5,5-8.2,3.7C219.1,291.7,214.7,285,216.5,279.2L216.5,279.2z"/>
				<path class="st2" d="M308.8,495.2c-6.6,0-9.6,3.5-9.6,11.1c0,5.4,5.7,12.1,10.4,12c6.3-0.1,10.5-5.5,10.4-13.3
					C319.9,498.8,315.8,495.2,308.8,495.2z M305.8,504.1c0.6-0.5,2.4-2.8,3.4-2.5c1.9,0.7,3.4,2.3,4.2,4.2c0.4,1.1-1.6,4.1-2.5,4.1
					C308.5,509.9,305.4,509.4,305.8,504.1L305.8,504.1z"/>
				<path class="st2" d="M296.4,710.5c0,5.7,3.4,9.3,8.8,9.3c7.2,0,11.9-4.2,11.9-10.7c0-5.5-4.7-9.7-10.6-9.5
					C300.6,699.8,296.4,704.3,296.4,710.5z M302.3,711.2l-0.1-1.9c1.5-1.1,3.1-2.9,4.6-3c1.3,0,2.6,2.2,3.9,3.4
					c-1.5,1.2-2.9,2.9-4.6,3.5C305.1,713.5,303.6,711.9,302.3,711.2z"/>
				<path class="st2" d="M310.1,565.4c-6.1,0-9.9,3.9-9.8,9.9c0.1,5.5,3.7,9,9,9c6.9,0,11.1-3.8,11-10
					C320.4,568.9,316.4,565.4,310.1,565.4z M310,570.3l4.1,4.4c-1.3,1-2.5,2.6-3.9,2.8c-1,0.2-3.2-1.5-3.2-2.3
					C307.1,573.8,308.5,572.6,310,570.3z"/>
				<path class="st2" d="M306.2,643.5c-6.8,0-10.1,3.1-10.1,9.4s3.5,9.9,9.3,9.9c5,0,10.3-5.6,10.4-10.9
					C315.9,646.8,312.1,643.5,306.2,643.5z M304.7,656.6l-2.6-2.1c1-1.5,1.8-3.5,3.2-4.4c0.7-0.4,2.6,1,4,1.6L304.7,656.6z"/>
				<path class="st1" d="M477.6,234.8c-0.9,0.9-1.7,1.9-2.3,3c-9,17.9-24.3,25.1-43.4,24.2c-18.4-0.8-32.5-8.9-39.7-26.8
					c-1.8-4.5-5.6-4.6-9.4-5c-4-0.4-4.3,2.5-5.1,5.3c-2.3,7.9-7.2,14.8-13.9,19.6c-15.9,11.8-39.5,12.2-55.8,1
					c-8-5.4-13.6-12.6-15.8-22.3c-0.6-2.6-1.7-3.8-4.6-4c-17.6-1.2-35.1-2.7-52.7-4.1c-1.3-0.3-2.6-0.3-3.9-0.1
					c-3.9,1.1-6.4-0.5-8.1-3.9c-3.2-6.6-9.3-7.9-15.5-7.8c-5.6,0.1-9.6,3.6-12.1,8.5c-4.7,9.5-5.8,19.4-2,29.5
					c3.5,9.2,7.9,18,16.1,24.1c8.1-6.1,15.5-3,16.9,7.3c0.3,2,0.2,4,0.4,6c0.1,1-0.1,2.4,0.4,2.7c8.4,5.2,8,14.2,8.7,22.2
					c2.4,25.8,0.8,51.6-2.6,77.2c-0.8,6.1-1.7,12.2-2.9,18.2c-0.6,3.1,0,4.9,2.8,6.4c5.4,3,10.4,6.5,15.8,9.5
					c14.7,8.2,30.9,10.9,47.4,12c7.8,0.5,15.6,1.3,23.4,2c0.3,0,0.7,0,1,0.1c6.5,4.6,12.2,0.2,18.1-1.8c1.7-0.6,3.3-1.6,5-2.2
					c11.5-4,17.4-11.8,15.5-25c-3.1-0.4-7.1-1-11.1-1.5c-14.8-1.8-28.3-7.2-41.3-14.2c-1.3-0.7-2.9-1.6-3.4-2.8
					c-0.7-1.9-1.3-4.5-0.5-6c1.2-1.7,3.1-2.7,5.2-2.8c2.3,0.1,4.7,1.4,6.9,2.5c26.6,13.2,55.2,18.9,83.3,10
					c33.1-10.4,59-31.8,72.1-65.6c5.3-13.6,9.9-27.4,10.1-42c0.1-10.9-1.8-21.8-2.6-32.8c-0.5-6.9-0.4-13.9-0.5-20.8L477.6,234.8z
					 M410.3,333.9c-0.1,1.3-0.1,2.7-0.2,4c-0.8,7.6-7.8,15.4-14.7,16.3s-14.6-4.7-17-12.7c-2.5-8.8-0.4-16.8,5.2-23.8
					s15.6-6.8,21.1,0.2C408.4,322.5,410.7,327.8,410.3,333.9z M399,294.6c-3.7-1.3-7.1-1.9-9.8-3.6c-1.5-0.9-1.8-3.7-2.6-5.6
					c1.9-0.6,4.1-2.3,5.5-1.7c4.3,1.6,8.1,2,12.4-0.1c1.1-0.5,3.9,0.8,4.8,2c0.6,0.9-0.2,3.9-1.2,4.6
					C405.2,292,401.9,293.2,399,294.6z"/>
				<path class="st1" d="M390.1,221.8c2.2-14.6,10.2-24.8,23.4-30.9c12.8-6,26-5.7,40-1c-0.5-28.9-10.2-53.9-25.3-77.4
					c-2,13.8-3.9,27.1-5.9,41.1c3.8,1.4,8.5,3.1,13.3,5c1.5,0.6,3.5,1.1,4.3,2.3c1.3,1.8,1.8,4.1,2.6,6.2c-2.2,0.4-4.6,1.7-6.5,1.2
					c-4.3-1.2-8.3-3.3-12.4-5.1s-6.5-0.9-8.3,3.6c-3.3,8.2-8.6,15.5-15.5,21.2c-3,2.6-6.1,3.1-10.1,2.8c-10.4-0.7-20.9-0.5-31.4-0.8
					c-2.3,0-4.6-0.3-6.9-0.8c-9.1-2.4-10.3-4.4-7.7-14.3c-3.6,4.7-6.5,8.6-9.9,13.1c4.2,0.6,8.1,0.7,11.8,1.6
					c15.8,3.8,27.4,12.4,32.4,28.6c0.4,1.4,2.4,2.7,3.9,3.1C384.4,221.8,387,221.6,390.1,221.8z"/>
				<path class="st1" d="M434.5,253.5c8.6,0.3,17.1-2.5,23.8-7.8c15-11.7,14.8-31.6-0.5-43c-13.9-10.3-34.4-10.1-48,0.5
					c-14.1,11-14.6,29.8-1,41.4C416.1,250.8,424.6,253.7,434.5,253.5z M423.1,220.9c0-1.5,0.1-3,0.3-4.5c1-6.5,5.9-10.4,12.2-9.9
					c6,0.5,10.2,5.3,10.3,11.9c0.2,10.4-3.6,17.8-9.7,18.7c-0.5,0.1-1,0.1-1.5,0.1C427.3,237.3,423.1,231.7,423.1,220.9z"/>
				<path class="st1" d="M335.4,255.5c8.7,0.3,17.3-2.5,24.1-8c14.8-11.6,14.5-31.3-0.5-42.7c-13.9-10.5-34.7-10.3-48.4,0.5
					c-13.9,11-14.4,29.5-1,41.1C316.7,252.7,326,255.9,335.4,255.5z M326.4,224.6c0.3-2.5,0.7-5,1.4-7.5c2.7-9.1,12.1-11.2,18.6-4.2
					c6.1,6.5,5.4,20.7-1.7,26.1c-2.3,1.5-5.1,2.1-7.7,1.6C330.4,238.8,326.4,232.7,326.4,224.6L326.4,224.6z"/>
				<path class="st1" d="M245.1,218.2c15,0.3,29.8,0.6,44.5,0.7c1.1-0.1,2.1-0.7,2.6-1.6c3.6-11.1,11-18.8,21.2-24.1l-0.3-1.2
					c-4.7,0-9.4-0.1-14.1,0c-12,0.5-23.9,1-35.8,1.8c-1.6,0.1-3.5,1.7-4.5,3.2C254.4,203.5,250.3,210.2,245.1,218.2z"/>
				<path class="st1" d="M218,421.9c-3.4,3.3-1.4,5.7,0.9,7.6c4.2,3.3,8.5,6.4,12.9,9.3c15,9.8,30.7,18.2,48.6,20.7
					c11.5,1.6,23.1,2,34.7,2.8c3.1,0.2,5.6-1,6.1-4.5c0.4-2.9,0.1-4.8-3.9-5.2c-17.3-1.9-34.8-3.2-51.8-6.9
					c-10.6-2.3-20.5-8.2-30.4-13.1C229.3,429.6,223.8,425.5,218,421.9z"/>
				<path class="st1" d="M370.4,441.7c-1.7-4-3.3-4.6-7-2.5c-8.3,4.8-16.9,9-25.6,13c-3.5,1.6-3,3.6-2.5,6.9
					C348.6,456,360.2,450.8,370.4,441.7z"/>
				<path class="st1" d="M477.6,234.7c2.9-10.6,5.8-21.2,8.9-32.4h-16.2c5.7,8.1,8.6,16.3,7.7,25.6
					C477.7,230.2,477.7,232.5,477.6,234.7C477.6,234.8,477.6,234.7,477.6,234.7z"/>
				<path class="st1" d="M185.8,314.8c-1.5,2.5-1.4,4.6,1.6,5.4c11,3,22,5.8,33,8.5c0.8,0.2,1.9-1.1,2.8-1.6c-0.7-0.5-1.4-1.6-2-1.5
					c-12.5,0.3-23.2-4.8-33.8-10.5C186.8,314.9,186.3,314.8,185.8,314.8z"/>
				<path class="st1" d="M189.7,344.6c-4.4,1.4-9.4-0.9-9.2,4.9c0.1,2,3.3,5.8,4.6,5.6C190.8,354.2,188.1,349.1,189.7,344.6z"/>
				<path class="st1" d="M216.5,279.2c-1.8,5.8,2.6,12.5-5.5,15.9c4.7,1.3,6.9-0.8,8.2-3.7C221.1,287.1,220.6,283.1,216.5,279.2z"/>
				<path class="st1" d="M305.8,504c-0.4,5.4,2.6,5.8,5.1,5.8c0.9,0,2.8-3.1,2.5-4.1c-0.7-1.9-2.3-3.4-4.2-4.2
					C308.2,501.3,306.4,503.6,305.8,504z"/>
				<path class="st1" d="M302.3,711.2c1.3,0.7,2.9,2.3,3.8,2c1.7-0.6,3.1-2.3,4.6-3.5c-1.3-1.2-2.6-3.4-3.9-3.4
					c-1.6,0-3.1,1.9-4.6,3L302.3,711.2z"/>
				<path class="st1" d="M310,570.3c-1.5,2.3-2.9,3.5-3,4.9c-0.1,0.8,2.2,2.5,3.2,2.3c1.4-0.3,2.6-1.8,3.9-2.8L310,570.3z"/>
				<path class="st1" d="M304.7,656.6l4.6-4.9c-1.4-0.6-3.3-2-4-1.6c-1.4,0.9-2.2,2.9-3.2,4.4L304.7,656.6z"/>
				<path class="st2" d="M410.3,333.9c0.4-6.1-1.9-11.4-5.6-16.1c-5.6-7-15.6-7.2-21.1-0.2s-7.7,15.1-5.2,23.8
					c2.3,8,10.2,13.6,17,12.7s14-8.7,14.7-16.3C410.2,336.6,410.2,335.3,410.3,333.9z M385.2,334.3c1.6-3.6,2.9-7.6,5-11.2
					c1.6-2.8,4.5-2.6,7-0.8c5.7,4.1,6.6,15.1,1.7,20.2c-4,4.2-8.5,3.7-11.3-1.4C386.7,339.3,386.2,337.2,385.2,334.3L385.2,334.3z"
					/>
				<path class="st2" d="M399,294.6c3-1.4,6.2-2.6,9-4.5c1.1-0.7,1.9-3.7,1.2-4.6c-0.9-1.3-3.7-2.6-4.8-2c-4.3,2.2-8.1,1.8-12.4,0.1
					c-1.4-0.5-3.7,1.1-5.5,1.7c0.8,1.9,1.1,4.7,2.6,5.6C391.9,292.7,395.2,293.3,399,294.6z"/>
				<path class="st2" d="M423.1,220.9c-0.1,10.9,4.1,16.5,11.6,16.3c0.5,0,1,0,1.5-0.1c6.1-0.9,10-8.3,9.7-18.7
					c-0.2-6.7-4.3-11.5-10.3-11.9c-6.3-0.5-11.2,3.4-12.2,9.9C423.2,217.8,423.2,219.3,423.1,220.9z"/>
				<path class="st2" d="M326.4,224.6c-0.1,8.1,4,14.2,10.5,15.9c2.7,0.5,5.5,0,7.7-1.6c7.1-5.4,7.8-19.6,1.7-26.1
					c-6.5-7-15.9-4.9-18.6,4.2C327.2,219.6,326.7,222.1,326.4,224.6z"/>
				<path class="st1" d="M385.2,334.3c1,2.8,1.4,5,2.4,6.8c2.8,5.1,7.3,5.6,11.3,1.4c4.8-5.1,3.9-16.1-1.7-20.2
					c-2.5-1.8-5.3-2-7,0.8C388.1,326.8,386.8,330.8,385.2,334.3z"/>
			</g>
		</g>
	</g>
</g>
</svg>
