<?xml version="1.0" encoding="utf-8"?>
<!-- Generator: Adobe Illustrator 25.4.1, SVG Export Plug-In . SVG Version: 6.00 Build 0)  -->
<svg version="1.1" id="レイヤー_1" xmlns="http://www.w3.org/2000/svg" xmlns:xlink="http://www.w3.org/1999/xlink" x="0px"
	 y="0px" viewBox="0 0 502 694.3" style="enable-background:new 0 0 502 694.3;" xml:space="preserve">
<style type="text/css">
	.st0{clip-path:url(#SVGID_00000006691291185034313390000001371943667183360900_);}
	.st1{fill:#F7F8F8;}
	.st2{fill:#D94423;}
</style>
<g id="レイヤー_2_00000070806972450669331740000004631168082867655076_">
	<g id="レイヤー_1-2">
		<g>
			<defs>
				<rect id="SVGID_1_" width="502" height="694.3"/>
			</defs>
			<clipPath id="SVGID_00000060014710833354700830000001064025452185945987_">
				<use xlink:href="#SVGID_1_"  style="overflow:visible;"/>
			</clipPath>
			<g style="clip-path:url(#SVGID_00000060014710833354700830000001064025452185945987_);">
				<path class="st1" d="M3,744.2l496-7c-0.5-48.5-7.9-96.6-22-143c-16.7-54.5-30.9-100.8-74-131c-20.6-14.5-40.6-20.1-72-29
					c-33.7-9.5-66.3-18.8-106-15c-95.9,9.1-152.2,86.5-156,92c-16,22.7-22.5,42.1-35,80C17.7,640.7,7.3,692.1,3,744.2z"/>
				<path class="st2" d="M135.8,443c1-13.9,9.8-22.5,23.1-29c-2.4-0.8-3.7-1.5-5-1.7c-34.4-3.2-62-18.9-83.3-45.9
					c-18.1-22.9-26.3-49.3-26.9-78.1c-0.5-24.4-3.2-48.3-11.3-71.4c-1.3-3.9-2.2-8-2.9-12.1c-0.5-2.7-1.8-4.1-4.7-3.8
					c-1.2,0-2.3,0-3.5-0.1c-6.7-0.2-8.2-1.6-9.1-8.5c-2.5-18.1,0.2-35.7,4.8-53.2c4.5-17,10.6-33.2,21.8-47c1-1.3,1.8-2.8,2.3-4.3
					c9-24.2,26.8-40.6,47.7-54.3c14.4-9.5,30.2-16.9,46.7-21.8c25.8-7.6,52-14.7,79.2-10.5c35.1,5.4,66.7,19,91.1,45.7
					c12.8,13.9,24.9,28.4,36.5,43.4c10.9,14.1,15.9,31.2,22.1,47.6c9.5,25.1,14.4,51,13.5,77.9c-0.8,24.1-4.7,47.6-15.1,69.5
					c-6.8,14.6-16.8,27.6-29.2,38c-1.5,1.1-3,2.1-4.6,3c-0.4,4,1.5,6.1,4.6,8.7c25.9,21.2,39.9,48.1,37,82.1
					c-0.6,7.3-3.7,14.4-5.8,22c1.9,0.7,3.8,1.5,5.8,2.2c25.1,8,45.8,21.7,63.4,41.9c18.5,21.2,28.5,45.9,37.5,71.7
					c10.6,30.3,17.2,61.6,23.6,92.9c4,19.6,5.6,39.6,8.2,59.5c0.5,4-1,7.3-5.5,8c-4.4,0.6-6.7-2.3-7.4-7.9
					c-2.1-16.6-3.3-33.4-6.7-49.7c-7.7-37.1-16-74.1-28.6-110.1c-9.3-27.3-25.3-51.8-46.5-71.3c-11.1-10.3-24.8-16-38.6-21.1
					s-27.9-9.3-42-13.8c-3-0.9-6.1-1.6-9.2-2c-1.1,0-2.1,0.5-2.9,1.3c-3.5,3.3-6.9,6.7-10.2,10.2c-20.1,20.6-42.8,37.6-69.6,48.8
					c-3.2,1.1-6.7,1.3-10,0.5c-5.4-1.2-6.7-5.5-7.6-10.8c-1.2-7.1-3.3-14.1-6.2-20.7c-2.2-5.1-5.5-5.2-9.2-1
					c-6.1,7-9.1,15.4-10.8,24.5c-4.7,25.8-5.3,51.8-5,77.9c0.1,15.9,0.8,31.8,1.2,47.8c0,1.2,0.2,2.3,0.2,3.5c0,3.9-1.9,6.6-5.7,6.9
					c-4.1,0.4-6.6-2.2-7-6.2c-0.9-7.4-1.9-14.9-1.9-22.3c0.1-24.2-0.2-48.5,1.2-72.7c1-17,4.6-33.8,6.9-50.7
					c0.3-1.7,0.1-3.5-0.3-5.2c-7.7,4.9-13.7,12.1-17.3,20.5c-1.5,3.5-2.1,7.5-4,10.7c-1.3,2.3-3.9,4.9-6.2,5.2c-2,0.3-4.9-2-6.5-4
					c-8.2-10.2-8.9-22.9-10.8-35.2c-0.5-3.1-0.9-6.2-1.4-10c-7.8,6.2-15.3,12-22.7,18c-2.6,2.1-4.6,4.8-7.3,6.8
					c-21.4,16.3-34.5,38.7-46,62.2c-16,32.8-28.7,67.1-37.9,102.4c-7.5,28.3-11,57.3-11.7,86.6c0,0.7,0,1.3,0,2
					c-0.2,5.2-2.7,8-7,7.8c-3.9-0.2-6.7-3.4-6.4-8c1-14.9,1.7-29.8,3.5-44.6c6.6-56.2,26.2-108.4,50.9-158.8
					c11-22.6,24.9-43.8,45.6-59.6c11-8.4,21-18.3,31.6-27.3C130.2,444.5,133,444.1,135.8,443z M175.5,163.3c0,6.4,0.1,11.6,0,16.8
					c-0.1,5.7-2.3,8.8-7.9,9.6c-7.5,1.1-15.2,1.3-22.7,2.3c-7.3,1-11.1-2.8-13.8-8.8c-0.8-1.6-1.5-3.3-2.1-5
					c-1.7-6.4-3.3-12.8-5-19.2c-1,8.5-1.4,17-1.1,25.6c0.1,4.4-1.1,7.4-6.1,7.8c-10.3,0.8-20.7,1.8-31,2.4c-1.3,0.1-3.4-1.3-4-2.6
					c-2.3-4.3-4.1-8.8-6.2-13.2c-0.7,1.6-1,3.3-0.8,5c0,9.4-1.2,11.2-10.3,13c-7.3,1.4-14.6,2.4-22.2,3.6c0.4,1.6,0.7,3.4,1.2,5.1
					c7.4,22.1,12.2,44.6,13.2,67.9c0.6,13.5,1.3,27.2,3.8,40.5c3.6,19.6,13.6,36.4,27,51.2c19,21,42.7,32.3,70.7,33.2
					c23,0.8,45.1-4.9,65.7-14.7c11.4-5.4,21.3-13.9,32-20.7c1.7-1.1,4.4-2,6.2-1.6c5.6,1.3,7,7.4,2.4,12.1
					c-3.7,3.9-8.2,7.1-12.6,10.4c-22.4,16.6-47.9,24.9-75.3,28.1c-3.4,0.4-5.4,0.8-4.1,5c0.7,2.3,0.3,5,0.2,7.4
					c-0.9,16,10.6,24.6,19.6,34.9c3.1-2.4,5.3-4.7,8.1-6c13.4-6.5,27-12.6,40.3-19.1c15.5-7.5,30.7-15.5,46.2-23
					c4.5-2.2,5.2-5,4.4-9.8c-3-16.8-5.9-33.6-7.8-50.5c-2.1-18.6-0.3-36.8,11.1-52.7c3.8-5.2,7.8-10.2,12.2-15.9
					c-8.2-1.3-10.5-6.4-9.3-13.7c0.6-3.8,2.5-6.7,6.4-7.4c7-1.3,12.5,0.6,14.2,9.3c10.7-13.2,13.3-27,8.8-41.9c-1-3.2-4-7.1-7-8.3
					c-6.6-2.6-15.9,1.9-19.8,8.1c-1.4,2.3-2.4,4.7-3.8,7c-2.3,3.6-5.6,5.2-9.8,3.6c-3.6-1.4-4.9-5.8-3.7-10.2
					c0.4-1.4,0.5-3.4-0.2-4.4c-9.4-12.1-15.1-26-20.3-40.2c-1.4-3.8-2.9-5-6.8-3.6c-2.8,1-5.7,1.6-8.7,1.8
					c-13.6,1.3-15.3,5-23.2-9.9c-3-5.7-6.2-11.3-9.4-17l-1.5,0.5c1.7,5.6,3.2,11.3,5.1,16.9c2,5.7,0.8,8.7-4.9,9.7
					c-6,1-12.2,1.4-18.2,2.4c-3.6,0.6-6-0.9-7.8-3.8C183.4,175.6,179.8,170,175.5,163.3L175.5,163.3z M296.3,334l0.2,1.5
					c7.3,2.2,14.4,0.9,21.5-1.2c1-0.3,1.8-1.5,2.6-2.4c-1.2-0.4-2.5-1.2-3.7-1.1c-5.9,0.6-11.8,1.4-17.7,2.2
					C298.2,333.3,297.2,333.6,296.3,334z"/>
				<path class="st2" d="M191.7,590c0-7.5,3.1-11.1,9.6-11.1s10.1,3.7,10.2,10.2c0.1,5.5-5.9,11.4-11.5,11.5S191.7,597.1,191.7,590z
					"/>
				<path class="st2" d="M213.7,498.2c0,6.1-4.2,11.2-9.1,11s-10.6-7-10.4-12.7c0.1-5.5,4.5-10.1,9.5-10.2
					C209.4,486.3,213.8,491.5,213.7,498.2z"/>
				<path class="st2" d="M212.6,528.3c0.1,6.1-3.9,10.6-9.3,10.7c-6.3,0.1-10.2-3.7-10.3-10.1c-0.1-5.8,4-10.4,9.6-10.5
					C208.3,518.2,212.5,522.4,212.6,528.3z"/>
				<path class="st2" d="M202.6,548.2c5.3-0.1,9.7,4,9.8,9.3c0,0.3,0,0.5,0,0.8c-0.2,5.3-6.7,11.5-12,11.3c-4.1-0.1-7.6-6-7.4-12.5
					C193.1,551.5,196.8,548.1,202.6,548.2z"/>
				<path class="st1" d="M175.5,163.2c4.3,6.8,7.9,12.4,11.4,18c1.8,2.9,4.2,4.4,7.8,3.8c6.1-0.9,12.2-1.3,18.2-2.4
					c5.8-1,6.9-3.9,4.9-9.7c-1.9-5.5-3.4-11.2-5.1-16.9l1.5-0.5c3.1,5.7,6.3,11.3,9.4,17c8,15,9.7,11.3,23.2,9.9
					c3-0.2,5.9-0.8,8.7-1.8c3.9-1.4,5.4-0.2,6.8,3.6c5.2,14.2,10.8,28.1,20.3,40.2c0.8,1,0.6,3,0.2,4.4c-1.2,4.4,0.1,8.8,3.7,10.2
					c4.1,1.6,7.5,0,9.8-3.6c1.4-2.2,2.4-4.7,3.8-7c3.9-6.3,13.2-10.7,19.8-8.1c3,1.2,6,5,7,8.3c4.6,14.9,1.9,28.7-8.8,41.9
					c-1.7-8.7-7.2-10.5-14.2-9.3c-3.8,0.7-5.8,3.6-6.4,7.4c-1.2,7.3,1.2,12.4,9.3,13.7c-4.5,5.8-8.5,10.7-12.2,15.9
					c-11.5,15.9-13.2,34.1-11.1,52.7c1.9,16.9,4.8,33.7,7.8,50.5c0.9,4.8,0.1,7.6-4.4,9.8c-15.5,7.6-30.7,15.5-46.2,23
					c-13.4,6.5-27,12.6-40.3,19.1c-2.8,1.3-5,3.7-8.1,6c-9-10.2-20.5-18.9-19.6-34.9c0.1-2.5,0.5-5.1-0.2-7.4
					c-1.2-4.2,0.8-4.6,4.1-5c27.4-3.2,52.9-11.5,75.3-28.1c4.4-3.2,8.9-6.5,12.6-10.4c4.6-4.8,3.2-10.8-2.4-12.1
					c-1.9-0.4-4.5,0.5-6.2,1.6c-10.7,6.9-20.6,15.3-32,20.7c-20.6,9.8-42.8,15.5-65.7,14.7c-28-0.9-51.8-12.3-70.7-33.2
					c-13.4-14.8-23.4-31.5-27-51.2c-2.5-13.3-3.2-26.9-3.8-40.5c-1-23.4-5.8-45.9-13.2-67.9c-0.6-1.7-0.8-3.5-1.2-5.1
					c7.5-1.2,14.9-2.1,22.2-3.6c9.1-1.8,10.4-3.6,10.3-13c-0.1-1.7,0.2-3.4,0.8-5c2,4.4,3.8,8.9,6.2,13.2c0.7,1.3,2.7,2.6,4,2.6
					c10.3-0.6,20.7-1.7,31-2.4c5-0.4,6.2-3.3,6.1-7.8c-0.2-8.5,0.1-17.1,1.2-25.6c1.7,6.4,3.2,12.8,5,19.2c0.6,1.7,1.3,3.4,2.1,5
					c2.6,6,6.5,9.8,13.8,8.8c7.5-1,15.2-1.2,22.7-2.3c5.6-0.8,7.8-3.9,7.9-9.6C175.6,174.8,175.5,169.6,175.5,163.2z M154.3,316.7
					v0.4c-6.6,0-13.2-0.1-19.8,0c-7.9,0.2-15.9,0.5-23.8,1c-6.5,0.4-8.6,4.7-5.3,10.3c1.2,2.2,2.6,4.3,4,6.3
					c8,10.9,18.4,17,32.3,15.3c13.4-1.7,19.7-11.9,24.9-22.5c3.3-6.9-0.3-11.2-7.8-10.8C157.3,316.8,155.8,316.7,154.3,316.7z
					 M167.1,222.8c0,5.1-0.3,9.4,0.1,13.6c0.6,7.1,4.7,11.7,11,12.9c4.3,0.8,10.2-2.3,12.7-6.9c3.9-6.9,1.1-21.2-5.4-25.9
					c-1.5-1.1-3.8-2.1-5.4-1.7c-4.3,1-8,0.3-11.9-1.4c-1.2-0.5-4.3,0.5-4.8,1.6c-0.7,1.6-0.2,4,0.6,5.7
					C164.5,221.8,166.4,222.3,167.1,222.8L167.1,222.8z M97.1,236.8c0-1.6-0.2-3.2-0.4-4.9c-1.2-7-6.3-12.4-11.6-12.6
					c-3.9-0.1-7.8-0.5-11.6-0.3c-1.8,0.1-3.5,1.4-5.3,2.2c0.9,1.9,1.3,4.8,2.8,5.5c3.2,1.5,3.2,3.7,2.9,6.5
					c-0.3,2.5-0.4,4.9-0.3,7.4c0.5,6.9,6.5,12.2,13.4,11.7C93.6,252.1,97.2,246.8,97.1,236.8L97.1,236.8z M123.5,300.1
					c1.9-0.5,5.3-0.5,7.4-2.2c1.7-1.4,1.7-4.7,2.5-7.2c-2.2-0.2-4.4-0.7-6.6-0.7c-3,0-6,0.4-9,0.3c-2.5-0.1-5.5-2.1-6.6,1.9
					c-1,3.6,0.7,6.2,4.3,7.1C117.7,299.9,120,299.9,123.5,300.1L123.5,300.1z"/>
				<path class="st1" d="M296.3,334c1-0.4,2-0.8,3-1c5.9-0.8,11.8-1.6,17.7-2.2c1.2-0.1,2.5,0.7,3.7,1.1c-0.9,0.8-1.6,2.1-2.6,2.4
					c-7.1,2.1-14.3,3.4-21.5,1.2L296.3,334z"/>
				<path class="st2" d="M154.3,316.7c1.5,0,3,0.1,4.5,0c7.5-0.4,11.1,4,7.8,10.8c-5.2,10.6-11.4,20.9-24.9,22.5
					c-13.9,1.8-24.3-4.4-32.3-15.3c-1.4-2-2.8-4.1-4-6.3c-3.3-5.6-1.2-9.9,5.3-10.3c7.9-0.5,15.9-0.8,23.8-1c6.6-0.2,13.2,0,19.8,0
					L154.3,316.7z M117.3,328l-0.2,1.8c5.5,7,12.5,11.5,21.7,11c9.5-0.5,13.5-8.1,19.5-15.5L117.3,328z"/>
				<path class="st2" d="M167.1,222.8c-0.7-0.5-2.6-1-3.1-2.1c-0.8-1.7-1.2-4.2-0.6-5.7c0.5-1.1,3.6-2.1,4.8-1.6
					c3.9,1.7,7.6,2.4,11.9,1.4c1.6-0.4,3.9,0.6,5.4,1.7c6.4,4.7,9.2,19,5.4,25.9c-2.5,4.6-8.4,7.7-12.7,6.9
					c-6.2-1.2-10.4-5.8-11-12.9C166.8,232.2,167.1,227.9,167.1,222.8z"/>
				<path class="st2" d="M97.1,236.8c0.2,9.9-3.5,15.2-10,15.7c-6.9,0.5-13-4.8-13.4-11.7c-0.1-2.5,0-5,0.3-7.4
					c0.3-2.8,0.3-4.9-2.9-6.5c-1.5-0.7-1.9-3.6-2.8-5.5c1.8-0.8,3.5-2.1,5.3-2.2c3.8-0.2,7.7,0.2,11.6,0.3
					c5.2,0.1,10.4,5.6,11.6,12.6C96.9,233.6,97,235.2,97.1,236.8z"/>
				<path class="st2" d="M123.4,300.1c-3.4-0.3-5.8-0.2-8-0.8c-3.6-0.9-5.3-3.5-4.3-7.1c1.1-3.9,4.1-1.9,6.6-1.9c3,0.1,6-0.4,9-0.3
					c2.2,0,4.4,0.5,6.6,0.7c-0.8,2.5-0.9,5.8-2.5,7.2C128.8,299.6,125.3,299.6,123.4,300.1z"/>
				<path class="st1" d="M117.3,328l41-2.7c-6,7.3-10.1,15-19.5,15.5c-9.2,0.4-16.2-4-21.7-11L117.3,328z"/>
			</g>
		</g>
	</g>
</g>
</svg>
