<?xml version="1.0" encoding="utf-8"?>
<!-- Generator: Adobe Illustrator 25.4.1, SVG Export Plug-In . SVG Version: 6.00 Build 0)  -->
<svg version="1.1" id="レイヤー_1" xmlns="http://www.w3.org/2000/svg" xmlns:xlink="http://www.w3.org/1999/xlink" x="0px"
	 y="0px" viewBox="0 0 654 735" style="enable-background:new 0 0 654 735;" xml:space="preserve">
<style type="text/css">
	.st0{clip-path:url(#SVGID_00000175292229817991337850000007896659741017838729_);}
	.st1{fill:#F7F8F8;}
	.st2{fill:#D94423;}
</style>
<g id="レイヤー_2_00000168808473932813945640000005282716276821231009_">
	<g id="レイヤー_1-2">
		<g>
			<defs>
				<rect id="SVGID_1_" width="654" height="735"/>
			</defs>
			<clipPath id="SVGID_00000028288117292807442320000015312501210179620756_">
				<use xlink:href="#SVGID_1_"  style="overflow:visible;"/>
			</clipPath>
			<g style="clip-path:url(#SVGID_00000028288117292807442320000015312501210179620756_);">
				<path class="st1" d="M0,775l652-22c-4.1-39.1-17.1-107.2-64-175c-21.8-31.4-70-101.1-158-126c-46.4-13.1-84.9-8.5-122-4
					c-37.5,4.5-98.8,11.9-161,54C62.2,559.4,31.6,643.6,20,677C9,708.6,2.3,741.6,0,775z"/>
				<path class="st2" d="M657,745.9c0.3,3.5-1.1,6.2-4.6,7.2s-6.2-0.9-7.5-4c-1.6-3.8-3.4-7.6-4-11.5c-4.6-30.9-14.8-60.3-24.2-89.9
					c-9.2-28.9-22.6-55.4-41.3-79.2c-4.3-5.4-9.3-10.1-15-13.9c-24.8-16.9-49.8-33.3-74.7-49.9c-1.5-1-3-1.8-5.4-3.3
					c-0.4,5.1-0.9,9.4-1.1,13.7c-1.5,31.6-3.7,63.2-4.3,94.8c-0.6,30.5,0.2,61,0.7,91.4c0.2,11.6,1.5,23.2,2.3,34.7
					c0.1,1.1,0.1,2.3,0.1,3.4c-0.2,4.8-2.6,8-6.4,7.7c-4.3-0.3-6.2-3.1-6.5-7.2c-1-15.2-2.5-30.3-2.9-45.5
					c-0.6-28.7-1.1-57.4-0.5-86c0.6-26.5,2.7-53,4.2-79.5c0.7-12.1,1.4-24.2,2-36.3c0-1.5-0.6-2.8-1.6-3.8
					c-13.2-10-26.4-19.8-39.7-29.7c-0.2-0.2-0.6-0.1-1.7-0.1c-2,12.6-4.6,25.2-5.9,38c-3.2,31.1-5.9,62.3-8.5,93.4
					c-0.8,9.1-0.9,18.3-0.8,27.5c0,23.3,0,46.5,0.5,69.8c0.3,12.2,1.6,24.5,3,36.7c0.6,5.1,2.6,10.1,4,15.2c1.5,5.4,0.1,9-3.8,10
					c-4.3,1.2-6.9-1.2-8.9-6.8c-3.9-10.9-5.1-22.2-5.6-33.7c-0.6-12.9-2.3-25.8-2.2-38.7c0.2-30.6,0.6-61.3,2-91.9
					c1.1-23.9,4-47.6,6-71.5c0.4-2.8,0.4-5.7,0-8.5c-0.8,2.6-1.8,5.2-3,7.7c-8.8,17-16.6,34.6-26.8,50.7
					c-19.5,30.9-39.8,61.2-60.9,91.1c-22.9,32.6-48.8,63-77.4,90.8c-0.7,0.7-1.5,1.3-2.3,1.9c-3.3,2.2-6.6,2.3-9.2-0.8
					s-1.8-6.3,0.9-9.2c13.5-14.3,27.4-28.3,40.3-43.1c11.8-13.5,22.6-28,33.2-41.3c-41.4-41.4-70.6-90-96.9-141.1
					c-0.4,1.5-0.7,3.1-0.9,4.6c-1.5,29.8-3.9,59.5-4.2,89.3c-0.3,25.7,1.7,51.4,3,77.1c1,20.8,2.2,41.5,4,62.2
					c0.9,10.9,3.2,21.7,4.8,32.5c0.7,4.7-1.6,8.5-5.5,9c-3.6,0.5-7-2.3-7.5-6.8c-2.4-21.1-5.5-42.2-6.9-63.4
					c-2.3-34.8-3.9-69.7-5-104.5c-1-33.9,1.4-67.8,4.9-101.5c0.4-3.7,1.2-7.4,1.9-12.1c-4.7,1.2-9,2-13,3.3
					c-6.5,2.1-13.5,3.6-19.2,7.2c-6.5,4-4.7,12.4-5.8,18.8c-4.2,24.5-8.8,49-11.1,73.7c-2.4,25.4-2.6,51-3.4,76.6
					c-0.4,14.1-0.9,28.2,0.3,42.2c1.8,19.5,5.2,38.9,7.8,58.3c0.8,6-3.2,10.4-7.9,8.2c-2.2-1-4.3-4.2-4.7-6.7
					c-2.6-14.8-4.6-29.7-7-44.6c-4.2-27-1.6-54-1-81c0.9-42.9,4.1-85.7,13.6-127.7c0.1-1,0.1-1.9,0-2.9c-5.9,4.3-11.6,7.5-16.1,11.9
					c-27.4,26.4-50.7,55.8-69,89.6c-21.5,39.8-35,82-43.9,126C9,751.8,8.1,759.4,7,767c-0.8,5.2-3.3,8.1-7,7.8
					c-4.1-0.2-6.9-3.6-5.9-9c3.4-18.6,6.8-37.3,11-55.7c10.9-48,31.5-91.8,58.7-132.6c14.5-21.7,31.8-41.4,51.2-58.8
					c7.8-7,17.6-11.5,26.5-17.3c1-0.8,1.7-1.8,2.2-2.9c1.9-4,4.5-7,8.9-8.5c6.3-2.2,12.5-5,18.9-7c3.2-1,4.1-2.6,3.7-5.7
					c-1.8-17.1-4.1-34.1-5.2-51.3c-0.4-7.1-4.5-10.2-9.4-13.2c-10.9-6.7-18.4-16.6-26.2-26.3c-2.4-3-4.1-3.6-8.1-2.2
					c-15,5.4-30.2,10.9-46.6,10.5c-7.1-0.2-9.1-3-7.8-10.1c0.3-1.4,0.9-2.8,1-4.3c0.3-3.2-0.8-5.3-4.5-4.2c-4.4,1.4-8,0.6-10.9-3.2
					c-3.1-4.1-3.2-8.2-0.6-12.8c11.2-20.1,17.9-42,21.1-64.6c2.4-17.2,2-34.7-1.1-51.9c-0.2-0.9-0.8-1.8-1.5-2.4
					c-9.2-8.9-12.8-20.2-14.5-32.5c-5.1-38.3,8-72.2,27.7-103.6c6.9-11,14.6-21.5,21.6-32.6c12.5-19.9,32-32.6,52.2-43.7
					c13.9-7.6,28.8-13.3,43.2-19.9c13-6,27-8,41.1-8.7c31.2-1.6,62.2,0.7,92.5,9.2c25.2,7,45.8,21.9,65.1,39
					c16.5,14.6,28.6,32.8,40.7,51c15.2,22.6,26.9,47.3,34.9,73.3c4.6,15.2,5.1,30.9,6.2,46.6c2,28.4,5.6,56.7,10.8,84.7
					c5.7,31.1,11.6,62,20.8,92.3c6.3,21,14,41.6,19.8,62.7c7.8,28.2,18.6,55.1,31.5,81.2c2,3.9,5.3,7.3,8.4,10.5
					c11.3,12.1,21,25.7,28.7,40.3c22.9,42.8,36,89,46,136.1c1,4.8,2.5,9.5,3.7,14.2C656.5,743,656.8,744.4,657,745.9z M420.3,292.2
					c3.9-9.7,5-19.6-0.1-29.3c-0.9-1.8-3.7-4.1-5.1-3.7c-3,0.8-6.1,2.6-5.2,6.9c0.4,1.7,0.7,3.5,0.9,5.3c0.7,9.2,1.3,18.4,2,28
					C416.6,298.5,418.9,295.6,420.3,292.2z M407,451c0.3-1.5,0.5-3,0.5-4.5c-1.6,1.3-2.9,3.1-3.6,5c-7.1,15.1-13.2,30.7-21.5,45.1
					c-12.9,22.3-27,44-41.1,65.5c-7.7,11.7-16.3,22.9-25,34c-6.2,8-13.3,15.3-20.1,22.8c-1.7,1.9-2.1,3.5-0.3,5.4
					c3.2,3.5,6.3,7,9.8,11c6-8.4,11.4-15.5,16.4-23c14.5-21.9,29.1-43.8,43.1-66c6.2-9.8,11.6-20,16.3-30.6
					c6.8-15.3,12.7-31.1,18.9-46.7C402.8,463,404.9,457,407,451z M397.6,442.6c2.2-5.4-0.3-8.4-3.9-12.2
					c-26.1,58-57.5,112.1-97.4,162l5.9,6c5-6.1,9.9-11.1,13.8-16.9c16.4-24,33-47.8,48.6-72.3C378,488.3,388,465.5,397.6,442.6
					L397.6,442.6z M385.5,425.5c0.5-1.6-0.6-3.7-1-5.6l-1.4,0.6c-7.2,13.4-13.7,27.2-21.8,40c-21.1,33.4-43,66.4-64.6,99.5
					c-1.4,2.2-1.7,3.5,0.2,5.5c1.4,1.4,2.1,3.3,3.5,5.7c4.5-5.3,7.8-8.7,10.4-12.6c7.8-11.7,15.4-23.5,23-35.3
					c17.7-27.4,33.3-56.3,46.5-86.1C382,433.2,384.1,429.5,385.5,425.5L385.5,425.5z M374.1,416.3c0.6-1.2,0.1-3.1,0.2-4.7
					c-1.1,0.9-2.7,1.5-3.4,2.7c-18,34.3-38.4,67.2-59.8,99.5c-5.1,7.7-10.5,15.2-16,23c1.1,1,2.2,2,3.4,3.2c1-1.2,1.9-2.1,2.6-3.2
					c7.3-10.8,14.7-21.6,21.9-32.5C341.6,476,358.6,446.6,374.1,416.3L374.1,416.3z M365,403.2c1.1-6.5-0.8-13.4-1.4-20.5
					c-1.2,0.2-2.1,0.4-3,0.6c-9.6,2.4-12.8-0.5-11.9-10.4c0.1-0.6,0.1-1.3,0.3-1.9c1.8-9.8,4.2-19.5,5.1-29.4
					c2.3-23.2,0.8-46.4-3.4-69.4c-1.5-8.2-3.7-16.4-5.2-23.1c-8.3,0-15.2,0.3-22.2-0.1c-4-0.2-7.9-1.5-11.9-2.1
					c-1.5-0.2-3.3-0.7-4.4-0.1c-9,5.3-14.5-1.2-14.9-8.8c-0.5-10-1.7-19.9-3.5-29.7c-4.5-23.4-13.3-45.4-25.1-66.1
					c-6.5-11.4-13.6-22.3-24.4-30.4c-4.9-3.6-10-5.4-15.5-2.8c-8,3.7-15.7,7.8-23.2,12.4c-3.9,2.4-6.7,2.8-10-0.4
					c-2.7-2.8-5.6-5.5-8.7-7.9c-5.2-3.8-10.3-3.8-14.6,1c-5.9,6.5-11.9,13.2-16.2,20.8c-15.3,27.1-24.2,56.3-28.3,87.1
					c-1.1,8-0.9,17.5-12.5,18.8c-0.3,4.5-0.6,8.7-0.9,13c-0.6,10-2.5,20-1.5,29.8c3.8,36.9,18,69.8,41.5,98.4
					c11.8,14.4,25.7,26.2,44.6,30.5c14.8,3.4,29.7,4.5,44.8,2.1c15.9-2.6,31.9-5,46.5-12.5c5.1-2.6,9.9-5.7,15-8.4
					c3.6-2,8.2-1,10.1,1.9s1,7.3-2.3,10c-0.7,0.7-1.5,1.3-2.4,1.7c-9.6,4.5-18.9,10-28.9,13.3c-11.5,3.9-23.7,5.9-35.6,8.8
					c-2.3,9.9-2.5,10,3.5,18c11.4,15.1,22.9,30.2,34.8,45c6,7.5,13,14.1,20,21.6c2.8-3.9,5.3-7,7.3-10.3
					c17-28.1,33.9-56.3,50.8-84.5C360.1,414.2,364,408.9,365,403.2L365,403.2z M291.4,585l5.6-7.3c-31.8-32.6-55-70.5-77-111.4
					c-1,3.1-2.7,5.6-2.1,7.1c3.5,7.9,6.8,16,11.5,23.2c16,24.4,32.4,48.6,48.9,72.7C282,574.7,286.7,579.5,291.4,585z M292.2,610.2
					c1.2-1.2,2.4-2.5,3.2-3.4c-30.8-39.9-60.9-79.3-83.3-124.2l-2,0.2c0.2,2.5-0.3,5.2,0.8,7.3c6.1,12.3,12.4,24.4,18.8,36.5
					c15.5,29.5,33.9,57.4,54.8,83.3c1.1,1.5,2.1,3.1,3,4.7C289.9,612.5,291.1,611.4,292.2,610.2L292.2,610.2z M289.3,529.1
					c5.2-6.2,4.9-6,0.2-11.4c-12.2-14.2-24.1-28.7-36.2-43c-2.1-2.5-4.2-5-6.2-7.6l-1.6,1.2C259,489.2,272.2,510.3,289.3,529.1
					L289.3,529.1z M285.5,549.6c3.9,4.4,4.5,4.2,8.4-0.8c-25.8-27.7-46.9-58.4-65-91.4l-2.2,1.2c1,2.7,2.1,5.4,3.4,8
					c5.1,9.3,10.4,18.5,15.7,27.7C257.2,514.1,270.5,532.6,285.5,549.6L285.5,549.6z"/>
				<path class="st1" d="M420.2,262.9c5.1,9.6,4,19.6,0.1,29.3c-1.4,3.4-3.7,6.3-7.6,7.2c-0.7-9.6-1.3-18.8-2-28
					c-0.2-1.8-0.5-3.5-0.9-5.3c-0.9-4.3,2.2-6.2,5.2-6.9C416.5,258.8,419.3,261.1,420.2,262.9z"/>
				<path class="st1" d="M407.5,446.5c0,1.5-0.2,3-0.5,4.5c-2.1,6-4.2,12-6.6,17.9c-6.2,15.6-12.1,31.4-18.9,46.7
					c-4.7,10.6-10.1,20.8-16.3,30.6c-14,22.2-28.6,44.1-43.1,66c-5,7.5-10.4,14.6-16.4,23c-3.5-3.9-6.6-7.4-9.8-11
					c-1.8-2-1.4-3.5,0.3-5.4c6.8-7.5,13.8-14.8,20.1-22.7c8.7-11,17.3-22.2,25-34c14.1-21.5,28.3-43.2,41.1-65.5
					c8.3-14.4,14.4-30,21.5-45.1C404.7,449.5,405.9,447.8,407.5,446.5z"/>
				<path class="st1" d="M393.7,430.4c3.6,3.8,6.1,6.8,3.9,12.2c-9.5,23-19.6,45.7-33,66.6c-15.7,24.4-32.2,48.3-48.6,72.3
					c-3.9,5.7-8.8,10.8-13.8,16.9l-5.9-6C336.1,542.5,367.6,488.3,393.7,430.4z"/>
				<path class="st1" d="M384.5,419.9c0.4,1.9,1.5,4,1,5.6c-1.3,4-3.4,7.7-5.1,11.6c-13.2,29.9-28.7,58.7-46.5,86.2
					c-7.6,11.8-15.2,23.6-23,35.3c-2.6,3.9-6,7.3-10.4,12.6c-1.4-2.4-2.1-4.3-3.5-5.7c-1.9-1.9-1.6-3.3-0.2-5.5
					c21.6-33.1,43.5-66,64.6-99.5c8.1-12.8,14.6-26.7,21.8-40L384.5,419.9z"/>
				<path class="st1" d="M374.3,411.7c0,1.6,0.5,3.4-0.2,4.7c-15.5,30.2-32.5,59.6-51,88.1c-7.1,10.9-14.5,21.7-21.9,32.5
					c-0.7,1-1.6,2-2.6,3.2c-1.3-1.2-2.3-2.2-3.4-3.2c5.4-7.8,10.8-15.3,16-23c21.4-32.3,41.8-65.2,59.8-99.5
					C371.5,413.2,373.1,412.6,374.3,411.7z"/>
				<path class="st1" d="M363.6,382.7c0.6,7,2.4,14,1.4,20.5c-0.9,5.7-4.8,11-7.9,16.2c-16.8,28.2-33.7,56.4-50.8,84.5
					c-2,3.3-4.5,6.4-7.3,10.3c-7-7.5-14-14.2-20-21.6c-11.9-14.7-23.3-29.8-34.8-45c-6-8-5.8-8.1-3.5-18c12-2.9,24.1-4.9,35.6-8.8
					c10-3.4,19.3-8.8,28.9-13.3c0.9-0.5,1.7-1.1,2.4-1.7c3.3-2.7,4.3-7,2.3-10s-6.5-3.9-10.1-1.9c-5,2.7-9.9,5.8-15,8.4
					c-14.6,7.5-30.6,9.8-46.5,12.5c-15.1,2.5-30,1.3-44.8-2.1c-18.9-4.3-32.7-16.1-44.6-30.5c-23.5-28.7-37.7-61.6-41.5-98.4
					c-1-9.8,0.9-19.9,1.5-29.8c0.2-4.2,0.6-8.4,0.9-13c11.6-1.3,11.4-10.8,12.5-18.8c4.1-30.8,13.1-60.1,28.4-87.1
					c4.3-7.6,10.3-14.3,16.2-20.8c4.3-4.8,9.4-4.8,14.6-1c3.1,2.4,6,5.1,8.7,7.9c3.3,3.2,6.1,2.8,10,0.4c7.5-4.6,15.3-8.7,23.2-12.4
					c5.6-2.6,10.7-0.9,15.5,2.8c10.8,8.1,17.9,19,24.4,30.4c11.9,20.7,20.6,42.7,25.1,66.1c1.9,9.8,3,19.8,3.5,29.7
					c0.4,7.6,5.9,14.1,14.9,8.8c1.1-0.6,3-0.2,4.4,0.1c4,0.7,7.9,1.9,11.9,2.1c6.9,0.4,13.9,0.1,22.2,0.1c1.5,6.8,3.7,14.9,5.2,23.1
					c4.2,23,5.7,46.1,3.4,69.4c-1,9.9-3.4,19.6-5.1,29.4c-0.1,0.6-0.2,1.3-0.3,1.9c-1,9.9,2.3,12.7,11.9,10.4
					C361.4,383.1,362.4,383,363.6,382.7z M269.4,248.3c1.5-0.6,1.8-3.9,2.7-5.9c-1.9-0.8-3.7-1.8-5.7-2.2c-1.3-0.2-2.9,0.5-4.2,1.1
					c-6.5,2.5-13,3-19.5,0.1c-1.2-0.6-2.5-0.9-3.8-0.9c-1.6,0.2-3.9,0.6-4.4,1.7c-0.7,1.5-0.6,4.1,0.4,5.3c1.6,1.8,3.7,3.2,6,3.8
					c3.4,0.9,7.1,1,10.6,1.4l0.4,0.8C257.7,251.9,263.7,250.6,269.4,248.3z M249.7,175.2c0.3-6.2-5.2-10.8-12.9-11.1
					c-6-0.2-8.7,1.9-9,7c-0.3,6,5.6,10.9,13.5,11.2C247.1,182.5,249.5,180.4,249.7,175.2z M225.9,353.8c1.3-0.6,2.7-3.6,2.3-5.1
					s-3.1-2.9-4.8-2.8c-3.9,0.4-7.7,1.2-11.5,2.3c-9.8,2.7-19.6,3.8-29.3-0.4c-1.2-0.5-2.6-1.2-3.8-0.9c-2.5,0.5-5.9,1-7,2.7
					c-1.8,2.8,0.5,5.4,3.4,6.4c6.4,2.2,12.9,4,19.4,6c0.1-0.4,0.2-0.8,0.4-1.2c4.4-0.3,8.9-0.1,13.2-1.1
					C214.3,358.2,220.2,356.3,225.9,353.8z M196.8,316.6c2.8-1.1,4.6-3.4,3.6-6.6c-1.1-3.6-4.1-2.3-6.6-2.3c-3.4,0.1-6.9,0-10.4,0.2
					c-1.8,0.2-3.6,0.6-5.4,1c0.5,2.3,0.2,5.5,1.6,6.6c2.4,1.9,5.8,2.4,8.4,3.4C191.5,318,194.3,317.6,196.8,316.6z M164.8,182.8
					c1.9-0.9,2.8-3.9,4.1-5.9c-0.8-6.5-3.4-9.3-9.3-9.4c-5.2-0.2-10.1,2.1-13.2,6.2c-1.7,2.7-2.3,5.9-1.5,9c0.6,2,4.5,4.4,6.7,4.2
					C156.2,186.3,160.7,184.9,164.8,182.8L164.8,182.8z M163.6,251.3c1.5-0.8,1.4-4.7,2-7.2c-2.1-0.3-4.6-1.4-6.2-0.6
					c-8.6,4.3-16.8,2.8-25.1-0.6c-2.8-1.1-6-2.4-7.6,1.3c-1.6,3.5,0.6,6.2,3.8,7.4c5.6,2,11.4,3.5,17.7,5.3
					C153.5,255.1,158.9,253.8,163.6,251.3L163.6,251.3z"/>
				<path class="st1" d="M297,577.7l-5.6,7.3c-4.7-5.6-9.4-10.3-13.1-15.7c-16.5-24.1-32.9-48.2-48.9-72.7
					c-4.7-7.2-8-15.3-11.5-23.2c-0.6-1.5,1.1-3.9,2.1-7.1C241.9,507.2,265.2,545.1,297,577.7z"/>
				<path class="st1" d="M295.4,606.9c-0.8,0.9-2,2.2-3.2,3.4s-2.4,2.2-4.7,4.5c-0.9-1.6-1.9-3.2-3-4.7
					c-21-25.9-39.3-53.8-54.8-83.3c-6.3-12.1-12.7-24.3-18.8-36.5c-1-2-0.5-4.8-0.8-7.3l2-0.2C234.5,527.5,264.6,567,295.4,606.9z"
					/>
				<path class="st1" d="M289.5,517.8c4.7,5.4,5,5.1-0.2,11.4c-17.1-18.9-30.3-39.9-43.8-60.7l1.6-1.2c2.1,2.5,4.1,5.1,6.2,7.6
					C265.4,489.1,277.3,503.6,289.5,517.8z"/>
				<path class="st1" d="M294,548.8c-4,5.1-4.6,5.2-8.4,0.8c-15-17.1-28.3-35.6-39.6-55.3c-5.3-9.2-10.5-18.4-15.7-27.7
					c-1.3-2.6-2.4-5.3-3.4-8l2.2-1.2C247.1,490.4,268.2,521.1,294,548.8z"/>
				<path class="st2" d="M272.1,242.4c-0.9,2-1.3,5.3-2.7,5.9c-5.7,2.2-11.7,3.6-17.5,5.2l-0.4-0.8c-3.5-0.4-7.2-0.5-10.6-1.4
					c-2.3-0.7-4.4-2-6-3.8c-0.9-1.1-1-3.8-0.4-5.3c0.5-1,2.8-1.5,4.4-1.7c1.3,0,2.6,0.3,3.8,0.9c6.6,2.8,13,2.4,19.5-0.1
					c1.4-0.5,2.9-1.3,4.2-1.1C268.4,240.6,270.2,241.7,272.1,242.4z"/>
				<path class="st2" d="M236.8,164.1c7.7,0.3,13.1,4.9,12.9,11.1c-0.2,5.3-2.6,7.3-8.3,7.1c-7.9-0.3-13.8-5.2-13.5-11.2
					C228.1,166,230.8,163.9,236.8,164.1z"/>
				<path class="st2" d="M228.2,348.7c0.4,1.5-1,4.5-2.3,5.1c-5.7,2.4-11.5,4.3-17.5,5.8c-4.2,1-8.8,0.8-13.2,1.1
					c-0.1,0.4-0.2,0.8-0.4,1.2c-6.5-2-13-3.8-19.4-6c-2.9-1-5.2-3.6-3.4-6.4c1.1-1.7,4.5-2.1,7-2.7c1.1-0.2,2.6,0.4,3.8,0.9
					c9.7,4.2,19.5,3.1,29.3,0.4c3.7-1.2,7.6-1.9,11.4-2.3C225.1,345.8,227.9,347.4,228.2,348.7z"/>
				<path class="st2" d="M200.4,310c1,3.2-0.8,5.5-3.6,6.6c-2.5,1-5.3,1.4-8.6,2.3c-2.6-1-6.1-1.5-8.4-3.4c-1.4-1.1-1.1-4.3-1.6-6.6
					c1.8-0.4,3.6-0.8,5.4-1c3.4-0.2,6.9-0.1,10.4-0.2C196.3,307.6,199.3,306.4,200.4,310z"/>
				<path class="st2" d="M169,176.9c-1.3,2-2.2,5-4.1,5.9c-4.1,2.1-8.6,3.4-13.2,4c-2.2,0.2-6.1-2.2-6.7-4.2c-0.8-3.1-0.3-6.3,1.5-9
					c3.1-4.1,8.1-6.4,13.2-6.2C165.6,167.6,168.2,170.4,169,176.9z"/>
				<path class="st2" d="M165.7,244.2c-0.6,2.5-0.5,6.4-2,7.2c-4.8,2.5-10.1,3.8-15.4,5.6c-6.3-1.9-12.1-3.4-17.7-5.3
					c-3.2-1.1-5.3-3.8-3.8-7.4c1.6-3.7,4.8-2.4,7.6-1.3c8.3,3.3,16.5,4.8,25.1,0.6C161,242.8,163.6,243.9,165.7,244.2z"/>
			</g>
		</g>
	</g>
</g>
</svg>
