<svg xmlns="http://www.w3.org/2000/svg" viewBox="0 0 335 335"><defs><style>.cls-1{fill:#f7f8f8;stroke:#d94423;stroke-miterlimit:10;stroke-width:5px;}.cls-2{fill:#d94423;}</style></defs><g id="レイヤー_2" data-name="レイヤー 2"><g id="レイヤー_1-2" data-name="レイヤー 1"><circle class="cls-1" cx="167.5" cy="167.5" r="165"/><path class="cls-2" d="M258.65,302.94c.43,1.73.1,2.45-.17,2.81-.82,1.07-2.88,1.21-5.2.3-3.75-2.44-8-4.46-11.25-7.49-6.09-5.6-11.79-11.65-17.33-17.81-1.89-2.11-3.5-2.87-6.29-2.46A134.29,134.29,0,0,1,201.57,280a167.29,167.29,0,0,1-19.51-.86,5.33,5.33,0,0,1-4.89-5.87c.37-2.53,2.15-3.42,6.39-2.67,9.12,1.63,18.27,1.55,27.44.81a59.16,59.16,0,0,0,6.34-1.27c-1.15-2.53-2.08-4.41-2.88-6.35-1.73-4.24-3.55-8.45-5-12.78-1.16-3.42-.51-5.1,1.53-5.86,2.53-.93,4.62.32,6,3.64s2.59,6.94,4.14,10.3c1.44,3.13,3.23,6.11,4.91,9.24a105.33,105.33,0,0,0,22.16-10.35c1.52-1,2.69-2.47,4.6-4.27-2.57-1.18-4.25-2.06-6-2.74-4.78-1.84-9.58-3.57-14.37-5.38l-27.21-10.28c-2.11-.79-3.21-2.06-2.38-4.46s2.19-3.43,4.86-2.59c3.19,1,6.27,2.34,9.41,3.5,4.6,1.7,9.21,3.37,14.31,5.24,1.85-4.8,3.52-9.16,5.34-13.88-2.14-.88-3.72-1.58-5.33-2.19-6.43-2.42-12.88-4.8-19.31-7.23-3.47-1.31-6.9-2.68-10.36-4-2.24-.86-2.86-2.36-2.06-4.62s2.17-3.17,4.46-2.56c1.36.37,2.7.83,4,1.32q13.13,4.92,26.25,9.85c1.59.59,3.23,1.05,5.08,1.65,1.11-2.72,2-5,3-7.24,1.26-2.7,2.9-3.31,5.52-2.29,2.36.93,3,2.24,2.09,5.09-.75,2.46-1.67,4.87-2.56,7.46,2,.85,3.38,1.55,4.85,2.1,7.92,3,15.86,5.9,23.79,8.87,2.14.81,4.24,1.72,6.38,2.55s2.3,2.51,1.81,4.36c-.73,2.79-2.43,3.5-5.77,2.28-9.27-3.41-18.5-6.91-27.76-10.34-1.92-.72-3.9-1.28-6.37-2.08l-5,13.8c2.57,1.07,4.49,1.91,6.44,2.66,3.45,1.33,7,2.42,10.37,4,6,2.74,6.79,7.38,2.19,12.18a20.11,20.11,0,0,1-3.58,3.14c-4.91,3.12-9.85,6.19-14.87,9.12-2.69,1.57-5.56,2.82-8.82,4.44,1.33,1.75,2.3,3.18,3.42,4.46a80.35,80.35,0,0,0,6.5,6.67c4.64,4.25,6.26,4.17,12.88,9.64A13.37,13.37,0,0,1,258.65,302.94Z"/><path class="cls-2" d="M104.12,89.3c-2.47-1-4.37-1.9-6.31-2.64Q84,81.43,70.09,76.27c-2.12-.79-3.89-1.7-3.6-4.44.35-3.26,2.16-4.71,5.41-4.07a22.08,22.08,0,0,1,3.5,1.16c8.92,3.32,17.82,6.68,26.74,10,1.61.6,3.27,1.09,5.35,1.77,1.57-4,3-7.77,4.46-11.53,2.25-5.94,4.37-11.92,6.71-17.82,1.15-2.9,3.07-3.58,5.91-2.52s3.37,2.55,2.14,5.94c-2.39,6.64-4.94,13.21-7.39,19.82-1.09,3-2.1,5.92-3.27,9.22,1.7.77,3.07,1.48,4.5,2,9.73,3.66,19.49,7.23,29.2,10.93,3.9,1.49,4.6,2.8,3.61,5.75-1.12,3.33-2.57,4-6.65,2.51-7.61-2.77-15.16-5.71-22.76-8.55-3.44-1.29-6.92-2.51-10.94-4-.86,1.92-1.71,3.59-2.37,5.32C106.4,109,102.23,120.26,98,131.47c-1.38,3.63-2.47,4.34-5.25,3.82-3.23-.6-4.49-2.51-3.4-5.69,1.6-4.67,3.4-9.27,5.13-13.89,2.6-6.93,5.24-13.85,7.82-20.79C102.89,93.29,103.37,91.61,104.12,89.3Z"/><path class="cls-2" d="M185.62,219.53c0,4.41-2.68,6.2-6.42,4.82q-23.3-8.64-46.53-17.4L103,195.77c-1.63-.61-3.44-1-3.73-3.22-.46-3.43,2-5.73,5.42-5a18.82,18.82,0,0,1,3,1q36.63,13.74,73.23,27.5a10.16,10.16,0,0,1,2.89,1.25A10.93,10.93,0,0,1,185.62,219.53Z"/><path class="cls-2" d="M194.77,160.52c-.5-.17-1.85-.57-3.16-1.07q-27.93-10.48-55.84-21a25.85,25.85,0,0,1-3-1.17c-2.59-1.35-2.89-2.43-2-5.14.84-2.48,2.49-3.43,4.88-2.66,3.35,1.08,6.61,2.41,9.91,3.64l48.93,18.36c1.15.43,2.33.81,3.46,1.3,2.08.91,2.92,2.44,2.16,4.69S198.36,161.32,194.77,160.52Z"/></g></g></svg>