<svg xmlns="http://www.w3.org/2000/svg" viewBox="0 0 562.77 565.46"><defs><style>.cls-1{fill:#d94423;}</style></defs><g id="レイヤー_2" data-name="レイヤー 2"><g id="レイヤー_1-2" data-name="レイヤー 1"><path class="cls-1" d="M214.34,29.35c-1.85,2.79-4.21,5.61-5,5.79a1.19,1.19,0,0,1-1.39-.88,1.1,1.1,0,0,1,.39-1c6.58-6.09,8.58-13.9,8.35-14.95-.11-.5-.56-.75-1.19-.61-2.31.51-5.86,1.39-8.36,2h0A1,1,0,0,1,205.9,19a.94.94,0,0,1,.71-1.17l4.77-1.15-1.24-5.54a1.15,1.15,0,0,1,2.23-.5l1.22,5.5,2-.44c1.76-.4,3,.22,3.27,1.6.43,1.93-1.43,6.45-2.69,8.89.63.07,6.36,1.66,6.7,3.22a1.2,1.2,0,0,1-.82,1.41.94.94,0,0,1-.85-.25A16.25,16.25,0,0,0,216.11,28L220,44.67a1,1,0,0,1-.89,1.16,1,1,0,0,1-1.34-.67Zm18.92,2.44c-4.24,1-7.7,1.63-8.74-2.24-.46-1.66-.93-3.58-1.36-5.51-.5-2.23-1-4.5-1.3-6.41-.43-2.33.82-4.24,3.49-4.92,1.16-.3,2.33-.61,3.46-.86l-1.12-5a1.12,1.12,0,0,1,2.18-.48l1.13,5c1.26-.29,2.57-.53,4-.8,2.66-.5,4.66.72,5.23,2.89.53,2,1.09,4.29,1.6,6.6.41,1.85.77,3.66,1.05,5.32.34,2.09-.53,4.13-3.48,4.92-1.33.38-2.66.72-3.92,1l2.09,9.37a1.12,1.12,0,0,1-2.19.48Zm-4-18c-1.05.24-2,.45-3,.71a2.69,2.69,0,0,0-2.26,3.1c.25,1.31.54,2.83.91,4.47l5.88-1.31Zm2,8.78-5.88,1.31c.39,1.72.8,3.39,1.16,4.8.64,2.46,2.36,2.08,6.35,1.19Zm8-3.69c-.36-1.64-.76-3.22-1.08-4.47-.64-2.46-2.37-2.12-6.73-1.15l1.56,7Zm-5.85,3.2,1.63,7.3c1.09-.24,2.27-.5,3.43-.81a2.53,2.53,0,0,0,2.18-3.08c-.27-1.39-.6-3.08-1-4.8Z"/><path class="cls-1" d="M257.34,18a49.08,49.08,0,0,1-5.07,9.13,1.1,1.1,0,0,1-.88.52,1.16,1.16,0,0,1-1.21-1,1.21,1.21,0,0,1,.3-.79,44.51,44.51,0,0,0,6.66-11.72L257,12.8l-5.24.32a1,1,0,0,1-1.08-.94,1,1,0,0,1,1-1.08l5.25-.24-.54-8.54a1.15,1.15,0,0,1,2.28-.12l.36,8.55,4.33-.27a1,1,0,0,1,1.09,1,1,1,0,0,1-.94,1l-4.38.19c.11,2.14.17,4,.19,4.38l0,.34a1.06,1.06,0,0,1,.87-.65c.81,0,4.58,2.78,4.63,3.81a1.08,1.08,0,0,1-1,1.12,1,1,0,0,1-.8-.38,19.3,19.3,0,0,0-3.48-3.22.58.58,0,0,1-.23-.25c.21,3.95,1.15,19.49,1.15,19.49a1,1,0,0,1-1.06,1,1,1,0,0,1-1.21-.92Zm7.4,16.23a1.13,1.13,0,0,1-1.22-1.1,1.09,1.09,0,0,1,.72-1.07,33.15,33.15,0,0,0,7.67-4.84,1.18,1.18,0,0,1,.59-.25,1,1,0,0,1,1,1,1,1,0,0,1-.42.88C270.11,31.44,265.68,34.13,264.74,34.18Zm10.12-15.6-9.15.52a.87.87,0,0,1-1-.85.89.89,0,0,1,.9-.95l9.1-.48-.2-3.74-7.21.42a.83.83,0,0,1-.94-.81.88.88,0,0,1,.85-.95l7.22-.33-.19-3.52-8.37.44a.86.86,0,0,1-1-.81.9.9,0,0,1,.89-.95L276.52,6A51,51,0,0,0,279.21.61a.91.91,0,0,1,.87-.61c.64,0,1.35.4,1.38,1s-2.39,4.43-2.71,4.92l6.44-.33a.84.84,0,0,1,.95.81.86.86,0,0,1-.85.95l-9.11.48.23,3.51,7.21-.42a.82.82,0,0,1,.91.82.82.82,0,0,1-.82.94L276.5,13l.24,3.73,10.13-.53a.88.88,0,0,1,.95.85A.85.85,0,0,1,287,18l-10,.48a27,27,0,0,0,3.13,6.42,25.26,25.26,0,0,0,5.11-4.44.92.92,0,0,1,.67-.34,1.35,1.35,0,0,1,1.27,1.18c.06,1.16-4.22,4.1-6,5.1a23.48,23.48,0,0,0,7.08,6.08,1,1,0,0,1,.52.88,1.25,1.25,0,0,1-1.13,1.35,1.42,1.42,0,0,1-.92-.29A27.7,27.7,0,0,1,277,22.3l.34,4.76.46,5.57v.21c.1,1.89-.62,4.52-5,4.75-2.19.11-3.71,0-3.77-1.14a1.06,1.06,0,0,1,1-1.17,1.17,1.17,0,0,0,.22,0,12.56,12.56,0,0,0,2.68.21c1.85-.1,2.88-.89,2.77-3Zm-4.67,7A14,14,0,0,0,266,23a.7.7,0,0,1-.46-.62,1.16,1.16,0,0,1,1-1.13c.56,0,5.32,2,5.39,3.42a1.17,1.17,0,0,1-1,1.26A1,1,0,0,1,270.19,25.62ZM270.8,5.4a13,13,0,0,0-3.08-3.07.7.7,0,0,1-.34-.54,1.15,1.15,0,0,1,1.11-1c1-.05,4.12,2.89,4.16,3.79a1.21,1.21,0,0,1-1,1.26A.87.87,0,0,1,270.8,5.4Z"/><path class="cls-1" d="M299.3,34.13a29.81,29.81,0,0,1-.25-9.24,48.55,48.55,0,0,1,1-5.56c1.06-4.77,2.59-9.14,3.19-11.8a1.2,1.2,0,0,1,1.29-1.07,1.22,1.22,0,0,1,1.11,1.34l0,.21c-.51,1.81-1.79,5.51-2.66,8.62a56.58,56.58,0,0,0-1.68,8c-.25,2.18-.15,4,.06,4s.23-.15.45-.56c.7-1.22,2.43-3.88,3.25-5a1,1,0,0,1,.92-.51,1.13,1.13,0,0,1,.9,1.23,1,1,0,0,1-.18.46c-1.32,1.75-4.49,6.07-4.79,8.71,0,.13,0,.26,0,.35a6.86,6.86,0,0,1,0,1,1.18,1.18,0,0,1-1.34,1.15C299.93,35.46,299.5,35.06,299.3,34.13Zm23.23-.71a9.09,9.09,0,0,1-8.07,3.63c-3.37-.38-5.41-3-5.17-5.12.34-3,4.24-3.46,7.14-3.13a17.74,17.74,0,0,1,5,1.39,13,13,0,0,0,.28-1.75c.11-1,.14-2,.19-3.18,0-2,.22-5.77.55-9.45-5.25.44-8,1.43-9.64,2.54A1.12,1.12,0,0,1,311,17.28c.27-2.43,10.12-3.44,11.65-3.62.69-6.06.75-6.62,2-6.47.6.06,1.2.48,1.13,1.12V8.4c-.34,1.51-.67,3.25-.91,5,1.22-.08,3.83-.22,4.17-.18a1.1,1.1,0,0,1,1,1.24,1.23,1.23,0,0,1-1.37,1c-1.47,0-2.87.06-4.08.14-.36,3.51-.5,7-.56,9.54-.05,1.56-.09,3.07-.27,4.65,0,.17,0,.38-.06.55a5.09,5.09,0,0,1-.18.85c.16.1.33.17.49.27,2.18,1.33,5,3.55,4.82,4.78a1.3,1.3,0,0,1-1.34,1.19,1.24,1.24,0,0,1-.85-.52,15.86,15.86,0,0,0-4-3.75ZM316,30.69c-4.19-.47-4.54,1.14-4.58,1.52-.11.94.92,2.53,3.19,2.78a6.84,6.84,0,0,0,6.08-2.86A14,14,0,0,0,316,30.69Z"/><path class="cls-1" d="M358.52,29.27l-4.88,16.94a1.17,1.17,0,0,1-1.51.77,1.15,1.15,0,0,1-.88-1.46l4.91-16.93-14.84-4.23a1.08,1.08,0,0,1-.73-1.37,1.07,1.07,0,0,1,1.33-.74l14.83,4.31,2.87-10-11.7-3.32a1.07,1.07,0,0,1-.74-1.33,1,1,0,0,1,1.33-.74l25.91,7.46a1,1,0,0,1,.65,1.3,1,1,0,0,1-1.25.76l-11.88-3.46-2.84,10,15,4.27a1.1,1.1,0,0,1-.6,2.11Z"/><path class="cls-1" d="M404,36.74l-2.87,6,5.42,2.61c1.86.9,2.46,2.33,1.81,3.69-1.19,2.48-8.36,5.38-12.21,6.34a29.3,29.3,0,0,0,11.37,10.9,1.14,1.14,0,0,1,.4,1.54,1.19,1.19,0,0,1-1.74.54,32.51,32.51,0,0,1-12.27-12.48,36.93,36.93,0,0,1-18.14-1.28,1.25,1.25,0,0,1-.56-1.7,1.08,1.08,0,0,1,1.47-.48,31.83,31.83,0,0,0,16.2,1.34c-2.06-4.66-2.79-9.88-2.44-10.62a1.08,1.08,0,0,1,1.48-.39,1,1,0,0,1,.6.82A32.77,32.77,0,0,0,395,53.3c5.83-1.4,10.23-4.2,10.71-5.2.24-.51,0-1-.83-1.36l-.19-.09c-.87-.37-2.37-1-4.15-1.9s-3.86-1.9-5.95-2.91-4.13-1.93-5.85-2.71l0,0a.92.92,0,0,1-.38-1.28,1,1,0,0,1,1.35-.54c2.81,1.3,6.11,2.88,9.32,4.43l2.83-6L388.5,29.36A1,1,0,0,1,388,28a1,1,0,0,1,1.45-.54l13.28,6.43,2.38-5.06a1.22,1.22,0,0,1,2.17,1.05l-2.46,5,13.47,6.42a1,1,0,0,1,.5,1.44,1,1,0,0,1-1.39.52Z"/><path class="cls-1" d="M439.52,58.72a15.69,15.69,0,0,1-2.32-1.33c-1.93-1.36-2.82-2.94-2.18-3.85a1.07,1.07,0,0,1,1.48-.22,2,2,0,0,1,.62.91,3.75,3.75,0,0,0,1.44,1.6,18.9,18.9,0,0,0,3.59,1.85A16.08,16.08,0,0,0,445.29,55a1.11,1.11,0,0,1,1.49-.16,1.22,1.22,0,0,1,.38,1.69,11.15,11.15,0,0,1-2.44,2.12,13.9,13.9,0,0,0,2.78.6,1.29,1.29,0,0,1,.63.23,1,1,0,0,1,.28,1.47c-.74,1.05-3.31.13-6-.89a46.93,46.93,0,0,1-6.28,2.77,7.81,7.81,0,0,1,1.19.63c1.93,1.37,2.59,3.78,1.49,6.9,8.08,1.6,10.77,2.87,11.12,3.12a1.16,1.16,0,0,1,.38,1.69,1.12,1.12,0,0,1-1.28.41c-1.64-.53-2.85-1-4.78-1.59A55.68,55.68,0,0,0,438,72.31a23.24,23.24,0,0,1-1.42,2.31c-1.29,1.83-2.43,3.29-3.58,2.47-.46-.32-.6-.94-.1-1.65l.17-.24a29.8,29.8,0,0,0,2-2.44,7.16,7.16,0,0,0,.56-.87c-3.66-.48-7.67-.62-9.38,1.8-1.12,1.58-.93,4.08,2.65,6.61a20.1,20.1,0,0,0,4.76,2.42,2.9,2.9,0,0,1,.75.36,1.31,1.31,0,0,1,.49,1.83c-1.11,1.58-5.44-1.38-6.67-2.25-5.59-3.94-5.54-8-4-10.17.94-1.34,3.93-4,12.39-2.56,1-2.43.89-4.32-.55-5.34a5.53,5.53,0,0,0-3.16-.81c-2.26.51-3.24.71-3.94.21a1.05,1.05,0,0,1-.35-1.45,1.39,1.39,0,0,1,1.09-.49,24.47,24.47,0,0,0,10.37-3Z"/><path class="cls-1" d="M446.82,96.77a1.24,1.24,0,0,1,0-1.74,1.13,1.13,0,0,1,.67-.3A40.7,40.7,0,0,0,459.5,91a1,1,0,0,1,1.16.24,1.15,1.15,0,0,1,.09,1.61,42.6,42.6,0,0,1-12.57,4.25A1.56,1.56,0,0,1,446.82,96.77Zm26.25,4.29c-2.95,5.79-2.55,13.64-.13,18.7a1.18,1.18,0,0,1-.18,1.46,1.27,1.27,0,0,1-1.76,0c-1.47-1.45-3.91-11.75-.24-19.91-11.22,6-20.46.24-20.7,0a1.24,1.24,0,0,1,0-1.73,1,1,0,0,1,1.31-.16,18.54,18.54,0,0,0,19.39-.57l-6.87-6.69a1,1,0,0,1,1.46-1.46l7.08,7a28.46,28.46,0,0,0,3.33-2.87l3.66-3.69c-1.83-1.82-3.72-3.7-5.43-5.33a1,1,0,0,1,1.45-1.47l5.41,5.36c1.3-1.31,2.6-2.69,3.9-4a1.06,1.06,0,0,1,1.58,0,1.1,1.1,0,0,1,.07,1.58l-4,4c1.16,1.15,2.29,2.27,3.26,3.3,1.93,2,1.9,4,.33,5.66l-1.45,1.46c-1.3,1.32-2.76,2.78-4.06,4l3.12,3.09a1,1,0,0,1-1.43,1.44ZM463.4,86a17.74,17.74,0,0,0-2.16-6.37.79.79,0,0,1,.15-1,1.15,1.15,0,0,1,1.61,0c.06.06,3.83,6.46,2.38,7.92a1.23,1.23,0,0,1-1.7.13A1,1,0,0,1,463.4,86Zm8-4.74a19,19,0,0,0-.95-6.81.77.77,0,0,1,.18-.85,1.19,1.19,0,0,1,1.59.11c.7.7,2.43,7.14,1.28,8.3a1.37,1.37,0,0,1-1.83.13A1,1,0,0,1,471.38,81.22Zm7.6,23c.88-.83,1.82-1.77,2.73-2.69s1.78-1.8,2.39-2.47c.94-1,1.06-2.1-.2-3.4-.88-.88-1.83-1.88-2.87-2.91-1.24,1.25-2.48,2.44-3.66,3.63A26.3,26.3,0,0,1,474,99.27Z"/><path class="cls-1" d="M499.22,131.1c.34,1.66.37,1.7-.09,2a1.16,1.16,0,0,1-1.61-.32,4,4,0,0,1-.55-1.88c-4.42-.48-10.16-1.38-11.84-3.72-1.23-1.71.3-3.34,1.59-4.27,3-2.18,7.6-2.39,11.93-1.16a37.4,37.4,0,0,1,5.4-7.59,1.42,1.42,0,0,1,.36-.31,1.06,1.06,0,0,1,1.6.17,1.35,1.35,0,0,1-.23,1.81,28.71,28.71,0,0,0-5.24,6.57,18.27,18.27,0,0,1,7.62,5.8,10.1,10.1,0,0,0,2.3-1.23,8,8,0,0,0,1.64-1.54,2.7,2.7,0,0,1,.51-.54,1.11,1.11,0,0,1,1.63.21c.48.66.68,1.68-1.76,3.44a13.47,13.47,0,0,1-3,1.6c2.72,5,1.66,10-2.6,13-5.72,4.11-14.63,1.52-21.34-5.53-.07-.1-.18-.18-.26-.29a1.21,1.21,0,0,1,.07-1.74c.45-.33,1.12-.28,1.76.38,5.65,5.95,13.52,8.65,18.38,5.16,2.47-1.78,4.73-5.57,2.13-10.43A32.66,32.66,0,0,1,499.22,131.1Zm-1.31-7.64c-3.38-.79-7.35-.64-9.59,1-.83.61-1.28,1.24-.82,1.87,1.1,1.54,7.42,2.29,9.32,2.51A15.07,15.07,0,0,1,497.91,123.46Zm1.9.59a13.39,13.39,0,0,0-.83,5,29.8,29.8,0,0,0,7.3-.22A15.56,15.56,0,0,0,499.81,124.05Z"/><path class="cls-1" d="M521.78,179.17c2.66-1.3,3.57-4.62,1.77-8.29a14.62,14.62,0,0,0-10.41-7.54,1.37,1.37,0,0,1-1-.77,1.35,1.35,0,0,1,.51-1.79,1.73,1.73,0,0,1,1.41,0,146.23,146.23,0,0,0,20.22,5.4c.08,0,.06-.08,0-.16a1.53,1.53,0,0,0-.42-.46c-1.39-1.18-6.55-6.41-7.27-7.88a1.15,1.15,0,0,1,.5-1.63,1.18,1.18,0,0,1,1.51.45,50.24,50.24,0,0,0,6.87,8,6.25,6.25,0,0,1,1.5,1.7,1.66,1.66,0,0,1-.67,2.35,2,2,0,0,1-1.58.1c-4-1.22-10.17-2.76-14.85-4.2a14.31,14.31,0,0,1,5.69,6c2.39,4.86.86,9.16-2.58,10.84-4,2-11.21,1-15-6.64-2.35-4.79-1.15-8,.89-9,1.51-.74,3.45-.21,4.55,2,1.42,2.89.7,6-2.46,8C514.58,180.31,519.46,180.31,521.78,179.17Zm-9.93-10.45c-.55-1.12-1.43-1.36-2.16-1-1.08.53-1.81,2.47.05,6.25C512.54,172.36,512.65,170.34,511.85,168.72Z"/><path class="cls-1" d="M545.47,204.6c-11.86-.66-18.22-2.13-24.8-3.14a1.42,1.42,0,0,1-1.11-1,1.19,1.19,0,0,1,.65-1.58,1.81,1.81,0,0,1,.77,0,143.33,143.33,0,0,0,23.28,3.49h.18a23.32,23.32,0,0,1-2.58-4.93c-.17-.57-.83-2.94.49-3.33a1.21,1.21,0,0,1,1.53.76,2.1,2.1,0,0,1,0,.8,3.13,3.13,0,0,0,.12,1.45,17.44,17.44,0,0,0,3.06,5.33,14.72,14.72,0,0,0,4.27-.73,1.19,1.19,0,0,1,1.48.9c.33,1.12-.56,1.47-1.13,1.64a10.65,10.65,0,0,1-2.71.4,9.86,9.86,0,0,0,1.15,1,1.31,1.31,0,0,1,.52.7,1.11,1.11,0,0,1-.7,1.42c-.41.12-1.31.12-3.88-3.11Zm-17.17,22c-1.19.35-1.58-1-1.77-1.58-2.1-7.1.72-11.79,2-12.17a1.28,1.28,0,0,1,1.59.83,1.18,1.18,0,0,1-.37,1.18c-2.52,2.68-1.55,6.56-.64,10.06A1.29,1.29,0,0,1,528.3,226.56Zm14.75-2.9a1.26,1.26,0,0,1-.06-.52c.17-2.29.38-5.81-.38-8.37a7,7,0,0,0-.68-1.54.53.53,0,0,1-.11-.24,1,1,0,0,1,.73-1.16c.58-.17,1.44,0,2.16,2.46a25.72,25.72,0,0,1,.64,9.09,1.16,1.16,0,0,1-2.3.28Z"/><path class="cls-1" d="M546.68,253.52c-.5,1.62-.49,1.67-1,1.73a1.15,1.15,0,0,1-1.25-1.06,3.87,3.87,0,0,1,.42-1.91c-3.65-2.55-8.24-6.1-8.59-9-.25-2.1,1.87-2.79,3.45-3,3.72-.45,7.82,1.56,11,4.73a37.88,37.88,0,0,1,8.39-4.06,2.26,2.26,0,0,1,.46-.1,1.09,1.09,0,0,1,1.33.93,1.35,1.35,0,0,1-1.08,1.47,28.78,28.78,0,0,0-7.75,3.24,18.25,18.25,0,0,1,3.88,8.76,9.78,9.78,0,0,0,2.6,0,8.07,8.07,0,0,0,2.18-.57,2.94,2.94,0,0,1,.71-.22,1.1,1.1,0,0,1,1.33,1c.1.81-.21,1.8-3.2,2.16a12.74,12.74,0,0,1-3.43-.06c0,5.73-3.34,9.55-8.55,10.18-7,.85-13.56-5.71-16-15.12,0-.13-.07-.25-.09-.38a1.21,1.21,0,0,1,.9-1.49c.56-.07,1.12.3,1.36,1.18,2.09,7.93,7.69,14.09,13.63,13.37,3-.36,6.83-2.6,6.89-8.11A32.71,32.71,0,0,1,546.68,253.52Zm2.53-7.32c-2.58-2.33-6.13-4.11-8.86-3.78-1,.13-1.72.47-1.63,1.24.23,1.88,5.4,5.58,7,6.69A15,15,0,0,1,549.21,246.2Zm1.39,1.43a13.13,13.13,0,0,0-3.12,3.93,29.35,29.35,0,0,0,6.51,3.33A15.59,15.59,0,0,0,550.6,247.63Z"/><path class="cls-1" d="M534.81,284.19a27.16,27.16,0,0,1,8.12-.76c7.39.32,14.51,2.88,18.27,3.34a1.1,1.1,0,0,1,1.07,1.17,1.23,1.23,0,0,1-1.17,1.24c-.09,0-.17-.05-.26-.06-4.21-1-11.77-3.27-17.06-3.5-.13,0-3-.09-3,.3,0,.13.16.26.54.45,1.18.61,3.69,2.14,4.4,2.6a1,1,0,0,1,.52.89,1,1,0,0,1-1.5.88c-2.3-1.48-6.24-4-9.07-4.1-.17,0-.35,0-.56,0H535c-.56,0-1.41-.24-1.37-1.22A1.44,1.44,0,0,1,534.81,284.19Zm0,23.46c.34-7.78,4.94-12.53,6.4-12.46a1.2,1.2,0,0,1,1.07,1.25,1.5,1.5,0,0,1-.61,1.05c-2.76,2.16-4.08,5.63-4.26,9.75a27.86,27.86,0,0,0,.14,3.71,2,2,0,0,0,0,.3,1.17,1.17,0,0,1-1.26,1.2C535.41,312.41,534.66,311.94,534.85,307.65ZM554,303.28a26.38,26.38,0,0,1,.91-5.85,1.16,1.16,0,0,1,1.16-.94,1.18,1.18,0,0,1,1.1,1.21.72.72,0,0,1-.05.3,22.78,22.78,0,0,0-.69,4.83,41.91,41.91,0,0,0,.15,5.34,1.28,1.28,0,0,1,0,.22,1.1,1.1,0,0,1-1.17,1.15C554.69,309.51,553.75,309.43,554,303.28Z"/><path class="cls-1" d="M550,355.7a3.8,3.8,0,0,1-4.72,3.17c-1.35-.29-2.79-.55-4.17-.85-13.08-2.8-16.92-6.66-15.86-11.62a11.83,11.83,0,0,1,1.27-3.25,1.2,1.2,0,0,1,2.21.78,3,3,0,0,1-.18.45,8.23,8.23,0,0,0-1.12,2.53c-1,4.63,6.11,7.2,14.77,9.06,1.1.23,2.16.41,3.17.63a2.3,2.3,0,0,0,2.88-1.94c.18-.88.45-1.92.71-3.14-9.16-2.18-18.07-6.38-22-15.89a1.36,1.36,0,0,1-.08-.85,1.18,1.18,0,0,1,1.34-.9,1,1,0,0,1,.77.69c3.75,9.21,12.13,12.8,20.47,14.72.38-1.76.67-3.55,1-5a.9.9,0,0,1,1.12-.73,1,1,0,0,1,.8,1.19c-.33,1.55-.65,3.24-1,5l7.53,1.61a1.06,1.06,0,0,1,.77,1.35,1.08,1.08,0,0,1-1.26.92l-7.55-1.7ZM536.6,331.94l-3.41-.69c-.09,2.49-.08,4.86,0,6.81,0,.09,0,.14,0,.22a.86.86,0,0,1-1,.53.82.82,0,0,1-.67-.76,128.53,128.53,0,0,1,.61-17.24,1,1,0,0,1,1.92.28c-.33,2.57-.58,5.37-.72,8.07L537,330l1.24-6.64v0a.85.85,0,0,1,1-.7.91.91,0,0,1,.72,1.16l-1.36,6.57,2.68.62c1-4.63,1.47-6.86,4.55-6.28.77.12,1.78.33,2.75.54,2.94.63,4.74,1.24,4.11,4.8-.2,1.14-.42,2.19-.65,3.24l2.82.61,1.55-7.46a.89.89,0,0,1,1.08-.73.87.87,0,0,1,.69,1.11l-1.64,7.44c1.18.25,2.24.43,3.12.62.36-2.25.74-4.24,1-5.46.3-1.43.58-1.9,1.34-1.74a.94.94,0,0,1,.71,1.17v0c-.2.71-.36,1.46-.53,2.26A56.54,56.54,0,0,0,560.88,343c0,.08,0,.17,0,.26a1,1,0,0,1-1.17.76A1,1,0,0,1,559,343a45,45,0,0,1,.4-6.16l-3.24-.7-1.52,7.29a.88.88,0,0,1-1.08.73.86.86,0,0,1-.68-1.11l1.6-7.27-2.82-.6c-.26,1.22-.51,2.4-.82,3.61-.51,2.17-2,3-3.49,2.77-.6-.09-1.27-.23-2-.38-1-.2-2-.42-2.85-.65-1.83-.48-2.83-1.75-2.38-4.07.21-1.19.47-2.41.72-3.59l-2.65-.56L537,338.62v0a.85.85,0,0,1-1,.67.86.86,0,0,1-.64-1.11Zm9,1.93-3.2-.68c-.83,3.87-1.07,5,.81,5.45.42.09.83.22,1.3.32Zm.41-1.93,1.08-5.05c-3.15-.68-3.22-.56-4.28,4.36Zm0,7.33c3.07.66,3.21,0,4.16-4.43l-3.07-.65Zm4.57-6.36c.24-1.14.43-2.2.59-3a1.91,1.91,0,0,0-1.58-2.5c-.29-.06-.62-.17-1-.26l-1.08,5.05Z"/><path class="cls-1" d="M535.06,397.68c-7.31-3.6-16.72-10.18-18.49-21.9a1.5,1.5,0,0,1,.09-.8,1.1,1.1,0,0,1,1.45-.62.89.89,0,0,1,.6.7c1.9,11.73,10.69,17.45,17.15,20.63.43-1.08.95-2.27,1.41-3.42-10.39-6.69-13.13-14.91-12.64-16.15a1.1,1.1,0,0,1,1.41-.64,1.27,1.27,0,0,1,.68.87c1.66,6.27,6.45,10.86,11.35,13.92.47-1.2.88-2.33,1.21-3.17a34,34,0,0,1-4.18-5,1.35,1.35,0,0,1-.15-1.26,1,1,0,0,1,1.28-.65,1.13,1.13,0,0,1,.5.48A42.39,42.39,0,0,0,547.07,391a1,1,0,0,1,.31,1.19A1.15,1.15,0,0,1,546,393c-.72-.29-4.89-4.22-5.23-4.54l-4.25,10.67c-1,2.43-3,3.45-5.4,2.52-1.82-.68-3.92-1.42-6-2.27-11.59-4.61-15.88-9.29-13.53-15.2a15.31,15.31,0,0,1,1.68-3,1.13,1.13,0,0,1,1.39-.36,1,1,0,0,1,.64,1.31,1.33,1.33,0,0,1-.19.35,12.94,12.94,0,0,0-1.49,2.59c-1.17,2.92-.78,7.05,12.76,12.45,1.88.75,3.71,1.38,5.25,1.95,1.79.62,2.77,0,3.39-1.43Zm-4.21-26.25a56.14,56.14,0,0,1,.31-6.59,1.13,1.13,0,0,1,1.47-.67,1.08,1.08,0,0,1,.66,1.14q-.3,3.7-.4,6.93l8.85,3.57,1.31-3.51c-5.36-3.52-5.85-4.5-5.45-5.5a.9.9,0,0,1,1.17-.6,1.54,1.54,0,0,1,.43.31,32.87,32.87,0,0,0,10.48,7.05,1.12,1.12,0,0,1-.79,2.09,43.55,43.55,0,0,1-4.09-2.28l-1.22,3.17,7.65,3.1a1.12,1.12,0,0,1-.82,2.08l-7.66-3.1-1.38,3.48a.93.93,0,0,1-1.29.55,1,1,0,0,1-.55-1.29l1.38-3.47-8-3.26c0,1.58.09,3.14.23,4.54a.88.88,0,0,1-1.34.81c-.6-.24-.89-.78-.93-6.16l-13-5.21a1.13,1.13,0,0,1,.82-2.08Z"/><path class="cls-1" d="M491.24,427.11c-1.06-.65-.35-1.82,0-2.37,3.85-6.32,9.22-7.38,10.36-6.69a1.29,1.29,0,0,1,.45,1.74,1.16,1.16,0,0,1-1.12.52c-3.68-.07-5.91,3.26-7.89,6.27A1.3,1.3,0,0,1,491.24,427.11Zm12.05,9a1.17,1.17,0,0,1,.34-.4c1.82-1.41,4.57-3.61,5.95-5.89a7,7,0,0,0,.69-1.54.47.47,0,0,1,.1-.24,1,1,0,0,1,1.35-.24c.51.32.95,1.08-.37,3.25a26.07,26.07,0,0,1-6.32,6.58,1.18,1.18,0,0,1-1.36.17A1.21,1.21,0,0,1,503.29,436.1Zm15.75-11c-7.47-9.22-10.64-14.93-14.31-20.48a1.44,1.44,0,0,1,0-1.51,1.19,1.19,0,0,1,1.61-.58,1.71,1.71,0,0,1,.52.57,142.55,142.55,0,0,0,13,19.6l.12.13a23.51,23.51,0,0,1,1.92-5.22c.32-.52,1.63-2.59,2.8-1.87a1.19,1.19,0,0,1,.46,1.64,2.21,2.21,0,0,1-.58.55,3.06,3.06,0,0,0-1,1.05,17.9,17.9,0,0,0-1.89,5.85,14.64,14.64,0,0,0,3.4,2.67,1.19,1.19,0,0,1,.32,1.71c-.6,1-1.45.57-2,.26a10.92,10.92,0,0,1-2.11-1.74,10.63,10.63,0,0,0,0,1.52,1.31,1.31,0,0,1-.17.86,1.11,1.11,0,0,1-1.52.43c-.37-.22-1-.89-.3-5Z"/><path class="cls-1" d="M495.34,455.54c.57-.65,2.3-2.46,3.37-1.53a1.13,1.13,0,0,1,.09,1.61,1.62,1.62,0,0,1-.64.47,5.28,5.28,0,0,0-1.35,1.11,9.08,9.08,0,0,0-1.71,3.35c4.91,5.5,5.34,6,4.47,7a1.09,1.09,0,0,1-1.57.23c-.06,0-.1-.14-.16-.2-1.15-1.5-2.14-3-3.31-4.39-.14,1.07-.31,2.8-.35,3.56a1.71,1.71,0,0,1-.38,1.09,1,1,0,0,1-1.49.08,1.82,1.82,0,0,1-.48-1.55,39.47,39.47,0,0,1,.88-5.21c-2.89-3.18-7.45-8.49-10-10.89,1.37,5.91.22,11.05-2.2,13.85-.34.39-5,5.3-9,1.84-5.73-4.95-1.13-17.23.89-19.58a1.24,1.24,0,0,1,1.78-.34,1.29,1.29,0,0,1,.09,1.73c-4.7,7.42-3.43,14.43-1.25,16.31s5.24-.53,6.08-1.51c2.61-3,2.62-8.82,1.45-12.78a3.56,3.56,0,0,1-.32-2.21,1.33,1.33,0,0,1,.27-.51,1.4,1.4,0,0,1,2-.14c.43.36,2.23,2.15,11,11.82A11.22,11.22,0,0,1,495.34,455.54Z"/><path class="cls-1" d="M461.17,494.9a15.39,15.39,0,0,1,1.88-1.9c1.83-1.51,3.58-2,4.29-1.1a1.05,1.05,0,0,1-.17,1.48,2,2,0,0,1-1,.36,3.83,3.83,0,0,0-1.92,1,19.19,19.19,0,0,0-2.73,3,16.15,16.15,0,0,0,1.82,3.75,1.09,1.09,0,0,1-.23,1.47,1.21,1.21,0,0,1-1.73-.07,10.94,10.94,0,0,1-1.41-2.91,13.75,13.75,0,0,0-1.31,2.54,1.26,1.26,0,0,1-.38.54,1,1,0,0,1-1.49-.11c-.82-1,.73-3.23,2.41-5.52a45.78,45.78,0,0,1-1-6.78,7.26,7.26,0,0,1-.92,1c-1.82,1.51-4.33,1.52-7.05-.35-3.66,7.38-5.58,9.64-5.91,9.92a1.16,1.16,0,0,1-1.73-.07,1.11,1.11,0,0,1-.06-1.35c.93-1.44,1.67-2.5,2.77-4.2a57,57,0,0,0,3.23-5.68c-.62-.61-1.26-1.25-1.87-2-1.42-1.72-2.54-3.2-1.44-4.11a1.1,1.1,0,0,1,1.61.34l.2.23a28.7,28.7,0,0,0,1.83,2.55,7.26,7.26,0,0,0,.7.77c1.41-3.41,2.6-7.24.7-9.52-1.23-1.49-3.69-2-7.07.83a20.44,20.44,0,0,0-3.58,4,2.56,2.56,0,0,1-.54.62,1.31,1.31,0,0,1-1.9,0c-1.23-1.49,2.75-4.91,3.91-5.87,5.27-4.36,9.13-3.26,10.86-1.18,1.05,1.26,2.85,4.85-.75,12.64,2.07,1.63,3.93,2,5.29.86a5.55,5.55,0,0,0,1.61-2.84c.09-2.31.16-3.32.82-3.86a1.05,1.05,0,0,1,1.49,0,1.42,1.42,0,0,1,.2,1.18,24.37,24.37,0,0,0,.24,10.81Z"/><path class="cls-1" d="M396.41,515.8c-1,.6-1.43-.07-1.8-.7-2.56-4.43-1.63-6.16,1.65-8.06,2.49-1.44,4-1.44,5.6,1.27s2.41,4.42,3.66,6.58c6.22-3.6,6.85-4,9.16,0,.26.45.46.88.76,1.4.69,1.28.23,2.8-1.63,4-.79.51-1.72,1.05-2.65,1.59-1.31.76-2.61,1.51-3.6,2-2,1.05-3.64.92-4.45-.3-.42-.65-.76-1.15-1.1-1.74-1.3-2.23-1.52-3.9,1.38-5.67l.22-.13c-1.51-2.7-2-3.87-3.5-6.47-.71-1.23-1.25-1.81-2.92-.84-1.38.79-2.79,1.61-.76,5.11l.38.67A.9.9,0,0,1,396.41,515.8Zm13.87,4.73c3.35-1.94,3.87-2.24,2.45-4.7s-1.75-2.17-5.66.1c-4.24,2.46-4.54,2.63-3.07,5.16C405.21,523.17,405.45,523.33,410.28,520.53Zm8.44,0a.95.95,0,0,1,.95,1.64l-3.82,2.16a12.86,12.86,0,0,0,3,2,.53.53,0,0,1,.25.26,1,1,0,0,1-.49,1.22c-1.11.65-3.53-1.38-4.1-1.94l-.09-.15a1.72,1.72,0,0,1-.16-.45l-1.62.89-1.17.72s0,.06,0,.1a16.12,16.12,0,0,0,.81,4,.9.9,0,0,1-.48,1.07,1.17,1.17,0,0,1-1.63-.25c-.15-.26-.26-.79-.53-3.82l-4.44,2.62a.85.85,0,0,1-1.22-.38.86.86,0,0,1,.27-1.25Zm-8.24-22.71a1.08,1.08,0,0,1,1.49.43,1,1,0,0,1-.13,1.22c-3.4,3.41-4.42,7-3.41,11.27a1,1,0,0,1-.41,1.18,1.11,1.11,0,0,1-1.51-.37.83.83,0,0,1-.13-.32A13.51,13.51,0,0,1,410.48,497.8Zm10.93,29.75a.94.94,0,0,1,.95,1.63l-4.9,2.79,1.55,2.58a1.09,1.09,0,0,1-.46,1.52,1.07,1.07,0,0,1-1.55-.35l-1.47-2.63L410,536.34a.94.94,0,1,1-.95-1.63Zm-1.08-21.24,1.3-.76c5.21-3,6.12-3.25,8.3.51.26.45.48.92.76,1.4.7,1.28.27,2.78-1.59,4-.79.51-1.69,1-2.58,1.55-1.19.69-2.42,1.4-3.37,1.9-1.94,1-3.6.9-4.41-.32-.4-.62-.79-1.19-1.13-1.79-1.1-1.89-1.7-3.53,1-5.36l-2.79-4.79a39.3,39.3,0,0,0-2.32,4.13.84.84,0,0,1-.36.4,1,1,0,0,1-1.26-.36,1.06,1.06,0,0,1,0-1c1.78-3.87,4.91-8.42,5.39-8.7a1.11,1.11,0,0,1,1.46.45.91.91,0,0,1-.09,1c-.48.63-1.06,1.36-1.58,2.16Zm5.36,5.29c3.23-1.87,3.73-2.21,2.33-4.63s-1.64-2.23-5.51,0c-4.39,2.55-4.3,2.69-2.92,5.07C420.8,514.14,421,514.32,425.69,511.6Zm8.88-.28a.95.95,0,0,1,.95,1.64l-4.19,2.38a12.44,12.44,0,0,0,3,2,.47.47,0,0,1,.24.26,1,1,0,0,1-.48,1.22c-1.12.65-3.53-1.38-4.11-1.94l-.08-.15a1.74,1.74,0,0,1-.17-.45l-1.47.8-1.06.66s0,.06,0,.1a16.07,16.07,0,0,0,.8,4,.9.9,0,0,1-.47,1.07,1.17,1.17,0,0,1-1.63-.25c-.15-.26-.27-.79-.53-3.82l-3.33,2a.95.95,0,0,1-.94-1.64Zm-10-20.49a1,1,0,0,1,0,1,11.64,11.64,0,0,0-.86,10.09,1,1,0,0,1-.44,1.3,1.07,1.07,0,0,1-1.47-.39c0-.08-.07-.21-.11-.29-2.3-6.71.74-11.76,1.44-12.17A1.07,1.07,0,0,1,424.58,490.83Zm12.49,27.64a.95.95,0,0,1,.95,1.64l-5.15,2.94,1.5,2.6a1.14,1.14,0,0,1-2,1.14l-1.47-2.62L426.19,527a.94.94,0,1,1-.95-1.63Z"/><path class="cls-1" d="M364.65,537.22c-.51-1.37-1-2.69-1.31-3.64-.72-2.16.21-4,2.77-5,1.23-.51,3.73-1.44,6.47-2.47l-.41-1.08L371,522l0-.08c-.83-2.22-.46-4.79,3.73-6.35a19.62,19.62,0,0,1,3.48-.89,1.26,1.26,0,0,1,1.48.77,1.07,1.07,0,0,1-.61,1.43.73.73,0,0,1-.3.06,16,16,0,0,0-3.52.77c-2,.75-2.68,1.92-2,3.85l1.42,3.79,10.15-3.8a.94.94,0,0,1,1.23.6.92.92,0,0,1-.54,1.26c-1.83.64-6.15,2.21-10.18,3.71l2,5.36L391.88,527a1,1,0,1,1,.68,1.82L378,534.29l1.81,4.84c3.74-1.4,7.57-2.83,9-3.42h0a.9.9,0,0,1,1.22.55,1,1,0,0,1-.62,1.29c-1.57.59-5.18,2-8.81,3.34-.69,1.59-2.09,5.19-1.82,5.92.12.32.43.43,1,.28s5-1.89,7.4-2.82c1.64-4.33,4.54-10.33,5.71-10.76a1.19,1.19,0,0,1,1.53.66,1.06,1.06,0,0,1-.2,1,36.72,36.72,0,0,0-6.25,14,1.08,1.08,0,0,1-.68.9,1.13,1.13,0,0,1-1.43-.66c-.13-.32-.1-.74.54-3l-6.91,2.63c-1.37.51-2.62.11-3-.94-.16-.44-.38-1.51,1.73-6.43-2.74,1-5.23,2-6.5,2.39-2.59.92-4.25.3-5.1-1.72-.35-.83-.8-2-1.29-3.33l-4.79,1.79a.91.91,0,0,1-1.23-.6.92.92,0,0,1,.54-1.25Zm10.6-4-2-5.35c-2.62,1-4.94,1.89-6.05,2.35-2.39,1-1.92,2.23-.44,6.18Zm-7.83,5c1.39,3.71,1.8,4.8,4.05,4,1.09-.4,3.52-1.27,6.26-2.29l-1.81-4.83Z"/><path class="cls-1" d="M329.53,551.68c-1.19-1.44-2.43-2.87-3.53-4.27a36.26,36.26,0,0,1-2.7-3.82,8.51,8.51,0,0,1-1.17-2.67c-.23-1.18.25-1.67.75-1.76a2.64,2.64,0,0,1,1.76.45c2.33,1.22,7.84,1.17,11,.57,4.44-.85,5.68-3.54,5.39-5-.46-2.41-4.8-3.33-9.23-2.48a19.54,19.54,0,0,0-2.14.5l-.25.05a1.32,1.32,0,0,1-1.72-.94,1.49,1.49,0,0,1,1.34-1.7l.38-.08c8.15-1.56,13.21.62,13.87,4,.4,2.11-.85,6.3-7.48,7.57a54.29,54.29,0,0,1-9.54.51,1.13,1.13,0,0,0-.34,0c-.13,0-.21.08-.17.25.07.38,1.32,3,6.44,8.7.33.38.62.72.91,1.1a30.61,30.61,0,0,1,5-1.79c4.39-.84,8.69,2.41,8.89,3.42a1.17,1.17,0,0,1-1,1.29,1.46,1.46,0,0,1-1.21-.34c-2.82-2.39-5.21-2.51-6.73-2.21a15.78,15.78,0,0,0-3.52,1.28c2.84,3.4,3.5,4.54,3.58,5a1,1,0,0,1-.89,1.26,1.5,1.5,0,0,1-1.62-.91,25.91,25.91,0,0,0-3-4.37c-1,.55-2,1.09-3,1.66a2,2,0,0,1-.65.26,1.15,1.15,0,0,1-1.44-.91c-.16-.84.25-1.18,3.67-2.76C330.6,552.92,330.05,552.32,329.53,551.68Z"/><path class="cls-1" d="M282.81,553.37c.72-4.14,1.6-8.81,4.66-8.88,2,0,3.23,2.37,3.25,2.89a1.13,1.13,0,0,1-1.05,1.14,1,1,0,0,1-.92-.53c-.49-.77-.93-1.06-1.27-1-1.42,0-2.1,4-2.5,6.94l0,.22a95.35,95.35,0,0,0,10.31-4.16c-.21-1.71-.43-3.47-.54-4.8-.46-4.72-.9-7.12-6.49-7a23.92,23.92,0,0,0-6.64,1.23,2.78,2.78,0,0,1-.6.1,1.24,1.24,0,0,1-1.36-1.17,1.52,1.52,0,0,1,1.17-1.41,27,27,0,0,1,6.78-1c8.29-.19,8.8,3,9.93,13,1.15-.55,2.09-1,2.81-1.4,4.54-2.39,6.94-2.92,7.11-2.92a1.33,1.33,0,0,1,1.45,1.3c0,.51-.36,1.08-1.26,1.32a52.13,52.13,0,0,0-9.88,3.93c.11,1,.21,1.8.31,2.44.36,2.4.62,4.16.87,5.66v.26a1.27,1.27,0,0,1-1.26,1.32,1.35,1.35,0,0,1-1.4-1.22c-.25-1.28-.39-3.56-.51-5.15-.06-.64-.12-1.46-.23-2.32a111.2,111.2,0,0,1-10.86,4.26c-.25,2.28-.95,7.2-1,7.68a1.33,1.33,0,0,1-2.62-.15,1,1,0,0,1,0-.39c.12-.44.85-3.94,1.23-6.44a35.32,35.32,0,0,1-7.89,1.3c-2.58.06-3.32-.35-3.34-1.3a1.29,1.29,0,0,1,1.39-1.23h.3a18.09,18.09,0,0,0,2.63.11,33.22,33.22,0,0,0,7.24-1.11Z"/><path class="cls-1" d="M244.07,535.14a7.25,7.25,0,0,1,7.63-4.08c3.15.46,6.09,3,5.72,5.52-.06.42-.63,4.12-7.78,3.1a17.37,17.37,0,0,1-4.14-1.12,8.48,8.48,0,0,0-.2,1.1c-.14.94-.19,1.89-.25,3-.1,1.6-.22,3.36-.39,5.12a17.89,17.89,0,0,1,4.17,0c.72.1,4.2.73,3.85,3.12a4.22,4.22,0,0,1-1.84,2.56c-.74.59-2.1,1.35-2.83,1.89-.54.4-.89.74-.95,1.13-.15,1.11,3.7,3.61,7.48,4.24a1.11,1.11,0,0,1,1.09,1.2c-.08.55-.58,1-1.52.87-2.25-.33-10.3-3.91-9.89-6.76a1.73,1.73,0,0,1,1.28-1.38c.86-.27,4.64-2.64,4.78-3.66.09-.6-.76-1.07-1.91-1.23a14.85,14.85,0,0,0-3.88.14c-.27,2.74-.63,5.56-1,8.15-1,6.9-1.12,7.57-2.36,7.4A1.32,1.32,0,0,1,240,564s0-.08,0-.12c.59-2.65,1.3-6.38,1.85-10.21.16-1.1.32-2.25.44-3.37a10.18,10.18,0,0,0-3.8,1.63,1.43,1.43,0,0,1-1.09.32,1.11,1.11,0,0,1-.95-1.26c.27-1.87,5.62-2.85,6.12-3,.19-1.93.27-3.74.32-5.3a43.78,43.78,0,0,1,.38-4.46c0-.26.06-.47.1-.72-2.43-1.26-5.95-4-5.71-5.64a1.27,1.27,0,0,1,1.34-1.2,1.31,1.31,0,0,1,1,.7,13.22,13.22,0,0,0,4,4A.82.82,0,0,1,244.07,535.14Zm2,1.42a14.4,14.4,0,0,0,4.12,1.24c.85.12,4.84.52,5.12-1.44.17-1.23-1.3-2.79-3.73-3.14a5,5,0,0,0-5.37,3Z"/><path class="cls-1" d="M207,522.92c6.8,2.18,6.42,6.17,5.07,10.39-1,3.15-2.3,6.48-3.56,9.87-.78,2.15-1.57,4.33-2.2,6.3a36.17,36.17,0,0,0-1.18,4.4l-.08.25a1.19,1.19,0,0,1-1.53.82c-1.47-.47-1.05-1.78.16-5.59.67-2.09,1.49-4.36,2.39-6.6,1.2-3,2.53-6.37,3.53-9.48,1.11-3.48,2-6.37-3-8a31.55,31.55,0,0,0-11.29-1.13,2.11,2.11,0,0,1-.79-.07,1.2,1.2,0,0,1-.8-1.57,1.67,1.67,0,0,1,1.6-1.07A37.15,37.15,0,0,1,207,522.92Z"/><path class="cls-1" d="M148,514.68a1.12,1.12,0,0,1,.41.31c1.54,1.72,3.93,4.31,6.29,5.53a6.68,6.68,0,0,0,1.59.58.68.68,0,0,1,.25.09,1,1,0,0,1,.33,1.33c-.28.53-1,1-3.27-.15a25.89,25.89,0,0,1-7-5.85,1.21,1.21,0,0,1-.27-1.35A1.22,1.22,0,0,1,148,514.68Zm12.06,15c8.69-8.09,14.17-11.65,19.45-15.69a1.43,1.43,0,0,1,1.51-.09,1.19,1.19,0,0,1,.69,1.56,1.82,1.82,0,0,1-.53.55,143,143,0,0,0-18.67,14.36l-.12.13a23.72,23.72,0,0,1,5.35,1.56c.53.28,2.69,1.44,2.06,2.66a1.21,1.21,0,0,1-1.61.58,2.25,2.25,0,0,1-.59-.55,3.08,3.08,0,0,0-1.12-.92,17.67,17.67,0,0,0-6-1.49,14.88,14.88,0,0,0-2.44,3.58,1.18,1.18,0,0,1-1.68.44c-1-.53-.67-1.41-.39-2a10.21,10.21,0,0,1,1.59-2.22,11.06,11.06,0,0,0-1.52.13,1.31,1.31,0,0,1-.87-.11,1.11,1.11,0,0,1-.53-1.49c.19-.38.82-1,4.93-.64ZM156.13,502c.57-1.11,1.79-.47,2.37-.18,6.57,3.4,8,8.69,7.38,9.88a1.28,1.28,0,0,1-1.7.57,1.18,1.18,0,0,1-.6-1.09c-.18-3.67-3.65-5.66-6.8-7.44A1.27,1.27,0,0,1,156.13,502Z"/><path class="cls-1" d="M146.47,491.2a5,5,0,1,1-6.95,1A4.93,4.93,0,0,1,146.47,491.2Zm-5,6.71a3.44,3.44,0,0,0,4.81-.69,3.48,3.48,0,0,0-.65-4.85,3.54,3.54,0,0,0-4.88.69A3.49,3.49,0,0,0,141.44,497.91Z"/><path class="cls-1" d="M101.84,459.12a.91.91,0,0,1,0-1.34.94.94,0,0,1,1.37-.1c1.43,1.24,2.86,2.54,4.3,3.84,2.29,2.08,4.52,4.16,6.56,6.07,1.73,1.62,2.17,3.7.58,5.45l-1.24,1.37c-3.09,3.41-8.7,9.47-11.34,12.19,3.43-.84,4.08-.72,4.46-.38a1.1,1.1,0,0,1,.14,1.52,1,1,0,0,1-.69.31,40.31,40.31,0,0,0-14.83,4.84,1.06,1.06,0,0,1-1.25-.15,1.13,1.13,0,0,1-.23-1.61c.57-.63,4.06-2.05,7.33-3.1a4.56,4.56,0,0,1-.95-.68c-1.11-1-2.38-2.11-3.66-3.26a43.55,43.55,0,0,0-6.67,3.52,1.11,1.11,0,0,1-1.43,0,1.23,1.23,0,0,1-.18-1.72c.4-.45,4.37-2.2,6.75-3.17-1.78-1.61-3.63-3.29-5.32-4.88a.86.86,0,0,1,0-1.24.89.89,0,0,1,1.3-.1c1.76,1.65,3.64,3.35,5.46,5l4.38-4.84L92,472.45a.84.84,0,0,1-.06-1.21.85.85,0,0,1,1.25-.1l4.62,4.19,4-4.43-4.62-4.19a.86.86,0,0,1,1.15-1.27l4.62,4.19,4.77-5.26c-1.85-1.67-3.85-3.43-5.89-5.22Zm-8,23.77L97,485.72a2.09,2.09,0,0,0,3.19-.13c.64-.64,1.65-1.75,2.92-3.09l-4.87-4.42Zm12.48,21.18a.91.91,0,0,1,.1,1.36,1,1,0,0,1-1.39.07l-6.47-5.86a.93.93,0,0,1-.1-1.36,1,1,0,0,1,1.4-.07Zm-6.94-27.3,4.91,4.45c1.33-1.41,2.71-2.93,4-4.4l-4.94-4.48Zm12.07,23.88a1,1,0,0,1,.14,1.46,1,1,0,0,1-1.49,0l-9-8.14a1,1,0,1,1,1.36-1.5Zm-6.9-29.58,4.94,4.47c1.29-1.43,2.36-2.67,3-3.49,1.58-1.88.47-2.89-3.23-6.24Zm9.53,24.31a.91.91,0,0,1,.1,1.36,1,1,0,0,1-1.39.07L106.36,491a.93.93,0,0,1-.1-1.36.94.94,0,0,1,1.4-.07Zm3.76-4.14a.9.9,0,0,1,.12,1.33.94.94,0,0,1-1.39.07l-6.47-5.86a.95.95,0,1,1,1.27-1.41Zm5.32-16.06c.7.57,1.43,1.17,2.17,1.84s1.34,1.27,1.94,1.88a2.77,2.77,0,0,1,.2,4c-.6.73-1.18,1.36-1.76,2-.78.86-1.53,1.69-2.28,2.46a2.73,2.73,0,0,1-3.94.25c-.7-.57-1.4-1.15-2-1.72s-1.53-1.45-2.27-2.17a2.94,2.94,0,0,1-.53-4c.64-.76,1.39-1.59,2.11-2.38s1.41-1.56,2.08-2.24C120,474,121.59,473.89,123.2,475.18Zm.83,8.69c.66-.73,1.27-1.46,1.73-2,.92-1.08.06-1.92-1.73-3.54-2.45-2.22-3.1-2.4-4-1.51-.46.45-1.1,1.15-1.73,1.85s-1.27,1.41-1.68,1.91c-.92,1.08-.55,1.64,1.84,3.81,2,1.85,2.7,2.39,3.8,1.3C122.7,485.28,123.39,484.57,124,483.87Z"/><path class="cls-1" d="M54.67,441.73a17.43,17.43,0,0,0,.58,5.3.89.89,0,0,1-.19,1.08,1.09,1.09,0,0,1-1.44-.29c-.82-1-1.16-5.49-1.14-5.89A1.27,1.27,0,0,1,53,441a1.15,1.15,0,0,1,1.55.09A.66.66,0,0,1,54.67,441.73Zm5.06.72a19.27,19.27,0,0,0,.37,5.24.92.92,0,0,1-.24,1,1,1,0,0,1-1.41-.25c-.64-.81-1-4.84-.9-5.92a1.42,1.42,0,0,1,.47-.87,1.14,1.14,0,0,1,1.55.09A.83.83,0,0,1,59.73,442.45Zm7.86-8.3c-1.54,2.48-2,7.3-.78,10.87a.89.89,0,0,1-.3,1,1,1,0,0,1-1.48-.21c-1.44-1.82-1.78-11.2.69-13.14a1.33,1.33,0,0,1,1.88.1A1.13,1.13,0,0,1,67.59,434.15ZM71.34,455a5,5,0,0,1-.8-.8c-2.56-3.24.94-6.16,2.59-7.47,4.56-3.6,11.36-7.82,15.38-2.73,1.33,1.69,2.08,4.22,1.13,5a1.31,1.31,0,0,1-1.75-.2,1.29,1.29,0,0,1-.22-.49,6.43,6.43,0,0,0-1.13-2.83c-2.67-3.37-8.06,0-12.44,3.48-1.89,1.49-2.85,2.84-1.67,4.33a4.19,4.19,0,0,0,.88.84c.25.18.59.46,1,.78,7-1.35,15.84-2.21,21.24-2.86a1.47,1.47,0,0,1,1.4.59,1.09,1.09,0,0,1-.06,1.58,1.52,1.52,0,0,1-.86.3,162.58,162.58,0,0,0-19.6,2.11c3.56,2.84,4.45,3.55,5.33,4.67a1.15,1.15,0,0,1-.17,1.72,1.08,1.08,0,0,1-1.57-.18l0-.07-.19-.24A35,35,0,0,0,74,457.22c-4.37,1-5.47,1.54-7.31,2.61a1.1,1.1,0,0,1-1.47-.33,1.2,1.2,0,0,1,.11-1.67c1.62-1.28,5.65-2.21,6.53-2.42Z"/><path class="cls-1" d="M51.3,412.33,59.41,427a1.29,1.29,0,1,1-2.26,1.24l-8-14.72L41,398.78a1.29,1.29,0,1,1,2.26-1.25Z"/><path class="cls-1" d="M25.64,372a46.7,46.7,0,0,0,3-17.2,1.15,1.15,0,0,1,.76-1.22,1.35,1.35,0,0,1,1.67.88c.25.73-.15,9.15-4.06,18.61l5.7-2.07h0a1.08,1.08,0,0,1,1.4.74,1,1,0,0,1-.61,1.4h0L27.79,375c9.4,4.93,14.88,11.4,15.07,12a1.12,1.12,0,0,1-.67,1.47,1.29,1.29,0,0,1-1.37-.53,43,43,0,0,0-13.53-11.19l4.84,13.43a1,1,0,0,1-.61,1.26.94.94,0,0,1-1.25-.61l-3-8.88-.06.07a27.13,27.13,0,0,0-2.66,4.28.88.88,0,0,1-.48.44,1.14,1.14,0,0,1-1.29-.82,1.16,1.16,0,0,1-.05-.53c.06-.25,2-4.7,3.07-5.07a1.27,1.27,0,0,1,.94.08l-1.53-4.52-6.55,2.36c1.57,3.6,3,7.24,4,10.13.43,1.26.69,2-.33,2.34A1,1,0,0,1,21.1,390v0c-.28-.81-.54-1.68-.82-2.49a105.38,105.38,0,0,0-8.75-19.17,1.23,1.23,0,0,1-.15-.31,1,1,0,0,1,1.81-.95c1.35,2.31,3,5.65,4.6,9.19L24.55,374l-1.35-3.76a41.37,41.37,0,0,0-6.21-1,.91.91,0,0,1-.87-.65,1.37,1.37,0,0,1,.63-1.72,30.81,30.81,0,0,1,5.7,1.2l-3.29-9.23a1,1,0,0,1,.61-1.26.94.94,0,0,1,1.25.61Zm20.91-12.54c.87,2.25,1.69,4.61,2.51,7s1.6,4.63,2.3,6.89c.8,2.59-.1,4.45-2.1,5.24-.8.32-1.69.63-2.63.95-1.46.51-3,1-4.25,1.39a4,4,0,0,1-4.86-2.73c-.65-1.73-1.53-4.15-2.39-6.63s-1.75-5.17-2.45-7.3c-.87-2.65.43-4.42,1.94-5,1.15-.49,2.6-1,4.06-1.55,1-.35,2-.66,3-.93A4,4,0,0,1,46.55,359.46Zm-8.54.69c-2.56.89-4.27,1.48-3.45,4.11.44,1.4,1.1,3.44,1.84,5.55l4.43-1.53Zm-.92,11.65c.7,2,1.42,4,1.93,5.3,1,2.53,2.83,1.88,5.23,1l-2.73-7.88Zm5.36-4.09L47,366.12c-.69-2-1.41-3.93-2-5.5-1-2.57-2.36-2.09-5.41-1Zm.69,2,2.74,7.88c3.08-1.07,4.42-1.53,3.62-4.12-.47-1.48-1.08-3.36-1.77-5.35Z"/><path class="cls-1" d="M38.11,338.9a27.35,27.35,0,0,1-7.79,2.44c-7.3,1.22-14.79.21-18.57.54a1.11,1.11,0,0,1-1.29-.92,1.23,1.23,0,0,1,.89-1.45,2.25,2.25,0,0,1,.26,0c4.34.1,12.2.74,17.42-.13.13,0,2.92-.54,2.85-.92,0-.13-.21-.22-.62-.33-1.28-.35-4.06-1.32-4.85-1.63a1,1,0,0,1-.69-.75,1.09,1.09,0,0,1,.8-1.23,1,1,0,0,1,.48.05c2.56,1,6.93,2.59,9.73,2.12.17,0,.33-.1.55-.14l.17,0c.55-.1,1.42-.07,1.59.91A1.45,1.45,0,0,1,38.11,338.9ZM15.33,324.24a26.41,26.41,0,0,1,.34,5.91,1.16,1.16,0,0,1-.94,1.16,1.19,1.19,0,0,1-1.34-.95,1,1,0,0,1,0-.31,23.25,23.25,0,0,0-.33-4.87A39.43,39.43,0,0,0,11.78,320c0-.08,0-.17,0-.21a1.11,1.11,0,0,1,.9-1.37C13.37,318.29,14.31,318.17,15.33,324.24ZM33.17,316c1.29,7.67-2.22,13.27-3.66,13.52a1.18,1.18,0,0,1-1.3-1,1.49,1.49,0,0,1,.37-1.15c2.25-2.69,2.81-6.36,2.13-10.43a27,27,0,0,0-.91-3.59c0-.13-.08-.21-.09-.29a1.16,1.16,0,0,1,1-1.43C31.62,311.43,32.46,311.73,33.17,316Z"/><path class="cls-1" d="M9.86,295c0,1.93-.69,2.42-1.29,2.43a1,1,0,0,1-1.1-1.06,1.55,1.55,0,0,1,.08-.6,3,3,0,0,0,.15-1.08c0-1.29-.42-2.49-2.34-6.67a22.86,22.86,0,0,0-4.31-.36,1.08,1.08,0,0,1-1-1.15,1.14,1.14,0,0,1,1.27-1.22,15.38,15.38,0,0,1,3,.34,11.58,11.58,0,0,0-1-1.49,1.12,1.12,0,0,1-.27-.73,1,1,0,0,1,.93-1c1,0,1.92,1.56,2.94,3.74,5.5,2.06,11.4,5.4,16.57,8.33a1.62,1.62,0,0,1,.88,1.4,1,1,0,0,1-.93,1.09,1.61,1.61,0,0,1-1-.33,84.52,84.52,0,0,0-14.54-7.89C8.8,290.84,9.83,293,9.86,295Zm20.07-16.42c2.64.52,5,3.67,5.11,7.19s-2.17,6.36-4.41,6.39c-2.67.05-4.19-3.58-4.25-7.28a19.13,19.13,0,0,1,.41-4.14c-1,.06-2.06.25-3.18.4-.86.1-1.67.2-2.4.21-3.74.06-6-1.36-8.83-5.83-.4-.64-.7-1-.88-1-.43,0-.49,1.73-.48,1.9a21.11,21.11,0,0,0,.62,3.77,2,2,0,0,0,0,.26,1,1,0,0,1-.93,1c-.48,0-1-.33-1.14-1.14a21.53,21.53,0,0,1-.45-3.78C9.1,272.13,11,269.9,12,269.89c.6,0,1,.45,1.05,1.27,0,.08,0,.17,0,.26v.25a6.64,6.64,0,0,0,.95,3c2,3.28,3.69,4.71,7,4.66a13.65,13.65,0,0,0,2.53-.26c1.08-.19,2.49-.42,3.82-.53.49-1.51,2.56-6.84,4.41-6.87a1.25,1.25,0,0,1,1.31,1.14,1.36,1.36,0,0,1-.42.91,16.76,16.76,0,0,0-3.06,4.87A1,1,0,0,1,29.93,278.62Zm-1.69,6.7c0,2.62,1.11,4.76,2.35,4.74,1,0,2.38-1.81,2.35-4.17s-1.63-4.79-3.7-5.06c-.13,0-.26,0-.39,0A17.85,17.85,0,0,0,28.24,285.32Z"/><path class="cls-1" d="M28.29,232.28c-2.92-.49-5.6,1.68-6.27,5.71a14.6,14.6,0,0,0,4.07,12.19,1.36,1.36,0,0,1,.4,1.24A1.32,1.32,0,0,1,25,252.57a1.67,1.67,0,0,1-1.13-.84,145.61,145.61,0,0,0-13.3-16.17c-.08,0-.09,0-.11.11a1.79,1.79,0,0,0,.07.62c.45,1.78,1.59,9,1.32,10.65a1.16,1.16,0,0,1-1.35,1,1.19,1.19,0,0,1-1-1.26,50.45,50.45,0,0,0-.91-10.52,6.29,6.29,0,0,1-.23-2.27,1.66,1.66,0,0,1,1.91-1.51,2,2,0,0,1,1.34.84c2.5,3.29,6.66,8.17,9.63,12.07a14.4,14.4,0,0,1-1.12-8.21c.9-5.35,4.64-8,8.42-7.32,4.37.73,9.68,5.76,8.28,14.12-.88,5.26-3.72,7.18-6,6.8-1.66-.27-2.92-1.84-2.51-4.3.53-3.18,2.93-5.3,6.64-5C34.81,235.54,30.84,232.7,28.29,232.28Zm2,14.28c-.21,1.23.37,1.94,1.18,2.07,1.19.2,2.91-.95,3.6-5.11C31.83,243.2,30.57,244.78,30.27,246.56Z"/><path class="cls-1" d="M50.09,194.58c0,.08-.05.16-.08.25-3.93,9.1-11.65,11.71-17.55,9.67-4.79-1.66-7.06-6.41-7.34-7.19-.09-.26-.21-.44-.29-.46s-.1,0-.14.13a1.56,1.56,0,0,0,0,.49c0,.33,1,9.91.41,11.7a1.32,1.32,0,0,1-1.67,1,1.51,1.51,0,0,1-.9-1.62c.37-4.61.13-13,0-15.56a32.22,32.22,0,0,1,1.22-11.55c.42-1.21,1.26-1.52,1.91-1.29.89.31,1,1.22.68,2.24l-.16.44a10.12,10.12,0,0,0-.4,1c-2.23,6.42.23,16,7.14,18.41,5.45,1.88,12-1.42,14.45-8.61.43-1.26,1.34-1.63,2-1.4S50.5,193.4,50.09,194.58ZM35,180.35a20.44,20.44,0,0,0-4.39,3.21,1,1,0,0,1-1,.38,1.1,1.1,0,0,1-.51-1.4c.24-.69,4.09-4.59,5.56-4.09a1.21,1.21,0,0,1,.82,1.43A.77.77,0,0,1,35,180.35Zm1.79,4.94a18.67,18.67,0,0,0-4.41,3,.93.93,0,0,1-1,.35,1.06,1.06,0,0,1-.49-1.36c.27-.77,4.22-4.45,5.61-4a1.26,1.26,0,0,1,.81,1.46A.87.87,0,0,1,36.79,185.29Z"/><path class="cls-1" d="M64.53,164.94c-3.43,6.26-7.28,5.14-11.16,3-2.9-1.59-5.93-3.5-9-5.38-2-1.17-4-2.37-5.77-3.36a37.92,37.92,0,0,0-4.09-2l-.23-.12a1.2,1.2,0,0,1-.52-1.66c.75-1.35,2-.69,5.46,1.23,1.92,1.05,4,2.28,6,3.59C48,162,51,164,53.87,165.52c3.2,1.76,5.88,3.13,8.4-1.47a31.8,31.8,0,0,0,3.26-10.86,2,2,0,0,1,.22-.77,1.19,1.19,0,0,1,1.69-.49,1.65,1.65,0,0,1,.74,1.78A36.8,36.8,0,0,1,64.53,164.94Z"/><path class="cls-1" d="M85.64,133c-1.38,1.76-4.84,2.81-6.56,1.45s-.78-3.74.52-5.39a12.19,12.19,0,0,1,2.94-2.61c-.68-.6-1.39-1.16-2-1.64-4.21-3.26-7.09-5.31-10.83-7.72l-.14-.1a1.05,1.05,0,0,1-.15-1.55,1.15,1.15,0,0,1,1.62-.25l4.18,3a9.11,9.11,0,0,0,1.59-3.68,1.35,1.35,0,0,1,.27-.77,1.19,1.19,0,0,1,1.63-.25c1.28,1-1,4.86-1.82,5.91,1.58,1.13,3.22,2.37,4.91,3.7a30.27,30.27,0,0,1,2.72,2.25c1.48-.69,4.58-1.92,5.59-1.12a1.2,1.2,0,0,1-.72,2.17,12.64,12.64,0,0,0-3.44.68A5.4,5.4,0,0,1,85.64,133Zm-1.73-5.09a8.61,8.61,0,0,0-2.8,2.23c-.85,1.08-1.24,2.25-.63,2.73a3.06,3.06,0,0,0,3.47-1,3.19,3.19,0,0,0,.06-3.83Z"/><path class="cls-1" d="M98.6,75.28c-.79.72-7,5.53-8.53,3.91a1.07,1.07,0,0,1,.08-1.52,1.41,1.41,0,0,1,.62-.34,15.44,15.44,0,0,0,5.49-3.23c.22-.21.45-.47.67-.67a1.24,1.24,0,0,1,1.92-.12A1.35,1.35,0,0,1,98.6,75.28Zm13.09,29.64a1.11,1.11,0,0,1-.18-1.28c3.68-8.23,2.14-14.09-1.24-17.81-1.7-1.88-6.22-5.51-8.89-3.08a8.08,8.08,0,0,0-2,3.68c-.79,2.51-1.3,3.62-1.87,4.14a1.36,1.36,0,0,1-2,0,1.47,1.47,0,0,1,.13-2,10.57,10.57,0,0,0,1.61-3.09A11.09,11.09,0,0,1,100,81.1c4.68-4.25,10.79,1.59,12.09,3,7.6,8.37,2.18,20.26,1.48,20.9A1.32,1.32,0,0,1,111.69,104.92Z"/><path class="cls-1" d="M135.5,57.07a5.54,5.54,0,0,1,.87-.71c3.47-2.23,6,1.54,7.18,3.31,3.14,4.89,6.67,12.07,1.21,15.58-1.7,1.09-4.36,1.72-5.06.64a1.24,1.24,0,0,1,.34-1.7,1.07,1.07,0,0,1,.51-.17,6.36,6.36,0,0,0,2.92-.86c2-1.28,3.14-4.42-2.2-12.74-1.3-2-2.59-3.09-4.18-2.07a4.38,4.38,0,0,0-.92.8q-.31.35-.84.84c.66,7.09.61,16,.73,21.45a1.48,1.48,0,0,1-.73,1.34,1.09,1.09,0,0,1-1.57-.22,1.49,1.49,0,0,1-.21-.89,160.08,160.08,0,0,0-.14-19.73,39.55,39.55,0,0,1-5.17,4.85,1.17,1.17,0,0,1-1.7-.34,1.09,1.09,0,0,1,.34-1.55l.07,0,.26-.17A50.92,50.92,0,0,0,133,59.55,23.06,23.06,0,0,0,131.09,52a1.08,1.08,0,0,1,.47-1.42,1.22,1.22,0,0,1,1.69.24c.46.73,1.24,2.73,1.73,6.76Zm21.06-1.66c-2.32-1.78-7.06-2.72-10.74-1.84a.82.82,0,0,1-.91-.39,1.05,1.05,0,0,1,.32-1.48c1.81-1.16,11.28-.75,13,2a1.36,1.36,0,0,1-.32,1.89A1.16,1.16,0,0,1,156.56,55.41Z"/><path class="cls-1" d="M173.73,63.21a5,5,0,0,1-3.89-9.13,5,5,0,1,1,3.89,9.13Zm-3.29-7.71A3.45,3.45,0,0,0,168.63,60a3.49,3.49,0,0,0,4.53,1.86,3.46,3.46,0,1,0-2.72-6.37Z"/><path class="cls-1" d="M192.6,54.82a5,5,0,0,1-3.11-9.43,5,5,0,1,1,3.11,9.43Zm-2.63-8a3.46,3.46,0,0,0,2.17,6.57,3.52,3.52,0,0,0,2.22-4.4A3.49,3.49,0,0,0,190,46.86Z"/></g></g></svg>