<svg xmlns="http://www.w3.org/2000/svg" viewBox="0 0 335 335"><defs><style>.cls-1{fill:#f7f8f8;stroke:#d94423;stroke-miterlimit:10;stroke-width:5px;}.cls-2{fill:#d94423;}</style></defs><g id="レイヤー_2" data-name="レイヤー 2"><g id="レイヤー_1-2" data-name="レイヤー 1"><circle class="cls-1" cx="167.5" cy="167.5" r="165"/><path class="cls-2" d="M252.13,193.1v17.8c2.13.19,4.32.4,6.52.57,5.56.44,7.84,2.78,7.94,8.44.09,5.29.09,10.6,0,15.89-.1,5.79-2.66,8.35-8.41,8.58-1.9.08-3.8,0-6.06,0V264c4.31,0,8.47,0,12.64.06a26,26,0,0,1,4.76.17c1.81.36,2.44,1.81,2.38,3.61s-.68,3.1-2.7,3.24c-.88.06-1.76.11-2.64.11-11.67,0-23.33,0-35,0-7,0-9.26-2.22-9.27-9.15q-.06-33.65,0-67.3c0-6.4,2.63-9,9-9.08,11.14-.08,22.27,0,33.4,0a16.63,16.63,0,0,1,2.12.06c2.1.3,3,1.58,3,3.66s-.95,3.34-3.15,3.36c-2.82,0-5.65,0-8.48.07C256.25,192.8,254.36,193,252.13,193.1Zm-22.35,44.11c8.92,0,17.18.06,25.43,0,2.78,0,4.07-1.85,4.13-4.52.06-2.82.12-5.64,0-8.46-.15-4.62-1-5.41-5.76-5.46-6.7-.07-13.41,0-20.11,0a26.47,26.47,0,0,0-3.71.55Zm-.24,7.46c0,5.56,0,10.47,0,15.37,0,2.51,1.33,3.94,3.92,3.95,3.67,0,7.34,0,11.28,0V244.67Zm15.21-33.6V192.86c-4.1,0-7.77-.12-11.43,0a3.56,3.56,0,0,0-3.73,3.7c-.07,4.7,0,9.41,0,14.47Z"/><path class="cls-2" d="M231,98.33c1.1,3.06,2,5.16,2.61,7.33.86,2.91.18,4.54-1.93,5.21s-3.76-.1-4.87-2.71c-1-2.24-1.81-4.53-2.65-6.67-5,.29-16.6,4.43-22.3,8,.65,1.67,1.28,3.45,2,5.19q8.19,19.82,16.38,39.62c.47,1.14.91,2.3,1.3,3.47.78,2.33-.47,3.79-2.36,4.68a3.4,3.4,0,0,1-4.88-1.73c-.62-1.25-1-2.64-1.51-3.95q-8.07-19.86-16.18-39.7c-.65-1.6-1.58-3.08-2.54-4.93-4.31,1.87-8.3,3.68-12.37,5.32-1.24.5-3,1.07-4,.56a5.54,5.54,0,0,1-2.6-3.59,4.13,4.13,0,0,1,1.79-3.36,83.78,83.78,0,0,1,8.17-3.73c1.88-.85,3.74-1.74,6-2.78-2.61-5.37-5-10.27-7.36-15.16-.53-1.11-1.19-2.18-1.62-3.33-.92-2.46-.2-4.37,1.85-5.29,2.31-1,4.77-.42,5.85,1.85,2.2,4.62,4.16,9.35,6.25,14,.71,1.57,1.52,3.09,2.45,5l22.65-8.5c-2-4.31-3.93-8.19-5.49-12.22-.49-1.24-.42-3.37.35-4.25a5,5,0,0,1,4.21-1.06c1.06.26,2,1.83,2.58,3,1.83,4,3.46,8.06,5.23,12.25,4.1-.68,7.89-1.29,11.66-2A20.3,20.3,0,0,1,263.19,104c2.47,10.73-3.62,21.27-14.33,25.29-6.33,2.39-12.84,2-19.36,1.52a46.52,46.52,0,0,1-5.23-.8c-2.56-.5-3.74-2.06-3.43-4.38s1.75-3.26,4.55-3.12c5.09.26,10.21.7,15.29.46a20.18,20.18,0,0,0,8-2.45,13,13,0,0,0,6.61-15.28c-1.45-5.31-6.76-9.11-13-8.79C238.79,96.59,235.37,97.56,231,98.33Z"/><path class="cls-2" d="M84.67,84.89c-3.55,0-6.51-.06-9.46,0-1.94,0-3.87.47-5.8.46-2.93,0-4.34-1.46-4.31-4.13,0-2.46,1.19-3.7,4-3.8,4.59-.17,9.19-.31,13.78-.17,3.06.09,4.49-1.16,5-4.09.83-4.69,1.81-9.35,2.85-14,.8-3.57,2.52-4.75,5.48-4,2.63.65,3.61,2.43,2.86,5.81s-1.82,6.82-2.68,10.24c-.41,1.67-.65,3.39-1.08,5.66,4.17,0,7.83-.15,11.47,0,7.19.37,9.9,2.35,11.37,9.4a105.2,105.2,0,0,1,.75,38.43,12.07,12.07,0,0,1-7.88,9.93,110.23,110.23,0,0,1-14.74,4c-2.79.57-4.22-.74-4.54-3.13-.34-2.61.91-3.91,3.45-4.34s4.83-1,7.22-1.56c5.22-1.22,8.26-4.45,9-9.8a93.7,93.7,0,0,0-.44-29c-.84-4.86-2.71-6.22-7.57-6.38-2.65-.08-5.3,0-8,0a16.07,16.07,0,0,0-2.49.48L89.57,97q-5.22,18.59-10.46,37.17a34.92,34.92,0,0,1-1.34,4A3.51,3.51,0,0,1,73,140.34c-2.2-.72-3.7-2.19-3.23-4.74a37.39,37.39,0,0,1,1.27-4q6.56-21.51,13.06-43A29.33,29.33,0,0,0,84.67,84.89Z"/><path class="cls-2" d="M199.14,247.82c-3.39-2.51-6.61-4.92-9.85-7.31-6.15-4.51-6.77-6-4.82-13.43,1.47-5.61,3.23-11.14,5.07-17.39-2.3-.11-4.14-.26-6-.27-2.35,0-3.63-1-3.64-3.46s1.06-3.57,3.53-3.49,4.89,0,7.88,0c.94-4.43,1.8-8.52,2.67-12.6.32-1.55.28-3.33,1.06-4.6a5.25,5.25,0,0,1,3.51-2.37,2.67,2.67,0,0,1,2.62,3.29c-.47,3.32-1.15,6.6-1.75,9.89-.35,1.88-.72,3.74-1.23,6.38,3.14,0,5.74,0,8.34,0,5.29.09,8.07,2.37,8,7.62a107.19,107.19,0,0,1-1.68,17.33c-1,5.34-2.86,10.52-4.32,15.78-.18.67-.22,1.36-.39,2.43,2.09,1.5,4.21,3,6.32,4.56,1,.73,2.45,1.35,2.78,2.33a6.41,6.41,0,0,1-.21,4.34c-.76,1.65-2.52,1.87-4.08.84-2.63-1.74-5.17-3.6-8.06-5.64-1.87,2.79-3.41,5.32-5.19,7.67-2.46,3.22-5,6.35-7.7,9.41a10.22,10.22,0,0,1-3.36,2.5,3.1,3.1,0,0,1-4.43-1.6,4.44,4.44,0,0,1,.63-3.69c1.36-1.81,3.26-3.21,4.84-4.87A48,48,0,0,0,199.14,247.82Zm-2.94-38.39c-2,7-4.09,13.5-5.74,20.14a5.64,5.64,0,0,0,1.26,4.74c3,2.61,6.45,4.68,10.37,7.42,1.27-3.59,2.56-6.3,3.17-9.15,1.26-5.86,2.37-11.76,3.12-17.69.53-4.21-.76-5.33-5-5.45C201.11,209.37,198.85,209.43,196.2,209.43Z"/><path class="cls-2" d="M132.56,250.12a50,50,0,0,1-4.38-3.23c-5.69-5.3-11.16-10.82-17-16-7.52-6.68-15.29-13.08-22.95-19.6-1.08-.92-2.18-1.8-3.24-2.73-4.69-4.12-4.85-5.63-.61-10.43,2.45-2.77,5.13-5.35,7.8-7.93q14.45-14,29-27.94c.76-.73,1.45-1.55,2.27-2.21a4.59,4.59,0,0,1,6.59.37c1.68,1.89,1.54,3.78-.74,6-2.93,2.81-6,5.43-9,8.22q-12.14,11.43-24.2,23a31.25,31.25,0,0,0-2.74,3.22,2.91,2.91,0,0,0,.24,4.27q2.63,2.63,5.41,5.06,16.8,14.58,33.64,29.12c1.07.93,2.11,1.88,3.12,2.87,1.24,1.21,2,2.74.86,4.24A31.12,31.12,0,0,1,132.56,250.12Z"/><path class="cls-2" d="M152.13,106.91a18.85,18.85,0,0,1-3.52,3.12,3.11,3.11,0,0,1-4.48-1.46c-.64-1.24-1-2.62-1.53-3.92-3-7.5-5.45-15.26-11-21.44-1.36-1.5-1.67-3.09.1-4.56s3.56-1.71,5.14.07A33.32,33.32,0,0,1,141.63,85c3.35,6.37,6.38,12.91,9.53,19.39C151.46,105,151.65,105.64,152.13,106.91Z"/><path class="cls-2" d="M159.39,174.17c.1,1.62-2.08,3.1-3.29,2a85.09,85.09,0,0,1-7.2-7.62c-.32-.37,0-1.77.53-2.26s1.92-.86,2.24-.56c2.63,2.54,5.11,5.25,7.62,7.92C159.39,173.77,159.36,174,159.39,174.17Z"/><path class="cls-2" d="M149,184.07c-.65-.28-1.24-.36-1.56-.7a86.33,86.33,0,0,1-6.36-6.9c-.49-.62.17-2.14.31-3.24.95.12,2.23-.11,2.81.42a62.88,62.88,0,0,1,6.13,6.41c.5.61.39,1.92.19,2.82C150.42,183.37,149.53,183.69,149,184.07Z"/></g></g></svg>