<svg xmlns="http://www.w3.org/2000/svg" viewBox="0 0 559.44 557.71"><defs><style>.cls-1{fill:#d94423;}</style></defs><g id="レイヤー_2" data-name="レイヤー 2"><g id="レイヤー_1-2" data-name="レイヤー 1"><path class="cls-1" d="M212.79,38.67l-4.6-21.24-1.59.37a31.34,31.34,0,0,1-2.43,5.67,1.18,1.18,0,0,1-.78.65,1,1,0,0,1-1.18-.7,1,1,0,0,1,.13-.77,34.77,34.77,0,0,0,4.14-13.72.92.92,0,0,1,.73-.87,1.14,1.14,0,0,1,1.38.69,39.29,39.29,0,0,1-1.4,7.08l6.58-1.57a.91.91,0,0,1,.41,1.77l-4.07.95,4.75,21.21a1.08,1.08,0,0,1-2.06.52ZM230,30.91l0,.11c.53,2.26,0,4.42-4.24,5.4-3.66.85-4.06.32-4.23-.38a.94.94,0,0,1,.63-1.16l.15,0a19.84,19.84,0,0,0,3.1-.41c1.93-.45,2.9-1.3,2.43-3.3-.62-2.66-3-13.18-4-17.36L218.77,15a32.44,32.44,0,0,1-2.13,5.61,1.2,1.2,0,0,1-.8.73.94.94,0,0,1-1.14-.71,1,1,0,0,1,.1-.72,33,33,0,0,0,3.42-13.64.91.91,0,0,1,.76-.91,1.08,1.08,0,0,1,1.34.74,43.61,43.61,0,0,1-1.07,7l11.8-2.79a.91.91,0,0,1,.41,1.78l-5.62,1.31c.77,3.29,2.76,11.84,3.21,13.6Z"/><path class="cls-1" d="M254.77,10.8a4.57,4.57,0,0,1,1-.19c3.63-.3,4.07,3.71,4.22,5.56.41,5.12.18,12.19-5.54,12.65-1.78.14-4.11-.47-4.2-1.61a1.09,1.09,0,0,1,1-1.18,1,1,0,0,1,.46.08,5.7,5.7,0,0,0,2.64.55c2.08-.17,4.28-2.14,3.58-10.85-.17-2.12-.74-3.49-2.4-3.35a3.77,3.77,0,0,0-1,.23,10.37,10.37,0,0,1-1,.31c-2.43,5.8-6.18,12.74-8.35,17a1.32,1.32,0,0,1-1.12.74,1,1,0,0,1-1.14-.83,1.29,1.29,0,0,1,.21-.77,144.63,144.63,0,0,0,8.09-15.45,34.44,34.44,0,0,1-6,1.63,1,1,0,0,1-1.19-1,1,1,0,0,1,.91-1.06h.07l.27,0a44.36,44.36,0,0,0,6.65-1.6A20.24,20.24,0,0,0,253.43,5a1,1,0,0,1,1-.92A1.07,1.07,0,0,1,255.6,5c.06.76-.17,2.65-1.46,6Zm17.11,7.46c-1.07-2.35-4.37-5.06-7.6-5.9a.73.73,0,0,1-.55-.68.92.92,0,0,1,.87-1c1.89-.16,9.09,4.1,9.32,6.94a1.19,1.19,0,0,1-1,1.34A1,1,0,0,1,271.88,18.26Z"/><path class="cls-1" d="M289.09,10.57c0-.15,0-.27,0-.42l0-.34c.13-2.05,1.16-3.16,3.57-4.6.79-.44,1.62-.81,2.25-1.15s.79-.48.8-.67c.05-.64-1.91-1.53-2.14-1.62-.55-.23-.76-.59-.73-.93A1,1,0,0,1,294,0c.88.06,5.43,2.68,5.3,4.62-.07,1-1.09,1-1.32.94-2.88-.19-6.9,1.87-7.07,4.45,0,.22,0,.42,0,.64s0,.34,0,.53a12.77,12.77,0,0,1-.22,1.7c-.17.83-.5,1.72-.66,2.4a20.13,20.13,0,0,0-.55,3.27c0,.19-.12,2.4.71,2.45a2.24,2.24,0,0,0,.86-.33c.79-.4,2.74-1.76,4.48-2.63a11.54,11.54,0,0,1,5.89-1.6c3.07.2,5.68,2.32,5.48,5.35-.15,2.2-1.77,4.8-5.88,7.12-3.16,1.81-8.68,2.36-9.86,2.28-.91-.06-1.22-.5-1.19-1a1.14,1.14,0,0,1,1.1-1c8.65-.08,13.55-4.63,13.74-7.55.13-1.94-1.69-3.28-3.66-3.4-3-.2-8.41,3.48-10,5.2a2.1,2.1,0,0,1-1.54.85c-.53,0-2.41-1.07-2.11-5.58.09-1.48.12-1.86,1.16-5.48A15.48,15.48,0,0,0,289.09,10.57Z"/><path class="cls-1" d="M316.52,32.09a.88.88,0,0,1-.73-1.09.94.94,0,0,1,1.13-.73l13.88,3.06L332.6,25l-8.29-1.76a.88.88,0,0,1-.66-1.08.9.9,0,0,1,1.06-.74L333,23.26l1.6-7.35-8.11-1.72a43.14,43.14,0,0,1-5.81,5.66,1.35,1.35,0,0,1-1.13.34,1,1,0,0,1-.79-1.19,1.26,1.26,0,0,1,.45-.64A36.6,36.6,0,0,0,329,7a1,1,0,0,1,1.16-.53,1.1,1.1,0,0,1,.94,1.22,34.18,34.18,0,0,1-3.31,4.88L335,14.2l1.68-7.76a1,1,0,1,1,2.05.44L337,14.64l11.3,2.41a.92.92,0,1,1-.39,1.79l-11.28-2.49L335,23.7l8.73,1.86a.87.87,0,0,1,.7,1.08.88.88,0,0,1-1.09.74l-8.72-1.93-1.81,8.32,13.72,2.93a.89.89,0,0,1,.68,1.13.87.87,0,0,1-1.08.69Z"/><path class="cls-1" d="M370.66,43.8a6.37,6.37,0,0,1-7.36,2c-2.63-1-4.68-3.72-3.87-5.86.14-.35,1.35-3.43,7.31-1.16a15.38,15.38,0,0,1,3.36,1.76c.15-.31.26-.59.38-.91.3-.78.53-1.59.79-2.5.39-1.36.84-2.86,1.32-4.34A15.78,15.78,0,0,1,369,32c-.61-.23-3.48-1.45-2.72-3.43a3.66,3.66,0,0,1,2.08-1.85c.75-.37,2.08-.76,2.81-1.09.54-.24.91-.47,1-.79.35-.92-2.48-3.83-5.62-5.1a1,1,0,0,1-.71-1.24c.18-.47.7-.76,1.48-.46,1.88.71,8.12,5.36,7.22,7.74a1.56,1.56,0,0,1-1.37.94c-.8.07-4.51,1.38-4.83,2.23-.19.5.44,1.07,1.4,1.43a12.88,12.88,0,0,0,3.38.63c.76-2.31,1.61-4.67,2.44-6.84,2.18-5.75,2.43-6.3,3.46-5.91a1.15,1.15,0,0,1,.71,1.44s0,.08,0,.11c-1,2.17-2.35,5.24-3.57,8.44-.35.92-.71,1.88-1,2.82a8.87,8.87,0,0,0,3.59-.67,1.27,1.27,0,0,1,1-.07,1,1,0,0,1,.57,1.28c-.59,1.56-5.39,1.36-5.84,1.36-.53,1.62-1,3.17-1.3,4.5-.29,1.07-.69,2.46-1.19,3.78l-.23.6c1.85,1.56,4.36,4.58,3.83,6a1.12,1.12,0,0,1-1.39.77,1.18,1.18,0,0,1-.68-.79,11.62,11.62,0,0,0-2.68-4.18A.37.37,0,0,1,370.66,43.8Zm-1.46-1.61a12.76,12.76,0,0,0-3.31-1.87c-.71-.27-4.07-1.38-4.69.25-.39,1,.58,2.66,2.6,3.43A4.36,4.36,0,0,0,369,42.48Z"/><path class="cls-1" d="M403.2,43.32a31,31,0,0,0-5.35-.17A1.34,1.34,0,0,1,397,43a1,1,0,0,1-.29-1.34,1.06,1.06,0,0,1,.94-.51c2.16,0,4.52.18,6.77.44,1.95-2.78,3.65-5.27,4.53-6.83a1,1,0,0,1,1.47-.43,1,1,0,0,1,.45,1.43c-.11.2-.88,1.42-4.45,6.3a1,1,0,0,1,.44,1.38,3.07,3.07,0,0,1-1.31,1.1c-.19.11-.75.4-1.47.83C411.43,43.1,415,43.1,417,44.22s2.2,3.29,1.14,5.17a2.85,2.85,0,0,1-.33.52c-1.46,2.05-4.45,5.12-6.54,8a10.44,10.44,0,0,0-.77,1.14c-.89,1.59-.63,2.52.83,3.33.63.36,1.68.82,5,1.18a1.44,1.44,0,0,1,.6.16,1,1,0,0,1,.36,1.38,1.28,1.28,0,0,1-1.35.63,14.35,14.35,0,0,1-5.54-1.54l-.14-.07c-1.72-1-3.5-2.76-1.74-5.9a13.55,13.55,0,0,1,.92-1.32c2.19-2.82,5.14-5.91,6.51-8,.07-.13.16-.3.24-.43.81-1.46.53-2.27-.26-2.72-1.89-1.06-7.84-.09-13.58,2.14-1.3,1.93-2.6,3.94-3.7,5.89a31.29,31.29,0,0,0-2.2,4.61c0,.07,0,.15-.07.22a1.19,1.19,0,0,1-1.61.45c-.92-.52-.56-1.49,1.19-4.61.93-1.65,2.1-3.57,3.4-5.5-2.1,1.09-5.78,3.08-7.22,4a1.91,1.91,0,0,1-1.92.23.87.87,0,0,1-.42-1.19,1.37,1.37,0,0,1,.73-.6,31.31,31.31,0,0,0,4-2.05c.65-.38,1.36-.72,2-1.07A57.7,57.7,0,0,0,402,45Z"/><path class="cls-1" d="M442.38,63.33C433.54,69,428.21,71.19,423,73.85a1.23,1.23,0,0,1-1.32-.15,1.06,1.06,0,0,1-.35-1.48,1.49,1.49,0,0,1,.55-.39,126.61,126.61,0,0,0,18.51-9.49l.12-.1A20.59,20.59,0,0,1,436.09,60c-.42-.32-2.11-1.68-1.36-2.64a1,1,0,0,1,1.48-.24,1.87,1.87,0,0,1,.43.57,2.73,2.73,0,0,0,.82,1,15.87,15.87,0,0,0,5,2.24,13.07,13.07,0,0,0,2.68-2.72,1,1,0,0,1,1.53-.11c.81.62.36,1.33,0,1.75a9.64,9.64,0,0,1-1.74,1.68,8.51,8.51,0,0,0,1.34.13,1.15,1.15,0,0,1,.74.23,1,1,0,0,1,.23,1.38c-.24.3-.88.77-4.39-.23Zm-1,24.61c-.68.87-1.64.12-2.09-.23-5.16-4-5.56-8.83-4.83-9.76a1.13,1.13,0,0,1,1.57-.22,1.06,1.06,0,0,1,.34,1c-.43,3.22,2.27,5.51,4.72,7.55A1.14,1.14,0,0,1,441.38,87.94Zm9.09-9.68a1,1,0,0,1-.31-.34,22.76,22.76,0,0,0-4.58-5.82,6.34,6.34,0,0,0-1.29-.75.64.64,0,0,1-.2-.11A.85.85,0,0,1,444,70c.32-.42,1-.73,2.81.64a23.14,23.14,0,0,1,5.15,6.2,1.06,1.06,0,0,1,0,1.22A1.09,1.09,0,0,1,450.47,78.26Z"/><path class="cls-1" d="M471.62,91.73a4.89,4.89,0,0,1,.77.63c2.52,2.64-.31,5.51-1.65,6.8-3.71,3.54-9.34,7.83-13.31,3.69-1.23-1.29-2.23-3.49-1.41-4.28a1.1,1.1,0,0,1,1.53,0,.83.83,0,0,1,.23.41,5.67,5.67,0,0,0,1.24,2.39c1.45,1.51,4.37,2,10.68-4.07,1.54-1.48,2.24-2.78,1.08-4a3.8,3.8,0,0,0-.85-.66,10,10,0,0,1-.87-.58c-6,1.78-13.78,3.25-18.48,4.28a1.32,1.32,0,0,1-1.28-.4,1,1,0,0,1-.07-1.4,1.31,1.31,0,0,1,.73-.34A142.3,142.3,0,0,0,467,90.75,34.73,34.73,0,0,1,462,87.09a1,1,0,0,1,0-1.53,1,1,0,0,1,1.39,0l.06,0,.18.19A43.82,43.82,0,0,0,469.05,90a20.51,20.51,0,0,0,6.19-2.93,1,1,0,0,1,1.31.16,1.07,1.07,0,0,1,.08,1.51c-.55.52-2.16,1.54-5.57,2.65Zm5,18c1.15-2.32,1.16-6.59-.23-9.63a.73.73,0,0,1,.18-.85.94.94,0,0,1,1.35,0c1.31,1.37,2.56,9.64.5,11.62a1.2,1.2,0,0,1-1.69,0A1,1,0,0,1,476.64,109.71Z"/><path class="cls-1" d="M483.26,137.66c2.82-4.37,4-9.1,5.42-13.71a6.07,6.07,0,0,1,2-3.4,4.89,4.89,0,0,1,3.3-.66c4,.19,8.57.58,12.66.11a1,1,0,0,1,1,.42,1.4,1.4,0,0,1-.31,1.86,1,1,0,0,1-.56.2c-4,.31-8.78-.3-12.71-.58a3.3,3.3,0,0,0-2.16.36,4.13,4.13,0,0,0-1.25,2.38c-1.51,5-2.61,10-5.19,14.16a2.08,2.08,0,0,1-.43.45,1.31,1.31,0,0,1-1.81-.31A1.08,1.08,0,0,1,483.26,137.66Zm17.25-7.14a15.72,15.72,0,0,0,.91-4.56.82.82,0,0,1,.3-.77.81.81,0,0,1,1.11.33c.49.68.23,5.24-.8,6a1.11,1.11,0,0,1-1.48-.26A.68.68,0,0,1,500.51,130.52Zm4.22,1.29a16.28,16.28,0,0,0,.74-4.67.78.78,0,0,1,.3-.77.92.92,0,0,1,1.17.34c.44.62.29,5.33-.68,6a1.12,1.12,0,0,1-1.49-.2A.7.7,0,0,1,504.73,131.81Z"/><path class="cls-1" d="M512.36,155.58c-4.06,8.06-7.32,14.06-8.88,14.85a1.22,1.22,0,0,1-1.69-.39,1.26,1.26,0,0,1,.4-1.48c1.1-1.11,3.72-4.26,8.68-14.15-4.73-2.62-6.17-4.2-6.32-4.5a1.11,1.11,0,0,1,.43-1.5c.41-.21.95-.14,1.55.45a26.09,26.09,0,0,0,5.22,3.83c1.55-3,1.85-3.58,2.87-4.09s2.1-.22,3.16,1c.41.47,1.87,2.5,2.19,2.89s.53.37.77.25c.78-.39,1.16-2.42,1-4a.85.85,0,0,1,.37-.87,1,1,0,0,1,1.26.55c.44.88,0,5.78-2.18,6.9-.81.41-1.53,0-2-.84a23.1,23.1,0,0,0-2.39-3.39c-.6-.68-1.06-.83-1.47-.62-.64.33-1.38,1.72-2,3,1.84,1,3.89,2,6,3.25,3.23,1.82,6.13,4.19,7.5,6.9,1.49,3,1,5.94-1.48,7.18-3,1.55-8.25.52-11.5-5.89-1.24-2.44-1.62-3.7-.56-4.23a1.09,1.09,0,0,1,1.48.57,2.48,2.48,0,0,1,.15.48,12.57,12.57,0,0,0,.92,2.39c2.66,5.25,6.55,5.71,8.45,4.75s1.43-3.32.81-4.54c-1.07-2.11-3.64-4.34-7-6.19-1.82-1-3.77-2-5.62-2.95Z"/><path class="cls-1" d="M519.28,186a1.2,1.2,0,0,1-1.11-.83.81.81,0,0,1,.47-1.12,1.12,1.12,0,0,1,.45-.07,75,75,0,0,0,12.1-.92l-1.12-3v0a.8.8,0,0,1,.58-1,.82.82,0,0,1,1.08.49c.36,1.08.78,2.22,1.19,3.36,2.7-.45,5.3-1,7.62-1.64a.9.9,0,0,1,1.13.63,1,1,0,0,1-.55,1.34c-.44.15-5.58,1.17-7.55,1.5l.9,2.74a2.59,2.59,0,0,1-1.78,3.67,30.13,30.13,0,0,1-11.32,1.23c-.26,1.16-1,4.16-2,4.51a1.09,1.09,0,0,1-1.39-.58,1.07,1.07,0,0,1,.12-.84,15.81,15.81,0,0,0,1.36-3.37c-6-1.12-9.66-4.53-9.94-5.4a1.07,1.07,0,0,1,.67-1.34.8.8,0,0,1,.88.23,15.21,15.21,0,0,0,8.85,4.75,20.19,20.19,0,0,0,.48-4.24Zm8,20.34-7.87,2.6c.77,2.31,1.59,4.68,2,5.87a.84.84,0,0,1-.59,1.11.85.85,0,0,1-1.15-.54c-.41-1.14-1.2-3.53-2-5.87s-1.56-4.72-1.91-5.89A3.33,3.33,0,0,1,518,199q4.95-1.76,10-3.44c3.75-1.24,7.51-2.44,11.22-3.59a3.32,3.32,0,0,1,4.52,2.31c.42,1.14,1.15,3.34,1.89,5.58s1.47,4.43,1.81,5.6a.89.89,0,0,1-1.69.56l-1.76-5.3-6.42,2.12c.23.69.39,1.31.59,1.89,1,3.34-.77,4-4.05,5.06s-5.13,1.7-6.27-1.65Zm-.63-1.79c-.65-1.95-1.3-3.94-1.88-5.79-1.93.68-3.83,1.35-5.76,2.07a1.92,1.92,0,0,0-1.35,2.69c.2.61.62,2,1.16,3.61Zm5.15-15.28c1.23-.4,1.23-1.12,1-1.84s-.56-1.58-.91-2.51c-3.28.49-6.65.84-9.83,1a25.35,25.35,0,0,1-.35,4.51A27,27,0,0,0,531.77,189.22Zm1.68,6.65c-2.36.74-4.74,1.53-7.08,2.3.49,1.48,1,3.19,1.53,4.78s1.09,3.16,1.48,4.35,1.09,1.6,2.08,1.32c.59-.16,1.56-.48,2.47-.78,2.23-.74,3.13-1,2.52-2.88Zm10,3.06-1.2-3.6a1.94,1.94,0,0,0-2.72-1.34l-4.4,1.33,1.89,5.74Z"/><path class="cls-1" d="M520.88,227.41a1,1,0,0,1,.34-.94,16.46,16.46,0,0,0,3.52-6.2.93.93,0,0,1,1.83.11c.21,1.24-2.73,7.64-4.46,7.94A1.07,1.07,0,0,1,520.88,227.41Z"/><path class="cls-1" d="M535.71,274.66c-3.79,2.33-6.8,6.89-6.84,13.31a1,1,0,0,1-1,1.13,1.13,1.13,0,0,1-1.13-1.19c0-1,.45-10.28,8.29-14.91-8.29-3.26-9.27-14.27-9.28-14.49a1,1,0,0,1,1-1.05.92.92,0,0,1,1,.85c1,7.16,3.76,11.28,7.9,12.85l-.4-12.3a.81.81,0,0,1,.85-.86.86.86,0,0,1,.93.85l.27,12.81a15.22,15.22,0,0,0,2.7.28,1,1,0,0,1,1.09,1,1,1,0,0,1-.89,1c-.42,0-2.55-.24-2.86-.31l.36,13.56a.84.84,0,0,1-.9.86.8.8,0,0,1-.89-.78Zm6-1.7-.38-14.4a.87.87,0,0,1,.86-.93.83.83,0,0,1,.89.85l.27,13.3,3.84-.09-.26-9.49a.84.84,0,1,1,1.67,0l.19,9.5,3.64-.09-.31-11.7a.84.84,0,1,1,1.67,0l.2,8.25a.59.59,0,0,1,.26-.2,12.11,12.11,0,0,0,3.43-2.82.67.67,0,0,1,.41-.2,1,1,0,0,1,.9,1.05c0,1.06-3.07,3.72-4.09,3.74a1.07,1.07,0,0,1-.89-.43l.14,6a27.35,27.35,0,0,0,4.62,2.29,1,1,0,0,1,.7,1,1,1,0,0,1-.92,1.12c-.8,0-3.69-1.93-4.35-2.37l.19,8.13a.79.79,0,0,1-.82.82.78.78,0,0,1-.85-.78l-.24-11.78-3.65.09.26,9.57a.84.84,0,0,1-1.67,0l-.18-9.57-3.84.08.35,13.45a.81.81,0,0,1-.85.86.84.84,0,0,1-.9-.82Z"/><path class="cls-1" d="M526,310.43c.78-6.26,4.3-6.59,8.19-6.1,2.9.35,6,.93,9.15,1.47,2,.33,4,.65,5.83.88a32.06,32.06,0,0,0,4,.3l.22,0a1.06,1.06,0,0,1,1,1.19c-.17,1.36-1.38,1.21-4.88.78-1.93-.24-4-.58-6.12-1-2.84-.54-5.95-1.16-8.81-1.51-3.21-.4-5.85-.65-6.42,3.95a27.78,27.78,0,0,0,.87,10,1.62,1.62,0,0,1,.06.7,1.06,1.06,0,0,1-1.23,1,1.47,1.47,0,0,1-1.19-1.22A32.9,32.9,0,0,1,526,310.43Z"/><path class="cls-1" d="M517.29,349.18c5.17-.57,9.61-2.6,14.06-4.44a6,6,0,0,1,3.88-.61,4.9,4.9,0,0,1,2.6,2.14c2.38,3.23,4.95,7,7.89,9.9a1,1,0,0,1,.33,1.08,1.39,1.39,0,0,1-1.63.92,1,1,0,0,1-.51-.3c-2.75-2.9-5.31-7-7.56-10.24a3.34,3.34,0,0,0-1.65-1.44,4,4,0,0,0-2.63.53c-4.86,2-9.45,4.3-14.27,4.89a1.74,1.74,0,0,1-.62-.05,1.31,1.31,0,0,1-.9-1.59A1.09,1.09,0,0,1,517.29,349.18Z"/><path class="cls-1" d="M525.45,393.72a52.28,52.28,0,0,0-13.31-3.47,33.34,33.34,0,0,0,6.24,7.25.87.87,0,0,1,.22,1,1.15,1.15,0,0,1-1.46.65,34.79,34.79,0,0,1-7.32-9c-2.83,0-6.93.6-7.62,2.13-.42.93.42,2.22,2.31,3.86a1,1,0,0,1,.29,1.13,1.16,1.16,0,0,1-1.44.6c-.24-.1-4.46-3.24-3-6.47.51-1.14,2.13-3,8.5-3.1a21.9,21.9,0,0,1-2-13,1,1,0,0,1,1.38-.47.92.92,0,0,1,.57,1A20.8,20.8,0,0,0,511,388.34a56.34,56.34,0,0,1,15.24,3.54l4.09-9.12a2.15,2.15,0,0,0-1.21-3.25l-2.78-1.25c-.35.89-.78,1.86-1.2,2.79s-.83,1.84-1.19,2.55c-1.45,3.06-3.61,2.3-5.58,1.42-3.86-1.73-6.85-3.78-4.86-8.22.84-1.87,1.44-2.47,2.27-2.1a.91.91,0,0,1,.56,1.17.41.41,0,0,1-.13.19,6.89,6.89,0,0,0-1,1.59c-1.4,3.12,1.24,4.39,4,5.64,1.18.53,2.34,1,3.19-.69l2.26-5.07c-5-2.3-10.11-5-13.25-9.93a1.34,1.34,0,0,1-.12-1.3,1,1,0,0,1,1.28-.63,1.05,1.05,0,0,1,.47.45c2.69,4.58,7.43,7.29,12.25,9.45,1.77.79,3.57,1.51,5.29,2.24l.07,0c1.8.81,2.68,2.57,1.62,4.93L528,392.52c2.45.93,4.67,1.84,5.15,2.06a1,1,0,0,1,.33,1.31,1,1,0,0,1-1.3.58c-1.54-.64-3.24-1.41-5-2.11l-4.3,9.6a.92.92,0,0,1-1.68-.71Zm.71,7.14a13.18,13.18,0,0,0,3.67-2.52.77.77,0,0,1,.88-.19,1,1,0,0,1,.43,1.28c-.41.9-3.4,2.93-4.1,3.28a1.14,1.14,0,0,1-1,.06,1,1,0,0,1-.52-1.35A1.23,1.23,0,0,1,526.16,400.86Z"/><path class="cls-1" d="M498.9,420.82a17.49,17.49,0,0,0-6.44-.51,30.74,30.74,0,0,0-.41,7.82.8.8,0,0,1-.15.58,1.06,1.06,0,0,1-1.41.31,1,1,0,0,1-.46-1,42.44,42.44,0,0,1,.7-7.45,18.3,18.3,0,0,0-9.9,6,.94.94,0,0,1-1.27.22,1.16,1.16,0,0,1-.3-1.64c.24-.38,7.63-9.32,20.66-6l2.93-4.57-8.93-5.72a46.61,46.61,0,0,0-1.41,5.87,1.58,1.58,0,0,1-.14.36,1,1,0,0,1-1.36.3,1,1,0,0,1-.37-1,74.7,74.7,0,0,1,4.09-13.58,1,1,0,0,1,1.43-.39,1.07,1.07,0,0,1,.38,1.37c-.74,1.65-1.4,3.39-2,5.05l9.41,6,3.34-5.22a.82.82,0,0,1,1.17-.28.84.84,0,0,1,.27,1.2l-3.32,5.19c.88.52,1.84,1.13,2.83,1.77,2.21,1.41,4.56,3,6.39,4.18,2.29,1.51,2.54,3.66,1,6.14-1.4,2.26-3,4.72-4.51,7.12-1.13,1.76-2.24,3.49-3.34,5.14a.83.83,0,0,1-1.22.29.86.86,0,0,1-.25-1.24c1.28-1.93,2.66-4.07,4-6.15s2.64-4.13,3.76-5.94a2.46,2.46,0,0,0-.77-3.74l-.42-.32-8.61,13.44a.84.84,0,0,1-1.41-.9l8.63-13.47c-.88-.61-1.8-1.2-2.73-1.8l-8.65,13.5A.79.79,0,0,1,499,432a.8.8,0,0,1-.28-1.13l8.65-13.5c-1.06-.68-2.08-1.33-3-1.89L492.51,434a.85.85,0,0,1-1.44-.92Z"/><path class="cls-1" d="M466.32,443.45c4.14-4.76,7.25-3.06,10.2-.48,2.2,1.92,4.46,4.14,6.76,6.35,1.47,1.38,3,2.79,4.34,4a33.24,33.24,0,0,0,3.16,2.5l.17.15a1,1,0,0,1,.13,1.53c-.89,1-1.81.23-4.47-2.1-1.46-1.27-3-2.72-4.52-4.24-2.06-2-4.28-4.28-6.46-6.18-2.43-2.13-4.49-3.82-7.54-.32a28,28,0,0,0-4.86,8.76,1.8,1.8,0,0,1-.34.62,1.06,1.06,0,0,1-1.55.1,1.45,1.45,0,0,1-.31-1.67A32.51,32.51,0,0,1,466.32,443.45Z"/><path class="cls-1" d="M431.89,478c-.71-.84.21-1.63.65-2,5-4.24,9.77-3.64,10.53-2.75a1.15,1.15,0,0,1-.09,1.59,1.05,1.05,0,0,1-1.09.13c-3.07-1.08-5.86,1.1-8.36,3.08A1.13,1.13,0,0,1,431.89,478Zm7.63,10.87a1,1,0,0,1,.4-.24,22.53,22.53,0,0,0,6.62-3.3,6,6,0,0,0,1-1.1.44.44,0,0,1,.15-.18.86.86,0,0,1,1.2.17c.34.41.5,1.18-1.21,2.63a22.8,22.8,0,0,1-7.11,3.77,1,1,0,0,1-1.2-.22A1.08,1.08,0,0,1,439.52,488.85ZM455.78,484c-3.72-9.81-4.81-15.47-6.36-21.15a1.26,1.26,0,0,1,.43-1.26,1.05,1.05,0,0,1,1.51,0,1.61,1.61,0,0,1,.27.62,126.4,126.4,0,0,0,5.53,20.05l.07.14a20.75,20.75,0,0,1,3-3.85c.41-.35,2.08-1.72,2.87-.8a1.06,1.06,0,0,1-.07,1.5,1.59,1.59,0,0,1-.64.3,3,3,0,0,0-1.13.61,15.91,15.91,0,0,0-3.2,4.39,12.94,12.94,0,0,0,2.12,3.18,1.05,1.05,0,0,1-.2,1.52c-.78.67-1.38.08-1.73-.32a9.22,9.22,0,0,1-1.29-2.05,9.74,9.74,0,0,0-.4,1.29,1.06,1.06,0,0,1-.38.67,1,1,0,0,1-1.39,0c-.25-.29-.57-1,1.11-4.25Z"/><path class="cls-1" d="M403.4,508.05c2,1.6,6.21,2.48,9.47,1.75a.71.71,0,0,1,.8.35,1,1,0,0,1-.3,1.31c-1.61,1-10,.54-11.48-1.88a1.19,1.19,0,0,1,.3-1.67A1,1,0,0,1,403.4,508.05ZM422,506.81a5.23,5.23,0,0,1-.77.62c-3.1,1.93-5.33-1.42-6.32-3-2.72-4.35-5.77-10.74-.9-13.78,1.52-.95,3.87-1.48,4.48-.51a1.1,1.1,0,0,1-.32,1.5,1,1,0,0,1-.45.14,5.42,5.42,0,0,0-2.59.73c-1.78,1.11-2.83,3.87,1.81,11.28,1.12,1.8,2.26,2.76,3.67,1.87a4.15,4.15,0,0,0,.83-.69,10.22,10.22,0,0,1,.74-.74c-.51-6.27-.37-14.15-.42-19a1.32,1.32,0,0,1,.66-1.17,1,1,0,0,1,1.38.21,1.29,1.29,0,0,1,.18.78,143,143,0,0,0-.08,17.44,34.51,34.51,0,0,1,4.62-4.23,1,1,0,0,1,1.5.32,1,1,0,0,1-.32,1.36l-.06,0-.23.14a45.25,45.25,0,0,0-5.17,4.49,20.46,20.46,0,0,0,1.61,6.66,1,1,0,0,1-.43,1.25,1.07,1.07,0,0,1-1.49-.23c-.4-.65-1.07-2.43-1.46-6Z"/><path class="cls-1" d="M374.68,508.82c3.71,3.65,8.08,5.81,12.32,8.11a6.07,6.07,0,0,1,2.92,2.63,4.92,4.92,0,0,1,0,3.36c-1,3.88-2.33,8.27-2.7,12.37a1,1,0,0,1-.63.93,1.4,1.4,0,0,1-1.75-.68,1.06,1.06,0,0,1-.09-.59c.52-4,2.09-8.53,3.18-12.32a3.32,3.32,0,0,0,.08-2.19c-.3-.7-1-1.14-2.07-1.71-4.61-2.51-9.3-4.62-12.79-8a2.12,2.12,0,0,1-.35-.51,1.31,1.31,0,0,1,.67-1.7A1,1,0,0,1,374.68,508.82ZM376,531a16.28,16.28,0,0,0,4.42,1.68.78.78,0,0,1,.69.45.92.92,0,0,1-.56,1.08c-.7.3-5.29-.82-5.76-1.9a1.13,1.13,0,0,1,.5-1.42A.7.7,0,0,1,376,531Zm2.13-3.87a15.58,15.58,0,0,0,4.28,1.83.74.74,0,0,1,.14,1.47c-.77.34-5.18-.85-5.68-2a1.11,1.11,0,0,1,.55-1.4A.7.7,0,0,1,378.14,527.16Z"/><path class="cls-1" d="M351.16,533.61c-7.05-5.63-12.24-10.06-12.7-11.75a1.23,1.23,0,0,1,.73-1.57,1.25,1.25,0,0,1,1.36.7c.86,1.31,3.41,4.52,12.06,11.41,3.55-4.09,5.38-5.17,5.71-5.26a1.11,1.11,0,0,1,1.38.73c.12.44-.06,1-.76,1.42a26,26,0,0,0-4.83,4.32c2.62,2.14,3.12,2.55,3.42,3.65s-.23,2.11-1.67,2.89c-.55.3-2.84,1.31-3.29,1.54s-.47.44-.4.7c.23.85,2.13,1.63,3.67,1.81.45.08.71.29.78.54a1,1,0,0,1-.81,1.12c-.95.26-5.66-1.16-6.29-3.55-.24-.88.3-1.49,1.22-1.74a23.36,23.36,0,0,0,3.81-1.65c.78-.44,1-.86.91-1.3-.19-.7-1.4-1.71-2.55-2.62-1.38,1.59-2.79,3.38-4.42,5.23-2.45,2.78-5.36,5.13-8.3,5.91-3.19.86-6-.28-6.72-2.92-.88-3.31,1.2-8.19,8.14-10,2.64-.71,3.95-.82,4.25.32a1.09,1.09,0,0,1-.86,1.33,2.49,2.49,0,0,1-.5,0,12.89,12.89,0,0,0-2.53.4c-5.69,1.52-6.94,5.24-6.39,7.3s3,2.08,4.28,1.72c2.28-.6,5-2.67,7.5-5.62,1.35-1.58,2.71-3.28,4.05-4.9Z"/><path class="cls-1" d="M298.47,537.75l-.92-8.24-6.16.73a.91.91,0,0,1-.2-1.81c1.2-.17,3.7-.45,6.15-.73s5-.56,6.16-.66a3.33,3.33,0,0,1,4,3.15c.47,3.47.9,7,1.3,10.52.44,3.93.85,7.86,1.21,11.72a3.33,3.33,0,0,1-3.19,4c-1.2.17-3.51.43-5.85.7s-4.64.52-5.86.62a.83.83,0,0,1-1-.77.84.84,0,0,1,.76-1l5.55-.62-.75-6.73c-.72.09-1.37.12-2,.19-3.49.31-3.74-1.57-4.12-5s-.61-5.36,2.9-5.79Zm8.92,8.21c-.24-2.46-.52-5-.79-7.41-1.55.18-3.33.34-5,.53s-3.32.41-4.57.55-1.79.74-1.71,1.76c0,.61.14,1.63.25,2.57.26,2.34.37,3.29,2.3,3.07Zm-7-8.46c2-.24,4.11-.47,6-.65-.26-2-.53-4-.83-6.06a1.92,1.92,0,0,0-2.35-1.88c-.65.07-2.09.2-3.79.39Zm2,17.59,3.78-.42a2,2,0,0,0,1.87-2.39l-.4-4.59-6,.68Zm17.68-21a1.2,1.2,0,0,1,1-.92.82.82,0,0,1,1,.69.91.91,0,0,1,0,.46,76.29,76.29,0,0,0-1.58,12l3.19-.48h0a.79.79,0,0,1,.89.78.82.82,0,0,1-.69,1c-1.14.12-2.34.3-3.54.47-.12,2.73-.08,5.4,0,7.8a.89.89,0,0,1-.84,1,1,1,0,0,1-1.2-.82c-.06-.45,0-5.7.08-7.69l-2.87.32a2.59,2.59,0,0,1-3.22-2.5,30.24,30.24,0,0,1,1.13-11.34c-1.09-.49-3.88-1.82-4-2.91a1.09,1.09,0,0,1,.85-1.25,1.12,1.12,0,0,1,.8.3,15.91,15.91,0,0,0,3,2c2.34-5.7,6.42-8.53,7.33-8.63a1.08,1.08,0,0,1,1.17.94.8.8,0,0,1-.4.81,15.24,15.24,0,0,0-6.48,7.69,21.6,21.6,0,0,0,4.05,1.34Zm-5.77,11.55c.14,1.29.85,1.44,1.6,1.35s1.66-.22,2.64-.37c.2-3.31.54-6.68,1-9.83a28,28,0,0,1-4.35-1.27A27.1,27.1,0,0,0,314.25,545.68Z"/><path class="cls-1" d="M260.43,532.56a8.08,8.08,0,0,1,6.86-3.76c3,.1,5,2.3,4.92,4.16-.1,2.7-3.5,3.34-6.08,3.26a16.07,16.07,0,0,1-4.54-.88,11.57,11.57,0,0,0-.13,1.55c0,.88,0,1.79.06,2.82.13,1.79.21,5.1.17,8.37,4.59-.76,7-1.82,8.32-2.91a1,1,0,0,1,1.68.81c-.07,2.17-8.68,3.74-10,4-.18,5.39-.2,5.89-1.34,5.85-.53,0-1.09-.34-1.07-.91v-.08c.2-1.36.37-2.91.46-4.51-1.07.16-3.36.46-3.67.45a1,1,0,0,1-1-1,1.08,1.08,0,0,1,1.14-1c1.29-.11,2.51-.26,3.58-.41.07-3.12,0-6.24-.17-8.45-.06-1.37-.13-2.7-.09-4.11,0-.15,0-.34,0-.49a5.6,5.6,0,0,1,.1-.76c-.15-.08-.3-.12-.45-.2-2-1-4.62-2.78-4.58-3.88a1.17,1.17,0,0,1,1.1-1.15,1.16,1.16,0,0,1,.79.41,13.94,13.94,0,0,0,3.81,3Zm5.94,2c3.73.13,3.93-1.31,3.94-1.65,0-.84-1-2.16-3-2.23a6,6,0,0,0-5.15,2.94A12,12,0,0,0,266.37,534.51Zm14.48-4.19a26.44,26.44,0,0,1,.87,8.13,43.1,43.1,0,0,1-.48,5c-.6,4.27-1.64,8.23-2,10.61a1,1,0,0,1-1.06,1,1.07,1.07,0,0,1-1.07-1.1s0-.11,0-.19c.32-1.62,1.19-5,1.75-7.77a51.19,51.19,0,0,0,.92-7.19c.07-1.94-.14-3.55-.33-3.55s-.2.14-.36.52c-.54,1.12-1.87,3.59-2.52,4.63a.93.93,0,0,1-.77.51,1,1,0,0,1-.88-1,.84.84,0,0,1,.13-.42c1-1.64,3.53-5.66,3.61-8,0-.12,0-.23,0-.31a5.84,5.84,0,0,1,0-.87,1,1,0,0,1,1.1-1.11C280.2,529.2,280.61,529.52,280.85,530.32Z"/><path class="cls-1" d="M216.23,542a16.4,16.4,0,0,0,3,3.64.8.8,0,0,1,.4.77.93.93,0,0,1-1.11.61c-.67-.12-4.18-3.36-4-4.59a1,1,0,0,1,1.15-.83A.67.67,0,0,1,216.23,542Zm4.07-2a16,16,0,0,0,2.84,3.69.84.84,0,0,1,.36.76.87.87,0,0,1-1.07.58c-.71-.13-4.05-3.41-3.83-4.61a1.09,1.09,0,0,1,1.16-.86A.72.72,0,0,1,220.3,540Zm11.52,3.74a23.79,23.79,0,0,1-.54,2.33c-.35,1.29-.59,2.4-.76,3.3a18.75,18.75,0,0,0-.36,4.07,1,1,0,0,1,0,.31,1,1,0,0,1-1.24.81c-1.23-.22-1.28-1.43-.66-4.83.18-1,.43-2.13.81-3.56.23-.81.47-1.73.64-2.63.4-2.21,0-3.67-2.75-4.17a3.3,3.3,0,0,0-1.43.2,1.09,1.09,0,0,1-.47,0,1.06,1.06,0,0,1-.83-1.2c.07-.37.38-.78,1.09-1.07,1.42-.55,4.85-1.36,6.71-2,3.18-1.12,5.11-2.81,5.42-4.53.5-2.73-2.89-4.43-5.92-5a11.78,11.78,0,0,0-5.82.36,1.93,1.93,0,0,1-1.12.19,1.13,1.13,0,0,1-1-1.26c.36-2,5.75-1.85,7.81-1.47,6,1.1,8.58,4.39,8,7.42-.41,2.24-2.53,4.52-6.93,6.19-1.25.47-2.75.85-3.54,1.17C231.23,539,232.38,540.72,231.82,543.75Z"/><path class="cls-1" d="M197.61,516.36a1.15,1.15,0,0,1,.83,1.45c-.16.46-.67.77-1.51.65-8.55-1.53-13.66,2.46-15.14,6.78s.69,9.35,6.4,11.31a12.88,12.88,0,0,0,1.73.47c4.2,1,12-1.71,13.93-7.35.62-1.8.73-4.33-.86-4.88a2.3,2.3,0,0,0-1.5.17c-1.31.55-8.65,4.71-10.56,10.28,0,.11-.08.25-.12.36l0,.07a1,1,0,0,1-1.36.78c-1.18-.4-.92-1.4-.71-2,1.58-4.6,8.32-9.64,12.13-11.47a3.78,3.78,0,0,1,2.92-.32c2.23.76,3.18,4.19,2,7.53-2.1,6.11-10.39,10.74-18.34,8-7-2.39-9.62-8.6-7.81-13.89C182.78,515.21,195,515.45,197.61,516.36Z"/><path class="cls-1" d="M159.69,503.48a6.3,6.3,0,0,1,7.14-1c2.94,1.52,4.15,5.45,3.22,7.24-1.12,2.16-4.12,1.67-6.45.46a15.37,15.37,0,0,1-4-3.16c-.3.49-.56.91-1.73,3.17A164.48,164.48,0,0,0,151,525.24a.83.83,0,0,1-.07.13,1,1,0,0,1-1.45.49,1.21,1.21,0,0,1-.59-1.59c.92-1.92,1.83-3.93,2.82-6.07a11.83,11.83,0,0,0-5.32-1.23,1.35,1.35,0,0,1-.86-.15,1.17,1.17,0,0,1-.54-1.52c.95-1.82,7.4,1,7.56,1.11.88-1.86,1.82-3.82,2.85-5.81l.67-1.28c.33-.64.65-1.33,1-2a22.38,22.38,0,0,1,1.17-2c-.54-.7-3.51-4.95-2.76-6.4a1.28,1.28,0,0,1,1.68-.59,1.19,1.19,0,0,1,.6.83,16.37,16.37,0,0,0,1.86,4.48Zm4.79,5.14c.4.21,3,1.53,3.79.05.57-1.12-.37-3.5-2.16-4.42a4.31,4.31,0,0,0-5.34,1.12A11.88,11.88,0,0,0,164.48,508.62Z"/><path class="cls-1" d="M113.34,500.79c.77.56,6.07,5.1,4.93,6.67a.94.94,0,0,1-1.33.21,1.31,1.31,0,0,1-.4-.48,13.53,13.53,0,0,0-3.79-4.15c-.22-.16-.49-.31-.7-.46a1.11,1.11,0,0,1-.45-1.65A1.19,1.19,0,0,1,113.34,500.79Zm23.27-16.68a1,1,0,0,1-1.08.39c-7.78-1.7-12.56.69-15.17,4.29-1.32,1.82-3.64,6.38-1.06,8.25a7.16,7.16,0,0,0,3.55,1.07c2.32.23,3.36.47,3.92.87a1.21,1.21,0,0,1,.38,1.74,1.32,1.32,0,0,1-1.78.25,9.17,9.17,0,0,0-3-.83,9.93,9.93,0,0,1-4.29-1.61c-4.52-3.27-.58-9.62.43-11,5.87-8.09,17.13-5.56,17.8-5.07A1.16,1.16,0,0,1,136.61,484.11Z"/><path class="cls-1" d="M96.93,455.89c2-1.31,5.45-.84,7.68,1.34s2.58,5.35,1.2,6.76c-1.65,1.68-4.86.35-7.2-1.94a16.19,16.19,0,0,1-2.31-2.85c-.61.68-1.14,1.44-1.75,2.22-.48.6-.93,1.17-1.38,1.63-2.32,2.36-4.6,2.85-9.18,1.82-.64-.15-1.07-.2-1.18-.09-.26.27.77,1.39.88,1.49a18.34,18.34,0,0,0,2.73,2c.06.05.14.08.19.13a.84.84,0,0,1,0,1.18,1.09,1.09,0,0,1-1.43,0,19.17,19.17,0,0,1-2.63-2.09c-2.77-2.72-3-5.29-2.32-6,.37-.38.94-.35,1.45.15l.17.16L82,462a5.86,5.86,0,0,0,2.46,1.29c3.26.85,5.25.67,7.27-1.4a12.9,12.9,0,0,0,1.43-1.73,33.91,33.91,0,0,1,2.07-2.71c-.64-1.26-2.65-5.88-1.5-7.05a1.09,1.09,0,0,1,1.53-.1,1.18,1.18,0,0,1,.3.83,14.86,14.86,0,0,0,1.1,5A.75.75,0,0,1,96.93,455.89Zm-2.41,22.79c1.22,1.19,1.07,1.95.69,2.33a.91.91,0,0,1-1.34,0,1.54,1.54,0,0,1-.33-.42,2.38,2.38,0,0,0-.57-.78c-.81-.79-1.81-1.29-5.62-2.73a20.36,20.36,0,0,0-2.93,2.45,1,1,0,0,1-1.37-.07,1,1,0,0,1,0-1.56,13.31,13.31,0,0,1,2.08-1.63A12.4,12.4,0,0,0,83.6,476a1,1,0,0,1-.62-.29.85.85,0,0,1,0-1.2c.64-.66,2.18-.22,4.17.52a110.41,110.41,0,0,1,15.59-5.06,1.43,1.43,0,0,1,1.43.33.87.87,0,0,1,.09,1.26,1.44,1.44,0,0,1-.83.41,74.34,74.34,0,0,0-14,4.08A14.5,14.5,0,0,1,94.52,478.68ZM100,461.15c1.65,1.62,3.65,2.3,4.42,1.51.61-.62.37-2.61-1.12-4.07s-4-2-5.47-.88c-.07.08-.18.13-.26.21A15.36,15.36,0,0,0,100,461.15Z"/><path class="cls-1" d="M67,438.83a.89.89,0,0,1-.18,1.28.88.88,0,0,1-1.25-.2l-3.81-5-4.61,3.54L61.41,444a.86.86,0,0,1-.2,1.24.85.85,0,0,1-1.23-.17l-4.21-5.62-4.06,3.08a1,1,0,0,1-1.41-.23,1,1,0,0,1,.19-1.38l4.08-3.05-4.71-6.15a.89.89,0,1,1,1.42-1.08l4.66,6.2,4.63-3.51-4-5.3A.89.89,0,1,1,58,427Zm7.22,6.88c3.51,3.63,4,4.21,4,4.27.27.37,0,.85-.35,1.12s-.72.36-1,.06l-1.62-1.88a38.91,38.91,0,0,0-4.36,0,28.89,28.89,0,0,0-.23,6.38.68.68,0,0,1-.28.63,1,1,0,0,1-1.3-.2,1,1,0,0,1-.18-.43l-.1-1.07a31.16,31.16,0,0,0-8.11,1.81.84.84,0,0,1-1-.33,1.07,1.07,0,0,1,0-1.46c.85-.64,6.86-1.58,9.08-1.68a26.31,26.31,0,0,1,.29-3.52A45.82,45.82,0,0,0,62,450.54a.79.79,0,0,1-.9-.32,1.08,1.08,0,0,1,.12-1.47c.42-.32,7.17-1.24,12.66-1.11-1.53-1.7-3.21-3.48-4.16-4.48a17.57,17.57,0,0,0-.74,2.23.92.92,0,0,1-.29.51.81.81,0,0,1-1.1-.26c-.76-1,1.61-5.8,2.25-6.29a1,1,0,0,1,1.42.12.86.86,0,0,1-.09,1.07,12.33,12.33,0,0,0-.83,1.3c.58.51,1.53,1.46,2.58,2.52l11.55-8.8a1,1,0,0,1,1.44.14,1,1,0,0,1-.23,1.47Zm-1-25.32c.78.9,1.51,1.86,2.25,2.83,3.76,5,4.18,5.71,0,8.9-1,.73-2,1.48-2.78,2a3.21,3.21,0,0,1-4.56-.73c-.74-.92-1.51-1.86-2.27-2.86s-1.43-2-2.12-2.93A3.17,3.17,0,0,1,64,423c.92-.74,2.07-1.67,3.22-2.54l1.19-.9C70,418.49,71.71,418.64,73.17,420.39Zm-6.27,8.72c.71.94,1.43,1.87,2.12,2.73.91,1.13,1.85,1.18,2.75.54.51-.39,1.2-.87,1.87-1.37s1.28-1,1.82-1.43c1.59-1.25.71-2.4-1.49-5.31-3-3.93-3.17-4-6.29-1.62C64.08,425.38,64.08,425.38,66.9,429.11Zm11.47,6A19.22,19.22,0,0,0,75.22,440a1,1,0,0,1-.27.39.77.77,0,0,1-1-.25,1,1,0,0,1-.19-.81A18.68,18.68,0,0,1,77,433.72a1.13,1.13,0,0,1,1.59.14A.94.94,0,0,1,78.37,435.11ZM88,442.76A.87.87,0,0,1,88,444a1.09,1.09,0,0,1-.6.21,23.09,23.09,0,0,0-7.51,2.5.81.81,0,0,1-1.1-.26,1,1,0,0,1,.11-1.43A25.11,25.11,0,0,1,87,442.29,1.13,1.13,0,0,1,88,442.76Z"/><path class="cls-1" d="M47.78,406.1c9.29,1,17.57,5.12,18.12,6.12a1,1,0,0,1-1.48,1.33,40.64,40.64,0,0,0-17.59-5.85l4.87,8.74a.91.91,0,0,1-1.6.87l-5.27-9.63-5.49,3,6.26,11.44a.86.86,0,0,1-.38,1.2A.87.87,0,0,1,44,423L37.74,411.6l-4.88,2.71a.94.94,0,0,1-1.26-.48.92.92,0,0,1,.27-1.32l4.92-2.65-6.33-11.57a.91.91,0,0,1,1.6-.87L38.41,409c2.24-1.22,4.49-2.41,5.52-3l-5.4-9.87a.91.91,0,0,1,1.6-.87l4.92,9.22a43.8,43.8,0,0,0,3.87-18,1,1,0,0,1,.52-1A1.21,1.21,0,0,1,51,386c.6,1.1-.56,10.53-4.26,18.49l12.84-7.16a.94.94,0,0,1,1.25.53c.25.47.26,1-.21,1.28Z"/><path class="cls-1" d="M23.74,375.39a13.92,13.92,0,0,1,1,2.13c.72,2,.58,3.55-.35,3.9a.94.94,0,0,1-1.18-.58,1.79,1.79,0,0,1,0-1A3.3,3.3,0,0,0,23,378a16.6,16.6,0,0,0-1.68-3.15,14.83,14.83,0,0,0-3.65.42,1,1,0,0,1-1.16-.63,1.06,1.06,0,0,1,.56-1.42,9.77,9.77,0,0,1,2.85-.32A12.5,12.5,0,0,0,18.17,371a1.07,1.07,0,0,1-.34-.49.9.9,0,0,1,.53-1.2c1.07-.4,2.47,1.56,3.88,3.63a40.76,40.76,0,0,1,6,1.13,6.65,6.65,0,0,1-.55-1.05c-.72-2,0-4.06,2.37-5.78-5.08-5.22-6.4-7.48-6.53-7.84a1,1,0,0,1,.57-1.43,1,1,0,0,1,1.14.35c.93,1.2,1.6,2.13,2.69,3.55a47,47,0,0,0,3.78,4.36c.69-.33,1.41-.68,2.2-1,1.85-.68,3.41-1.17,3.85,0,.17.46,0,1-.76,1.25l-.25.09a23.84,23.84,0,0,0-2.67.78,6.78,6.78,0,0,0-.84.35c2.42,2.18,5.26,4.3,7.72,3.39,1.61-.59,2.73-2.5,1.39-6.13a17.67,17.67,0,0,0-2.25-4.16,2.73,2.73,0,0,1-.36-.63,1.15,1.15,0,0,1,.56-1.58c1.6-.59,3.27,3.73,3.73,5,2.08,5.67,0,8.57-2.22,9.4-1.35.5-4.87.94-10.3-4.35-2,1.25-2.82,2.69-2.28,4.15A4.9,4.9,0,0,0,31.1,375c1.89.76,2.71,1.11,3,1.82a.93.93,0,0,1-.48,1.23,1.24,1.24,0,0,1-1-.18,21.49,21.49,0,0,0-9.07-3Z"/><path class="cls-1" d="M10.58,338.82c-1.82.38-3,0-3.92-1.52a48.42,48.42,0,0,0-3.1-4.52.89.89,0,0,1-.25-.45,1.11,1.11,0,0,1,.87-1.23c.63-.13,1.1,0,3.66,4.6a2.1,2.1,0,0,0,2.53,1.15L24.22,334a31.57,31.57,0,0,0-2.84-3.8.81.81,0,0,1-.19-.35.92.92,0,0,1,.76-1,.87.87,0,0,1,.85.33A38.83,38.83,0,0,1,28,336.64a1,1,0,0,1-.79,1.09.85.85,0,0,1-1-.42c-.25-.45-.55-1-.89-1.52Zm19.74-13.95a.91.91,0,0,1-.69,1.15C23.07,327.33,14,329.21,9,330.22c-3,.62-3.58-1.56-4.14-4.31s-1-4.91,2.17-5.65c3-.65,6.92-1.46,8.25-1.73.79-.16,2.57-.53,3.83-.83l.11,0c2-.42,3.88,0,4.47,2.88.41,2,.27,3-.62,3.19a1,1,0,0,1-1.21-.6c0-.08,0-.12,0-.2a8.61,8.61,0,0,0-.06-2c-.23-1.16-1-1.59-2.58-1.26l-.11,0c-6.4,1.31-9.08,1.87-11.3,2.4-1.81.45-1.78.95-1.29,3.33s.78,3.06,2.5,2.74c1.24-.21,3.39-.66,5.89-1.17,5.51-1.13,12.57-2.63,14.27-3A.91.91,0,0,1,30.32,324.87ZM12.88,343.59a15.61,15.61,0,0,0-3.15,5.26.67.67,0,0,1-.48.49A1.19,1.19,0,0,1,8,348.39c-.17-.82,2.39-6.27,3.66-6.53a1.31,1.31,0,0,1,1.47.93A.82.82,0,0,1,12.88,343.59Zm10.35,3.72a.87.87,0,0,1-.72,1,.89.89,0,0,1-1.11-.7l-.46-2.23c-.45-2.2-.86-4.52,2.12-5.13,2.2-.45,4.68-.85,7.39-1.41,3.56-4.22,2.75-9.1,1.84-13.53-.79-3.79-2-7.73-2.85-10.62l0-.11a1,1,0,0,1,.79-1.25,1.12,1.12,0,0,1,1.27.9c.76,2.37,1.72,5.93,2.45,9.47,1.74,8.44,1.14,11.75-1.83,15.81,3.31,1.92,5.8,4.4,5.93,5.07a1.15,1.15,0,0,1-.85,1.3,1,1,0,0,1-1-.39,20.33,20.33,0,0,0-5.47-4.69c-1.91.35-3.66.68-5.22,1l-1.68.34c-.86.18-1.49.7-1.25,2Z"/><path class="cls-1" d="M4.58,290.36c.13,2.35-2.43,6.94-3.61,7a1,1,0,0,1-1-1,1.22,1.22,0,0,1,.3-.9,7.93,7.93,0,0,0,2.14-5.25c0-.77.48-1.09.93-1.12A1.21,1.21,0,0,1,4.58,290.36Zm15.94,5.4c-.06-1.14.78-2.44,3.15-2.95,2.07-.42,3.13-1.24,3-3.67V289a18.42,18.42,0,0,0-1.82-6.79,2.11,2.11,0,0,1-.28-.86,1.05,1.05,0,0,1,1-1.16c2.28-.13,3.06,7.29,3.12,8.28.16,3-.53,5.55-4.08,6.2-1.88.37-2.49,1-2.45,1.73.07,1.26,1.58,2.5,6.05,6.22.8.64,1.06,1.16,1.08,1.61s-.3,1.43-.95,1.46a1.22,1.22,0,0,1-.93-.44c-4.61-4.89-16.28-15.62-17.12-15.58,0,0-.07,0-.07.12a1.77,1.77,0,0,0,.14.41c2.62,6.06,4,9.6,4.06,10.85,0,.88-.42,1.36-1,1.39s-1-.36-1.21-1.19a66.55,66.55,0,0,0-3.28-9.87C8,289,8,288.84,8,288.57a1.52,1.52,0,0,1,1.42-1.71,1.78,1.78,0,0,1,1.29.46c1.95,1.68,6.91,6,9.93,8.89A1.76,1.76,0,0,1,20.52,295.76Z"/><path class="cls-1" d="M20.82,246.6c-2.61-.24-4.83,1.84-5.16,5.44a12.91,12.91,0,0,0,4.39,10.47,1.22,1.22,0,0,1,.43,1.08,1.18,1.18,0,0,1-1.2,1.11,1.54,1.54,0,0,1-1.05-.67A128.89,128.89,0,0,0,5.45,250.65c-.07,0-.08,0-.09.1a1.76,1.76,0,0,0,.11.55c.51,1.53,2,7.85,1.86,9.29a1,1,0,0,1-1.13,1,1.05,1.05,0,0,1-.93-1,44.86,44.86,0,0,0-1.48-9.22,5.49,5.49,0,0,1-.36-2A1.46,1.46,0,0,1,5,247.9a1.74,1.74,0,0,1,1.23.65c2.42,2.74,6.41,6.76,9.28,10A12.64,12.64,0,0,1,14,251.39c.43-4.77,3.57-7.3,6.93-7,3.9.36,8.91,4.45,8.23,11.9-.43,4.69-2.82,6.57-4.82,6.39-1.48-.14-2.7-1.43-2.5-3.63a5.15,5.15,0,0,1,5.52-4.87C26.78,249.05,23.09,246.8,20.82,246.6Zm2.67,12.45c-.1,1.1.46,1.69,1.18,1.75,1.06.1,2.5-1,2.84-4.74C24.65,256,23.64,257.46,23.49,259.05Z"/><path class="cls-1" d="M34.64,220.21a1.15,1.15,0,0,1-1.37,1c-.48-.12-.83-.6-.78-1.45.75-8.65-3.69-13.37-8.12-14.46s-9.25,1.54-10.69,7.41a15.32,15.32,0,0,0-.31,1.76c-.61,4.27,2.79,11.79,8.58,13.2,1.85.45,4.38.33,4.78-1.29a2.24,2.24,0,0,0-.3-1.49c-.67-1.26-5.47-8.18-11.19-9.58l-.37-.09h-.08a1,1,0,0,1-.9-1.28c.3-1.22,1.31-1,1.94-.89,4.73,1.15,10.35,7.41,12.52,11a3.81,3.81,0,0,1,.59,2.88c-.56,2.29-3.88,3.55-7.32,2.72C15.35,228.09,10,220.25,12,212.09c1.75-7.16,7.7-10.36,13.12-9C34.44,205.34,35.31,217.48,34.64,220.21Z"/><path class="cls-1" d="M49.66,176.87l-.09.21c-3.91,7.84-10.86,9.76-16,7.67a11.83,11.83,0,0,1-6.13-6.69c-.07-.24-.16-.4-.23-.43s-.09,0-.13.11a1.59,1.59,0,0,0-.06.43c0,.29.43,8.8-.21,10.34a1.18,1.18,0,0,1-1.52.82,1.34,1.34,0,0,1-.71-1.48c.55-4,.75-11.44.78-13.73A28.29,28.29,0,0,1,27.05,164c.44-1.06,1.18-1.28,1.75-1.05.77.31.85,1.13.49,2l-.16.38a7.3,7.3,0,0,0-.41.9c-2.28,5.56-.58,14.14,5.4,16.58,4.71,1.93,10.62-.65,13.17-6.88.44-1.09,1.26-1.37,1.82-1.14S50.07,175.85,49.66,176.87ZM37,163.57a18.22,18.22,0,0,0-4,2.62.85.85,0,0,1-.9.29,1,1,0,0,1-.38-1.26c.24-.6,3.83-3.85,5.1-3.33a1.06,1.06,0,0,1,.66,1.29A.66.66,0,0,1,37,163.57ZM38.38,168a16.59,16.59,0,0,0-4,2.45.81.81,0,0,1-.89.26,1,1,0,0,1-.36-1.22c.27-.67,3.94-3.72,5.14-3.23a1.12,1.12,0,0,1,.65,1.33A.81.81,0,0,1,38.38,168Z"/><path class="cls-1" d="M63.59,151.12c-3.23,5.42-6.58,4.3-10,2.3-2.51-1.5-5.12-3.28-7.79-5-1.69-1.1-3.41-2.22-5-3.15a31.59,31.59,0,0,0-3.55-1.9l-.2-.12a1,1,0,0,1-.4-1.47c.7-1.18,1.74-.56,4.78,1.25,1.66,1,3.45,2.15,5.2,3.37,2.39,1.64,5,3.45,7.46,4.93,2.77,1.65,5.1,3,7.47-1a28.13,28.13,0,0,0,3.22-9.49,2,2,0,0,1,.22-.67,1.05,1.05,0,0,1,1.51-.38,1.45,1.45,0,0,1,.6,1.59A32.49,32.49,0,0,1,63.59,151.12Z"/><path class="cls-1" d="M83.12,123.3c-1.25,1.53-4.33,2.41-5.83,1.18s-.63-3.31.55-4.75a11,11,0,0,1,2.64-2.27c-.6-.53-1.21-1-1.74-1.47-3.67-2.95-6.18-4.81-9.45-7l-.12-.09a.93.93,0,0,1-.11-1.37,1,1,0,0,1,1.44-.2L74.14,110a8.14,8.14,0,0,0,1.46-3.23,1.19,1.19,0,0,1,.26-.67,1,1,0,0,1,1.43-.2c1.12.91-.94,4.28-1.69,5.19,1.37,1,2.81,2.15,4.28,3.35a28.89,28.89,0,0,1,2.36,2c1.32-.59,4.08-1.62,5-.9a1.11,1.11,0,0,1,.18,1.52,1.07,1.07,0,0,1-.85.38,11.27,11.27,0,0,0-3,.55A4.77,4.77,0,0,1,83.12,123.3Zm-1.46-4.52a7.64,7.64,0,0,0-2.5,1.92c-.77.94-1.13,2-.6,2.41a2.7,2.7,0,0,0,3.08-.82,2.83,2.83,0,0,0,.12-3.39Z"/><path class="cls-1" d="M94.9,72.41c-.7.64-6.23,4.9-7.53,3.47a1,1,0,0,1,.06-1.35,1.43,1.43,0,0,1,.55-.29,13.68,13.68,0,0,0,4.85-2.87c.19-.18.39-.41.59-.59a1.11,1.11,0,0,1,1.7-.11A1.2,1.2,0,0,1,94.9,72.41Zm11.6,26.18a1,1,0,0,1-.16-1.13c3.24-7.27,1.87-12.45-1.12-15.74-1.51-1.66-5.5-4.86-7.86-2.71a7.28,7.28,0,0,0-1.77,3.25c-.69,2.23-1.14,3.2-1.65,3.66a1.19,1.19,0,0,1-1.77,0,1.31,1.31,0,0,1,.11-1.8,9.33,9.33,0,0,0,1.42-2.73,9.88,9.88,0,0,1,2.44-3.87c4.13-3.76,9.54,1.4,10.69,2.66,6.72,7.39,2,17.9,1.33,18.46A1.15,1.15,0,0,1,106.5,98.59Z"/><path class="cls-1" d="M127.1,56.13a4.45,4.45,0,0,1,.76-.64c3-2,5.36,1.25,6.4,2.79,2.86,4.26,6.11,10.55,1.35,13.74-1.49,1-3.83,1.6-4.46.66a1.1,1.1,0,0,1,.27-1.51.93.93,0,0,1,.44-.16,5.6,5.6,0,0,0,2.57-.81c1.74-1.16,2.7-4-2.17-11.22-1.19-1.76-2.35-2.68-3.73-1.74a3.43,3.43,0,0,0-.8.71,9.45,9.45,0,0,1-.73.77c.71,6.24.83,14.12,1,18.93a1.3,1.3,0,0,1-.62,1.19,1,1,0,0,1-1.39-.16,1.39,1.39,0,0,1-.2-.78,142.39,142.39,0,0,0-.48-17.43,33.78,33.78,0,0,1-4.48,4.37,1,1,0,0,1-1.5-.27,1,1,0,0,1,.27-1.37l.06,0,.22-.15a43.9,43.9,0,0,0,5-4.65,20,20,0,0,0-1.82-6.6,1,1,0,0,1,.39-1.27,1.07,1.07,0,0,1,1.5.19c.42.63,1.14,2.39,1.65,5.94Zm18.57-1.84c-2.08-1.53-6.28-2.28-9.52-1.44a.72.72,0,0,1-.81-.32,1,1,0,0,1,.26-1.32c1.58-1.06,10-.86,11.53,1.51a1.18,1.18,0,0,1-.25,1.67A1,1,0,0,1,145.67,54.29Z"/><path class="cls-1" d="M161.1,60.68a4.39,4.39,0,0,1-3.75-7.93,4.39,4.39,0,1,1,3.75,7.93ZM157.93,54a3.06,3.06,0,0,0,2.62,5.53A3.06,3.06,0,1,0,157.93,54Z"/><path class="cls-1" d="M177.56,52.61a4.34,4.34,0,0,1-5.65-2.5,4.39,4.39,0,1,1,5.65,2.5ZM174.9,45.7a3.05,3.05,0,0,0-1.75,3.93,3.06,3.06,0,1,0,1.75-3.93Z"/></g></g></svg>