<?xml version="1.0" encoding="utf-8"?>
<!-- Generator: Adobe Illustrator 25.4.1, SVG Export Plug-In . SVG Version: 6.00 Build 0)  -->
<svg version="1.1" id="レイヤー_1" xmlns="http://www.w3.org/2000/svg" xmlns:xlink="http://www.w3.org/1999/xlink" x="0px"
	 y="0px" viewBox="0 0 446.1 535.3" style="enable-background:new 0 0 446.1 535.3;" xml:space="preserve">
<style type="text/css">
	.st0{clip-path:url(#SVGID_00000051361045190187327380000012582007610569247934_);}
	.st1{fill:#D94423;}
	.st2{fill:#F7F8F8;}
</style>
<g>
	<defs>
		<rect id="SVGID_1_" y="0" width="445.8" height="535.4"/>
	</defs>
	<clipPath id="SVGID_00000130632632043628279340000012428052772942793656_">
		<use xlink:href="#SVGID_1_"  style="overflow:visible;"/>
	</clipPath>
	
		<g id="レイヤー_2_00000119812944287450849480000013693586573362861992_" style="clip-path:url(#SVGID_00000130632632043628279340000012428052772942793656_);">
		<g id="レイヤー_1-2">
			<path class="st1" d="M1.4,114.6c-0.8,5.5-1.3,11.1-1.4,16.7c0,7.4,1.2,14.7,5,21.6c21.4,38.7,46,57.1,88.8,58
				c4.7,0.1,9.4-0.9,14.3-1.4c-3.6,11-7,21.4-10.4,31.8c-8,24.4-12.2,49.4-10.6,75.1c0.8,12.4,1.6,24.9,3.9,37
				c3.6,19,1.1,36.8-8.4,53.3C71.8,425.4,60.7,444,49,462.1c-14.8,23-28.8,46.3-38.4,71.9c-3.8,10-6.1,20.7-8.9,31.1
				c-1.1,4.4,0.5,8.1,4.9,9.8l0.3,0.1h5.2c2-0.9,3.5-2.6,4.4-4.6c1.6-3.2,2.8-6.6,3.5-10.2c4.9-26.4,18-49.1,31.5-71.6
				c14.3-23.9,29.3-47.3,43.7-71.1c13.4-22.1,15.5-46,11.3-71.2c-5.9-34.9-4.9-69.4,7.5-103c3.6-9.8,6.7-19.7,10.6-29.3
				c1.7-4.2,5-7.6,7-11.7c1.3-2.8,2.9-7,1.7-9c-1.5-2.4-5.8-4.6-8.7-4.3c-6.7,0.6-13.2,3.1-19.9,4.2c-31.1,5.1-54.9-6.4-74.7-30.5
				c-18.2-22.1-15.3-45.2-6.7-69c3.3-8.8,7.9-17,13.8-24.4c15.2-19.5,35-24.6,59.8-21c32.4,4.7,58.5,36.9,64.3,68.1
				c1.6,8.5,0.9,17.5,0.7,26.2c-0.1,4.2-0.6,8.1,3.5,10.7s7.6,0.9,11.1-1.5c14.4-9.8,30.2-17.4,47.3-19.4
				c13.3-1.6,27.3-0.5,40.6,1.8c31.8,5.5,61,17.6,83.4,41.7c17.8,19.2,27.6,42.3,29.3,68.8c0.7,11.1,3.1,22.2,5.4,33.1
				c1,5.1,1.3,8.9-4.1,11.2c-1.6,0.7-3.6,1.7-4.3,3.2c-1.1,2.2-1.2,4.9-1.8,7.4c2.7,0.3,5.5,1.2,8,0.7c1.9-0.4,3.6-2.4,6.5-4.6
				l7.9,19.4c-3.6,0-6.6-0.7-8.9,0.2c-2.1,0.9-3.5,3.5-5.2,5.4c1.8,1.6,3.3,4.2,5.3,4.5c13.5,2.3,13.7,2.1,13.2,15.6
				s-4.8,25.2-13.6,36.2c-15,18.7-35.4,28-56.9,35.1c-36.8,12.1-74.1,13.8-111.5,2.1c-3.6-1.1-7.3-2.2-11-3.1
				c-6-1.5-10.5,0.4-11.7,5.1c-1.2,4.4,1.4,8.7,7.1,10.1c15.9,3.9,31.9,7.4,47.9,10.8c13.3,2.7,26.7,1.7,40-0.9
				c2.3-0.3,4.7-0.5,7-0.6c-1.6,9.8-4,19.1-4.5,28.6c-1,19.4,7,36.7,14.6,54c4.9,11.2,10.2,22.2,14.2,33.7
				c2.5,7.6,4.6,15.3,6.3,23.2h16.5c-1.2-7.7-2.6-15.5-5.2-22.7c-6.3-17.3-14.1-34-21.3-50.9c-6.6-15.5-11.8-31.4-7.5-48.3
				c1.7-6.6,5.6-12.7,8.9-18.8c0.9-1.6,3.5-2.3,5.5-3.1c15.3-6.5,31.4-11.4,45.7-19.6c23.1-13.3,40.6-32,45-59.8
				c1.1-6.8,0.2-13.9,0.2-22.9c6,2.5,10.4,4.2,14.8,6.1c2.8,1.2,5.3,3.3,8.1,3.7c2,0.3,5.5-0.9,6.2-2.4c0.2-0.4,0.2-0.8,0.2-1.2
				c0-1.8-1.1-4.6-2.3-5.2c-7.6-3.9-15.5-7.3-23.6-10.2c-3.4-1.2-5.4-2.5-6.5-5.9c-2.6-7.5-5.5-14.9-8.8-23.5
				c12.5,0.4,23.8-1.7,34.9,2.3c3.6,1.3,7,1.7,8.4-2.6c0,0,0-0.1,0-0.1v-3.4c-0.9-2.2-2.9-3.6-5.2-3.8c-11.7-1.3-23.4-2.4-35.2-2.6
				c-5.1-0.1-7-1.4-7.7-6.4c-1.4-10.9-3.9-21.7-4.7-32.7c-1.4-17.8-6.7-35.1-15.5-50.7c-0.7-1.2-1.1-2.5-1.7-4
				c5.2-1.6,10.4-2.5,15-4.7c25.5-12.2,41.5-31.5,45.9-60.2c3.3-21.7,3.5-42.8-5.2-63.1c-9.4-21.8-22.2-41.1-45.4-50.4
				c-12.4-5.1-25.6-7.8-39-7.9C340,0,332.9,0.8,326,2.5c-22.6,5.6-38.1,21-46.5,42.6c-9.2,23.9-12.5,48.3-3.4,73.2
				c-16.6-1-33.1-3.4-49.4-2.7s-31.9,7-46.7,15.6c-1.2-7.1-1.9-13.3-3.3-19.5C173.1,96,166,82.1,156.9,68.6
				c-20.3-30.1-50-37.8-83-37.3c-9.3,0.1-19.5,3.9-27.5,8.8C18.9,57.1,5.6,83.3,1.4,114.6z M289.8,103.8
				c-4.3-16.8-0.8-33.3,4.4-49.3c3-9.2,7.7-17.4,15.2-24c22.4-20,55.3-15.1,74.4-4.4c26.5,14.8,36,39.8,38.4,71.7
				c-1.5,7.4-3.1,17.6-5.5,27.6c-5.9,24.5-21.6,39-46.3,43.5c-2.5,0.5-6.1-1-8.3-2.8c-5.7-4.7-10.2-11-16.3-15
				c-11.6-7.8-23.7-14.8-36.2-21C298.1,124.5,292.7,115.1,289.8,103.8z"/>
			<path class="st2" d="M12.1,575h314.6c-1.6-7.9-3.7-15.6-6.2-23.2c-4-11.5-9.3-22.5-14.2-33.7c-7.5-17.3-15.6-34.5-14.6-54
				c0.5-9.4,2.9-18.8,4.5-28.6c-2.3,0.1-4.7,0.3-7,0.6c-13.3,2.6-26.6,3.7-40,0.9c-16-3.3-32-6.9-47.9-10.8
				c-5.7-1.4-8.2-5.8-7.1-10.1c1.3-4.6,5.7-6.6,11.7-5.1c3.7,0.9,7.3,2,11,3.1c37.4,11.7,74.7,10,111.5-2.1
				c21.5-7.1,41.9-16.4,56.9-35.1c8.8-11,13.2-22.7,13.7-36.2s0.2-13.4-13.2-15.6c-2-0.3-3.5-2.9-5.3-4.5c1.7-1.9,3.1-4.5,5.2-5.4
				c2.3-0.9,5.4-0.2,8.9-0.2l-7.9-19.4c-2.9,2.2-4.5,4.3-6.5,4.6c-2.5,0.5-5.4-0.4-8-0.7c0.5-2.5,0.7-5.2,1.8-7.4
				c0.7-1.4,2.7-2.5,4.3-3.2c5.4-2.4,5.2-6.2,4.1-11.2c-2.3-11-4.6-22-5.4-33.1c-1.8-26.5-11.5-49.6-29.3-68.8
				c-22.4-24.1-51.6-36.1-83.4-41.6c-13.3-2.3-27.3-3.4-40.6-1.8c-17.1,2-32.9,9.6-47.3,19.4c-3.5,2.4-7.1,4-11.1,1.5
				s-3.6-6.5-3.5-10.7c0.2-8.8,0.9-17.8-0.7-26.2c-5.9-31.2-31.9-63.4-64.3-68.1C72,44.7,52.2,49.8,37,69.3
				c-5.9,7.4-10.5,15.6-13.8,24.4c-8.6,23.8-11.4,46.9,6.7,69c19.8,24.1,43.7,35.5,74.7,30.5c6.7-1.1,13.2-3.6,19.9-4.2
				c2.9-0.3,7.2,1.9,8.7,4.3c1.2,2-0.4,6.2-1.7,9c-1.9,4.1-5.3,7.5-7,11.7c-3.9,9.6-7,19.6-10.6,29.3c-12.4,33.6-13.4,68.2-7.5,103
				c4.3,25.2,2.1,49.1-11.3,71.2c-14.4,23.8-29.4,47.2-43.7,71.1C38,511.2,24.8,533.9,20,560.3c-0.7,3.5-1.9,7-3.5,10.2
				C15.6,572.4,14.1,574.1,12.1,575z M96.4,161.4c-30.2-6.6-45.5-26.1-43.2-54.8C54.7,86.8,72,72,91.7,73.6
				c5.5,0.4,10.8,2.1,15.5,4.9c21.5,12.4,34.4,38.4,30.6,62.7c-2.8,18-6.6,23.9-22.1,23.7C109.3,163.6,102.8,162.8,96.4,161.4z
				 M205,341.3c-1.1-0.9-1.1-5.5,0.1-6.7c3.5-3.1,7.5-6.6,11.9-7.7c16.2-4.1,32.6-7.4,49-10.6c3.9-0.7,8-0.6,11.9,0.4
				c1.9,0.5,3.1,3.8,4.7,5.8c-1.9,1.4-3.6,3.1-5.6,3.9c-1.5,0.6-3.5,0.1-5.4,0.1c-0.1-0.5-0.2-0.9-0.2-1.4
				c-13.3,2.6-26.7,4.6-39.8,8c-6.7,1.7-12.7,6.2-19.2,8.8C210.2,342.8,206.7,342.6,205,341.3z M207.4,294.8
				c1.9-1.7,3.5-4.6,5.6-4.9c4.3-0.8,8.8-0.2,13.2-0.2c0.1-0.5,0.1-1,0.2-1.6c11.4,1.9,22.8,3.5,34.1,5.9c8.2,1.8,16.2,4.1,24.1,7
				c1.9,0.7,2.7,4.5,4.1,6.9c-2.5,0.9-5,1.9-7.5,2.6c-0.6,0.2-1.5-0.5-2.2-0.7c-20.1-6.1-40.3-11.6-61.7-9.7
				c-1.4,0.1-3.1,0.6-4.1-0.1C211.1,298.3,209.2,296.6,207.4,294.8L207.4,294.8z M274.4,262.8c0-9.6,3.8-15.6,10.5-16.6
				c7.8-1.1,14.4,3.7,17.1,12.6c2.2,7,0.5,13.6-3.6,19.2c-1.6,2.2-5.3,3.8-8.1,3.9C280.7,282.3,274.5,274.4,274.4,262.8L274.4,262.8
				z M303.6,350.3c-1.5-0.7-1.3-5-1.9-7.6c2.5-0.2,5.8-1.6,7.5-0.6c17.2,10.9,34.2,9.9,51.6,0.4c1.8-1,4.9,0.3,7.4,0.5
				c-0.5,2.6-1.3,5.2-2.2,7.8c-0.5,1.1-2.1,1.9-3.4,2.3c-4.9,1.6-5.7,4.7-4.8,9.6c1.8,10.6-0.4,13.2-10.8,14.8
				c-2.8,0.4-5.6,0.5-8.4,0.7c0,0.1-0.1,0.3-0.1,0.4c-6.5-1-13.1-1.5-19.4-3.4c-2.5-0.7-6.1-4.7-5.8-6.8
				C314.7,359.9,311.9,354.1,303.6,350.3L303.6,350.3z M327.4,318c-3.9-6-2.8-12,2.9-16.3c9.4-7,23.8-7.7,34-1.6
				c4.7,2.8,8.4,6.6,8.1,12.4c-0.1,6.2-4.1,11.7-10,13.7c-4.4,1.6-9.3,2.1-13.4,3C340,327.9,332.3,325.6,327.4,318z M345,264.2
				c0.6-3.1,0.9-6.3,2-9.3c2-5.4,5.6-9.6,11.8-9.3s11.2,4,12,10c0.8,6.4,0.4,13-1.2,19.3c-1.6,6-7,7.7-13,6.2
				C348.6,279,345.4,274,345,264.2z"/>
			<path class="st1" d="M53.2,106.6c-2.3,28.8,13,48.3,43.2,54.8c6.4,1.4,12.9,2.2,19.4,3.4c15.5,0.2,19.2-5.6,22.1-23.7
				c3.8-24.3-9.2-50.2-30.7-62.7c-17.1-10.1-39.1-4.4-49.1,12.7C55.3,95.9,53.6,101.1,53.2,106.6z"/>
			<path class="st1" d="M205.2,334.6c-1.2,1.1-1.3,5.8-0.1,6.7c1.6,1.3,5.2,1.6,7.3,0.7c6.6-2.6,12.5-7.1,19.2-8.8
				c13.1-3.4,26.5-5.4,39.8-8c0.1,0.5,0.1,0.9,0.2,1.4c1.8,0,3.8,0.5,5.4-0.1c2.1-0.9,3.8-2.6,5.6-3.9c-1.5-2-2.7-5.3-4.7-5.8
				c-3.9-1-7.9-1.2-11.9-0.4c-16.4,3.2-32.8,6.6-49,10.6C212.7,328,208.6,331.5,205.2,334.6z"/>
			<path class="st1" d="M213,289.8c-2.1,0.4-3.8,3.2-5.6,4.9c1.7,1.8,3.6,3.5,5.7,5.1c1,0.6,2.7,0.2,4.1,0.1
				c21.4-1.9,41.6,3.6,61.7,9.7c0.8,0.2,1.6,0.9,2.2,0.7c2.5-0.7,5-1.7,7.5-2.6c-1.3-2.4-2.1-6.1-4.1-6.9c-7.9-2.9-15.9-5.2-24.1-7
				c-11.3-2.4-22.7-4-34.1-5.9c-0.1,0.5-0.1,1-0.2,1.6C221.8,289.6,217.3,289,213,289.8z"/>
			<path class="st1" d="M284.9,246.2c-6.7,1-10.5,7-10.5,16.6c0,11.6,6.2,19.5,15.9,19.2c2.8-0.1,6.5-1.7,8.1-3.9
				c4.1-5.6,5.8-12.2,3.6-19.2C299.3,249.9,292.7,245.1,284.9,246.2z"/>
			<path class="st2" d="M294.2,54.5c-5.2,16.1-8.8,32.5-4.4,49.3c2.9,11.2,8.4,20.6,19.8,26.2c12.5,6.2,24.6,13.2,36.2,21
				c6.1,4,10.6,10.3,16.3,15c2.1,1.8,5.7,3.3,8.3,2.8c24.7-4.5,40.4-19,46.3-43.5c2.4-10,4.1-20.3,5.5-27.6
				c-2.5-31.9-11.9-56.9-38.4-71.7c-19.1-10.6-52-15.6-74.4,4.4C301.9,37.1,297.2,45.3,294.2,54.5z M339.1,137
				c-12.7-15.7-13.3-33.4-10.6-51.6c1-7.1,4.9-14.3,8.9-20.5c7.7-11.8,29.1-14.5,40.8-5.3c12.9,10.2,15.7,23.3,15.3,40.1
				c0.3,11.6-2.7,23-8.7,32.9C375.6,148,349.5,149.8,339.1,137z"/>
			<path class="st1" d="M301.8,342.8c0.6,2.6,0.5,6.9,1.9,7.6c8.2,3.8,11,9.5,9.8,18.4c-0.3,2,3.3,6,5.8,6.8
				c6.3,1.8,12.9,2.3,19.4,3.4c0-0.1,0.1-0.3,0.1-0.4c2.8-0.2,5.6-0.3,8.4-0.7c10.5-1.6,12.6-4.2,10.8-14.8c-0.8-5-0.1-8,4.8-9.6
				c1.3-0.4,2.9-1.2,3.4-2.3c0.9-2.5,1.6-5.1,2.2-7.8c-2.5-0.2-5.6-1.5-7.4-0.5c-17.4,9.5-34.4,10.5-51.6-0.4
				C307.6,341.1,304.3,342.5,301.8,342.8z M324,362.1c-0.2-0.8,1.5-2.2,3.3-4.7c1.1,3.2,2.2,4.9,2.1,6.5c0,1.1-1.6,2.2-2.4,3.3
				C326,365.5,324.5,364,324,362.1z M337.6,363.8c2.6-2,4.2-4.2,5.9-4.3c1.4,0,2.8,2.5,4.2,4c-1.7,1.7-3.6,3.3-5.6,4.7
				C341.8,368.5,339.9,366.1,337.6,363.8L337.6,363.8z"/>
			<path class="st2" d="M327.3,357.5c-1.9,2.5-3.6,3.9-3.3,4.7c0.5,1.8,2,3.4,3,5.1c0.9-1.1,2.4-2.2,2.4-3.3
				C329.5,362.3,328.5,360.7,327.3,357.5z"/>
			<path class="st1" d="M330.3,301.7c-5.7,4.2-6.8,10.2-2.9,16.3c4.9,7.6,12.6,9.9,21.6,11.2c4.1-0.9,8.9-1.4,13.4-3
				c5.9-2,9.9-7.5,10-13.7c0.3-5.7-3.4-9.5-8.1-12.4C354.1,294.1,339.7,294.8,330.3,301.7z"/>
			<path class="st1" d="M328.5,85.4c-2.7,18.2-2.1,36,10.6,51.6c10.4,12.8,36.5,11,45.7-4.4c6-9.9,9.1-21.3,8.7-32.9
				c0.4-16.8-2.5-29.9-15.3-40.1c-11.6-9.2-33.1-6.5-40.8,5.3C333.4,71.1,329.6,78.2,328.5,85.4z"/>
			<path class="st2" d="M343.5,359.5c-1.7,0-3.3,2.3-5.9,4.3c2.3,2.3,4.2,4.6,4.5,4.4c2-1.4,3.9-3,5.6-4.7
				C346.3,362.1,344.8,359.5,343.5,359.5z"/>
			<path class="st1" d="M347,254.9c-1.1,3-1.4,6.2-2,9.3c0.4,9.9,3.7,14.8,11.6,16.8c6,1.5,11.4-0.2,13-6.2
				c1.6-6.3,2.1-12.8,1.2-19.3c-0.8-5.9-5.7-9.7-12-10S348.9,249.5,347,254.9z"/>
			<path d="M445.9,286.4v3.4C446.2,288.7,446.2,287.5,445.9,286.4z"/>
		</g>
	</g>
</g>
</svg>
