<svg xmlns="http://www.w3.org/2000/svg" viewBox="0 0 129.96 129.31"><defs><style>.cls-1{fill:#d94423;}</style></defs><g id="レイヤー_2" data-name="レイヤー 2"><g id="レイヤー_1-2" data-name="レイヤー 1"><path class="cls-1" d="M58.78,125.42l-43-42.54a13.49,13.49,0,0,1,9.49-23.09h86.1a13.49,13.49,0,0,1,9.48,23.09l-43,42.54A13.5,13.5,0,0,1,58.78,125.42Z"/><path class="cls-1" d="M9.51,42.07C2.8,42.07,0,38.27,0,36.46a2.78,2.78,0,0,1,2.8-2.64A2.68,2.68,0,0,1,5,35,5.45,5.45,0,0,0,9.46,36.9c2.91,0,4.07-1.54,4.07-2.8,0-1.76-1.21-2.81-7.65-5.72C2.47,26.89.93,24.2.93,21.5c0-3.74,3.08-7.37,8.36-7.37,5.06,0,8.47,2.48,8.47,4.62A2.79,2.79,0,0,1,15,21.5a3.12,3.12,0,0,1-2.25-1.1,4.56,4.56,0,0,0-3.47-1.32c-1.87,0-2.91,1.05-2.91,2.26a2.85,2.85,0,0,0,1.81,2.42c1.43.71,3.91,1.81,5.56,2.69,3.79,2,5.39,4.84,5.39,7.54C19.14,38.27,15,42.07,9.51,42.07Z"/><path class="cls-1" d="M37.34,42c-10,0-13.75-7.8-13.75-13.69,0-7.42,5.28-14.19,13.92-14.19,5.88,0,9.9,3.47,9.9,5.72a2.88,2.88,0,0,1-5.23,1.65,6.36,6.36,0,0,0-5-2.09c-4.68,0-8,3.63-8,8.64,0,1.21.55,8.52,8.14,8.52A7.25,7.25,0,0,0,43.12,34a2.76,2.76,0,0,1,2.25-1.21,3.12,3.12,0,0,1,3.08,2.92C48.45,38.11,43.78,42,37.34,42Z"/><path class="cls-1" d="M54.56,39.1V39c.16-5.22.22-8.85.22-12.1s-.06-6.16-.17-9.84v-.11c0-1.65,1.6-2.48,3-2.48a2.6,2.6,0,0,1,2.81,2.59c0,.22-.06.38-.06.55v.22c0,.11,0,.16.06.16a.6.6,0,0,0,.22-.22,10.15,10.15,0,0,1,7-3.35,2.58,2.58,0,0,1,2.69,2.64,3.13,3.13,0,0,1-3.13,3c-3.25.33-6.88,3-7,6.49-.06,1-.06,2.15-.06,3.63,0,2.15.06,4.89.17,8.8a2.6,2.6,0,0,1-2.81,2.8A2.71,2.71,0,0,1,54.56,39.1Z"/><path class="cls-1" d="M73.7,28.1a13.83,13.83,0,1,1,27.66,0c0,8.31-5.94,13.91-13.8,13.91S73.7,36.41,73.7,28.1Zm22.1,0c0-5.44-3.73-8.85-8.24-8.85s-8.31,3.41-8.31,8.85,3.74,8.74,8.31,8.74S95.8,33.49,95.8,28.1Z"/><path class="cls-1" d="M108.51,38.66c.11-3.85.11-11.66.11-19s0-14.35-.11-16.55a2.9,2.9,0,0,1,3-3.08,2.84,2.84,0,0,1,3,2.91V3c-.06,2.7-.17,11.17-.17,19.75,0,5.83.06,11.71.17,15.89v.11a2.8,2.8,0,0,1-3,2.86,2.86,2.86,0,0,1-3-2.92Z"/><path class="cls-1" d="M124,38.66c.11-3.85.11-11.66.11-19s0-14.35-.11-16.55A2.9,2.9,0,0,1,127,0a2.84,2.84,0,0,1,3,2.91V3c-.05,2.7-.17,11.17-.17,19.75,0,5.83.06,11.71.17,15.89v.11a2.79,2.79,0,0,1-3,2.86,2.85,2.85,0,0,1-3-2.92Z"/></g></g></svg>