<?xml version="1.0" encoding="utf-8"?>
<!-- Generator: Adobe Illustrator 25.4.1, SVG Export Plug-In . SVG Version: 6.00 Build 0)  -->
<svg version="1.1" id="レイヤー_1" xmlns="http://www.w3.org/2000/svg" xmlns:xlink="http://www.w3.org/1999/xlink" x="0px"
	 y="0px" viewBox="0 0 880 880" style="enable-background:new 0 0 880 880;" xml:space="preserve">
<style type="text/css">
	.st0{enable-background:new    ;}
	.st1{fill:#D94423;}
</style>
<g id="レイヤー_2_00000053515526899280263400000013283645875949345208_">
	<g id="レイヤー_1-2">
		<g class="st0">
			<path class="st1" d="M272.4,50.8c-0.4-1-0.7-2-0.9-3.1c-0.5-1.7-0.9-3.2-1.3-4.3c-0.9-2.5-1.7-3.9-2.3-5
				c-0.1-0.1-0.2-0.3-0.2-0.4c-0.3-0.9,0.2-1.5,0.9-1.8c1.6-0.6,2.4,0.8,4,5.2c0.4,1.2,0.9,2.8,1.5,4.7c0.3,1.1,0.6,2.3,1,3.5
				c1,2.8,2.4,4.3,6,3c0.7-0.2,1.2-0.8,1.5-1.2c0.2-0.2,0.3-0.3,0.5-0.4c0.7-0.2,1.5,0.1,1.8,0.8c0.2,0.5,0.1,1.2-0.5,2
				c-1.3,1.6-4.7,4.8-6.4,6.8c-2.9,3.4-4,6.7-3.3,8.9c1.2,3.5,6.3,3.2,10.2,1.8c3.7-1.3,6.1-3.7,6.5-4.3c0.4-0.5,0.8-0.8,1.2-1
				c0.9-0.3,1.7,0.1,2,0.8c0.9,2.5-5.4,6-8.1,6.9c-7.7,2.8-12.9,0.7-14.3-3.2c-1-2.9-0.1-6.9,3.9-11.8c1.1-1.4,2.6-2.8,3.3-3.7
				C276.2,55.9,273.8,54.7,272.4,50.8z M288.2,47.4c-1-0.8-4.4-2.1-5.8-2.4c-0.5-0.1-0.8-0.4-0.9-0.6c-0.2-0.5,0.2-1.1,0.9-1.4
				c0.9-0.3,7,1.2,7.5,2.8c0.3,0.7-0.2,1.6-0.8,1.8C288.9,47.7,288.5,47.7,288.2,47.4z M291.6,42.4c-1.1-0.8-4.6-2-5.9-2.2
				c-0.6-0.1-0.9-0.3-1-0.6c-0.2-0.5,0.2-1.2,0.9-1.5c0.9-0.3,7.1,1.1,7.7,2.7c0.3,0.7-0.2,1.5-0.8,1.7
				C292.3,42.6,291.9,42.6,291.6,42.4z"/>
		</g>
		<g class="st0">
			<path class="st1" d="M317.1,35.2c-1,0.2-3.9,0.8-4.3-0.9c-0.2-0.6,0.2-1.4,1-1.6c0.3-0.1,0.6-0.1,0.9,0c0.6,0.1,1.3,0.1,2.1-0.1
				c1.3-0.3,2.7-1.1,4-2c-0.9-8.7-0.9-9.5,0.6-9.8c0.7-0.2,1.5,0.1,1.7,0.9c0,0.1,0,0.2,0,0.3c0,2.2,0,4.3,0.1,6.5
				c0.9-0.9,2.3-2.5,2.8-3.2c0.4-0.5,0.7-0.7,1.1-0.8c0.7-0.2,1.3,0.3,1.5,1c0.1,0.5,0,1.2-0.6,1.8c-1.6,1.8-3.1,3.2-4.5,4.4
				c0.5,5.1,1.2,13.3,2,17.4c2.8-6.6,7.5-10.7,11.8-11.7c0.6-0.1,8.5-1.6,9.9,4.5c2,8.7-10.9,17.3-14.5,18.1
				c-1.1,0.3-1.8-0.3-1.9-0.9c-0.2-0.6,0.2-1.4,1.1-1.7c9.7-3.8,13.3-11.4,12.6-14.7c-0.8-3.5-5.4-3.1-6.9-2.8
				c-4.6,1.1-8.7,6.6-10.3,11.2c-0.3,0.9-0.4,1.8-1.2,2.3c-0.2,0.1-0.4,0.2-0.6,0.3c-0.8,0.2-1.8-0.2-2-1.3c-0.2-0.6-0.6-3.6-2.3-19
				C319.7,34.3,318.4,34.9,317.1,35.2z"/>
		</g>
		<g class="st0">
			<path class="st1" d="M369.8,24.9c0-0.2,0-0.4-0.1-0.6c0-0.2,0-0.3-0.1-0.5c-0.3-2.7,0.8-4.4,3.6-6.9c0.9-0.8,1.9-1.4,2.7-2
				c0.7-0.5,0.9-0.8,0.9-1.1c-0.1-0.9-2.9-1.6-3.2-1.6c-0.8-0.2-1.1-0.6-1.2-1c-0.1-0.7,0.5-1.3,1.3-1.4c1.2-0.1,7.8,2.3,8,4.8
				c0.2,1.4-1.2,1.5-1.5,1.5c-3.8,0.4-8.6,4.1-8.3,7.5c0,0.3,0.1,0.5,0.1,0.9c0,0.2,0.1,0.5,0.1,0.7c0.1,0.7,0.1,1.5,0.1,2.3
				c0,1.1-0.2,2.4-0.3,3.3c-0.1,1.4-0.1,3.1,0,4.4c0,0.3,0.4,3.2,1.5,3c0.3,0,0.6-0.3,1.1-0.6c0.9-0.7,3.2-3,5.3-4.5
				c2.7-2,5-3.2,7.4-3.5c4.1-0.5,8,1.7,8.4,5.7c0.3,2.9-1.2,6.7-6.1,10.7c-3.7,3.1-10.9,5.1-12.4,5.3c-1.2,0.1-1.7-0.4-1.8-1
				c-0.1-0.7,0.4-1.5,1.2-1.6c11.4-2.1,16.7-9.3,16.3-13.1c-0.3-2.6-3-3.9-5.6-3.6c-4,0.4-10.2,6.5-11.9,9.2
				c-0.6,0.9-1.2,1.4-1.8,1.5c-0.7,0.1-3.4-0.8-4.1-6.8c-0.2-2-0.3-2.5,0.2-7.5C369.9,27.3,370,26.1,369.8,24.9z"/>
		</g>
		<g class="st0">
			<path class="st1" d="M434.8,18.9c0.5-0.1,0.9-0.2,1.3-0.2c4.9-0.1,5.1,5.3,5.2,7.8c0.1,6.9-0.7,16.3-8.4,16.5
				c-2.4,0-5.5-1-5.5-2.5c0-0.8,0.6-1.5,1.4-1.5c0.2,0,0.4,0,0.6,0.1c1.3,0.7,2.5,1,3.5,0.9c2.8-0.1,5.9-2.5,5.7-14.2
				c-0.1-2.9-0.7-4.7-2.9-4.7c-0.4,0-0.9,0.1-1.4,0.2c-0.4,0.1-0.8,0.2-1.4,0.3c-3.7,7.6-9.3,16.5-12.5,22.1
				c-0.3,0.6-0.9,0.9-1.6,0.9c-0.8,0-1.4-0.4-1.5-1.2c0-0.3,0.1-0.7,0.3-1c3.2-4.8,8.7-13,12.1-20c-4,1-6.5,1.7-8.2,1.7
				c-1,0-1.5-0.7-1.5-1.4c0-0.7,0.4-1.3,1.3-1.4c0.1,0,0.1,0,0.1,0c0.1,0,0.3,0,0.4,0c2.6-0.1,8.1-1.4,9-1.6
				c1.6-3.5,2.4-5.8,2.7-8.8c0.1-0.8,0.7-1.1,1.4-1.1c0.8,0,1.5,0.5,1.6,1.3c0,1-0.4,3.5-2.4,7.9L434.8,18.9z M457.1,30.3
				c-1.2-3.2-5.4-7.1-9.7-8.5c-0.5-0.1-0.7-0.5-0.7-1c0-0.6,0.4-1.3,1.2-1.3c2.5-0.1,11.8,6.2,11.9,10.1c0,1-0.7,1.7-1.5,1.7
				C457.9,31.3,457.3,31,457.1,30.3z"/>
		</g>
		<g class="st0">
			<path class="st1" d="M470.1,27.4c-0.8-0.1-1-0.7-1-1.3c0.1-0.6,0.5-1.2,1.3-1.1l2.9,0.3c2.8,0.3,5.8,0.7,5.4,4.8
				c-0.3,3-0.8,6.2-1.3,9.9c3.8,6.3,10,7.2,16.4,7.9c5.4,0.6,11.2,0.7,15.2,0.9l0.2,0c0.9,0.1,1.3,0.8,1.3,1.5
				c-0.1,0.7-0.6,1.3-1.7,1.2c-3.3,0-8.5-0.3-13.5-0.8c-11.6-1.3-15.5-3.2-19.4-8.8c-3,2.8-7.6,5.6-8.5,5.5
				c-0.8-0.1-1.3-0.9-1.2-1.6c0-0.4,0.3-0.8,0.8-1c2.8-1.3,5.6-2.8,7.9-5.1c0.3-2.6,0.7-5,0.9-7.1l0.2-2.2c0.2-1.5-0.4-2.2-2-2.4
				L470.1,27.4z M478.7,15.5c-1.2-2.3-3.8-4.9-5.2-5.9C473.1,9.3,473,9,473,8.6c0.1-0.6,0.8-1.1,1.5-1.1c1.2,0.1,6.9,5.4,6.7,7.2
				c-0.1,0.9-0.9,1.5-1.6,1.5C479.2,16.2,478.9,15.9,478.7,15.5z M495.2,36.3l-14-1.5c-0.7-0.1-1.1-0.6-1-1.2c0.1-0.5,0.5-1,1.2-0.9
				l8.2,0.9l0.5-4.6l-6.2-0.7c-0.7-0.1-1-0.6-0.9-1.1c0.1-0.5,0.5-1,1.2-0.9l6.2,0.7l0.3-2.3c0.1-0.7,0.7-1,1.3-0.9
				c0.6,0.1,1.2,0.5,1.1,1.2l-0.3,2.4l6.8,0.8l0.3-2.4c0.1-0.7,0.7-1,1.3-0.9s1.2,0.5,1.1,1.2l-0.3,2.3l6.6,0.7
				c0.7,0.1,1,0.6,0.9,1.1c-0.1,0.5-0.4,1-1.1,0.9l-6.6-0.7l-0.5,4.7l8.8,0.9c0.7,0.1,1,0.6,0.9,1.1c-0.1,0.6-0.4,1-1.1,0.9
				L495.2,36.3z M481.6,42.7c-0.8-0.1-1.1-0.7-1-1.3c0.1-0.5,0.4-1,1.1-1c3.2,0,7.3-1.1,9.6-2.3c0.2-0.1,0.4-0.2,0.6-0.1
				c0.6,0.1,1,0.7,1,1.3C492.6,41.3,482.7,42.8,481.6,42.7z M492,14.4c1.2,0.1,1.5-0.1,1.6-0.7c0.3-2.3,0.2-2.4-1.2-2.6l-7.5-0.8
				c-0.7-0.1-0.9-0.6-0.8-1.2c0.1-0.5,0.4-1,1.1-1l8,0.9c3.1,0.3,3.3,1.5,3,4.1c-0.3,3-1,3.7-3.7,3.4l-3.3-0.4
				c-2.5-0.3-3-0.3-3.3,0.8l-0.2,1.8c-0.1,1.1,0.3,1.6,3.8,2c4.5,0.5,5-0.5,5.3-2.3c0.1-0.7,0.6-1,1.2-0.9c0.6,0.1,1.2,0.5,1.1,1.2
				c-0.5,4.2-3.3,4.5-7.8,4c-5.3-0.6-6.2-1.6-5.8-4.7c0.3-2.8,0.5-4.5,3.9-4.2L492,14.4z M499.3,30l-2.7-0.3l-4.1-0.4L492,34
				l6.8,0.8L499.3,30z M507.8,45.4c-0.9-0.1-7.1-2.1-10.6-4.9c-0.3-0.2-0.4-0.6-0.4-0.9c0.1-0.6,0.6-1.1,1.2-1
				c0.2,0,0.3,0.1,0.5,0.2c2.6,1.8,6.5,3.5,9.7,4.2c0.7,0.2,1,0.7,0.9,1.3C509.2,44.9,508.7,45.5,507.8,45.4z M506.8,16
				c1.4,0.2,1.6-0.1,1.7-0.7c0.3-2.3,0.3-2.4-1.3-2.6l-7.6-0.8c-0.7-0.1-0.9-0.7-0.8-1.2c0.1-0.6,0.4-1,1.1-1l8.1,0.9
				c3.2,0.4,3.3,1.6,3.1,4.1c-0.3,2.8-0.7,3.7-3.8,3.4l-3.2-0.4c-3.2-0.4-3.2-0.4-3.6,2.6c-0.1,1.4,0.6,1.6,4,2
				c4.9,0.5,5.3-0.6,5.6-2.3c0.1-0.7,0.7-0.9,1.2-0.9c0.6,0.1,1.2,0.5,1.1,1.2c-0.4,3.7-2.7,4.7-8.2,4c-6-0.7-6.3-1.9-6-4.8
				c0.3-3,0.6-4.5,4-4.2L506.8,16z"/>
		</g>
		<g class="st0">
			<path class="st1" d="M528.6,38.7c0,0,0.2,0,0.3-0.1c1.5-0.9,4.1-1.4,6.2-0.9s3.6,2,2.8,5.3c-0.2,0.8-0.4,1.4-2,4.5
				c-0.3,0.5-0.4,0.9-0.5,1.3c-0.4,1.7,0.7,2.9,2.8,3.4c7.7,1.7,14.9-5.4,17.1-9.9c0.5-0.9,1.2-1.2,1.9-1c0.8,0.2,1.4,1,1.2,2
				c-0.4,1.8-9.2,14.3-20.9,11.6c-5.9-1.3-5.3-4.9-5.1-5.9c0.2-0.7,0.4-1.4,0.9-2.2c1.4-2.5,1.9-3.6,2-4.3c0.3-1.5-0.2-2.4-1.3-2.7
				c-2-0.5-8.3,0.9-12.5,7.8c-1.7,2.8-2.7,3.1-3.5,2.9c-1.4-0.3-1.3-1.4-1.2-1.7c0.2-0.9,2.8-4.3,12.2-14c3.7-3.9,7.1-7.5,10.3-10.9
				c1.1-1.2,2.9-2.8,3.6-3.7c0.4-0.5,1-0.6,1.5-0.5c0.8,0.2,1.5,1,1.3,1.9c-0.1,0.5-0.4,0.9-3.5,3.6c-3,2.7-12.8,12.7-13.4,13.4
				C528.7,38.4,528.6,38.6,528.6,38.7L528.6,38.7z"/>
		</g>
		<g class="st0">
			<path class="st1" d="M593.1,71.9c-0.1,0-0.2-0.1-0.3-0.1C582,67.1,579,57.9,581.4,51c2-5.7,7.6-8.3,8.5-8.7
				c0.3-0.1,0.5-0.2,0.6-0.3c0-0.1,0-0.1-0.2-0.2c-0.1,0-0.3-0.1-0.6,0c-0.4,0-11.7,1.2-13.9,0.4c-1.1-0.4-1.4-1.3-1.2-2
				c0.2-0.6,0.9-1.1,1.9-1c5.5,0.5,15.4,0.2,18.4,0.1c4.7-0.2,9.6,0.1,13.7,1.5c1.4,0.5,1.8,1.5,1.5,2.3c-0.4,1.1-1.5,1.2-2.7,0.8
				c-0.2-0.1-0.3-0.1-0.5-0.2c-0.4-0.2-0.8-0.3-1.2-0.5c-7.6-2.7-19,0.2-21.8,8.4c-2.3,6.4,1.6,14.2,10.1,17.2
				c1.5,0.5,1.9,1.6,1.7,2.4C595.5,71.8,594.5,72.4,593.1,71.9z M604.1,56.2c-0.4-1.2-2.6-4.3-3.6-5.2c-0.4-0.4-0.5-0.8-0.4-1.2
				c0.2-0.5,0.9-0.8,1.6-0.6c0.9,0.3,5.3,5,4.7,6.7c-0.3,0.7-1.1,1.2-1.7,1C604.5,56.7,604.3,56.5,604.1,56.2z M610,54.1
				c-0.5-1.2-2.8-4.3-3.8-5.2c-0.4-0.4-0.6-0.8-0.4-1.2c0.2-0.5,0.9-0.9,1.7-0.6c0.8,0.3,5.4,4.9,4.8,6.6c-0.3,0.8-1.1,1.2-1.7,1
				C610.3,54.6,610.1,54.4,610,54.1z"/>
		</g>
		<g class="st0">
			<path class="st1" d="M629.4,67.1c0.7-1.1,1.3-2.2,2-3.2c-1.6-0.1-4.5,0-6.2,0.3c-0.5,0.1-1,0-1.2-0.1c-0.7-0.3-0.8-1.1-0.5-1.6
				c0.2-0.5,0.7-0.8,1.2-0.8c2.7,0,5.3-0.1,8.1,0.1c2.3-3.9,4.4-7.2,5.4-9.3c0.4-0.8,1.2-0.9,1.7-0.6c0.6,0.3,1.1,1.1,0.8,1.7
				c-0.1,0.2-1.1,1.9-5.4,8.6c0,0,0,0,0,0c0.9,0.4,1.2,1.3,0.7,2.2c-0.3,0.7-0.5,0.8-4.3,3.7c12.8-4.9,17.5-2.8,18.7-2.2
				c5,2.4,3.2,9.1,0.6,14.4c-1.2,2.5-2.8,4.9-4.7,6.4c1.6,2,4.1,5.9,3.4,7.3c-0.4,0.8-1.4,1.1-2.2,0.7c-0.3-0.2-0.6-0.4-0.7-0.8
				c-0.6-2-1.6-4-2.8-5.7c-3.5,1.8-7.6,1.9-10.5,0.4c-1.6-0.8-5.1-3.5-3.7-6.6c0.9-1.9,4.6-3.6,9.7-1.1c1.8,0.9,3.4,2.1,4.9,3.7
				c1.7-1.5,2.9-3.3,3.9-5.2c0.7-1.5,1.3-3.1,1.8-4.7c1.2-3.8,0.3-5.9-1.6-6.8c-2.7-1.3-8-1-18.8,3.1c-1.4,2.3-2.6,4.7-3.7,6.9
				c-1,2.1-1.9,4-2.4,5.8c0,0.1,0,0.2-0.1,0.3c-0.4,0.9-1.4,1.1-2.1,0.7c-1.1-0.5-1.1-1.5,0.7-5.2c1-2.1,2.4-4.5,3.9-7.2
				c-1.8,0.8-7.6,4.7-8.8,5.5c-0.9,0.6-1.6,0.6-2.1,0.3c-0.5-0.2-1.2-0.9-0.7-1.7c0.2-0.3,0.5-0.6,1.6-1.2c0.4-0.2,0.8-0.3,1.2-0.6
				c1.1-0.6,2.3-1.3,3.6-2c2.4-1.5,5.6-3.6,8.1-5.4L629.4,67.1z M638.3,82.6c-2.9-1.4-5.4-0.9-5.9,0.2c-0.4,0.9,0.1,2.4,2.3,3.5
				c2.3,1.1,5.3,0.9,7.8-0.4C641.3,84.6,639.8,83.4,638.3,82.6z"/>
		</g>
	</g>
</g>
</svg>
